M48
; DRILL file {KiCad (6.0.10)} date Sat Feb 10 14:34:56 2024
; FORMAT={-:-/ absolute / inch / decimal}
; #@! TF.CreationDate,2024-02-10T14:34:56+01:00
; #@! TF.GenerationSoftware,Kicad,Pcbnew,(6.0.10)
; #@! TF.FileFunction,Plated,1,4,PTH
FMAT,2
INCH
; #@! TA.AperFunction,Plated,PTH,ViaDrill
T1C0.0079
; #@! TA.AperFunction,Plated,PTH,ViaDrill
T2C0.0157
; #@! TA.AperFunction,Plated,PTH,ComponentDrill
T3C0.0276
; #@! TA.AperFunction,Plated,PTH,ComponentDrill
T4C0.0354
%
G90
G05
T1
X8.4764Y-2.5118
X8.4764Y-2.5866
X8.4941Y-2.2854
X8.5197Y-2.9134
X8.5394Y-2.6693
X8.5394Y-3.0591
X8.5634Y-2.4327
X8.6063Y-2.815
X8.6063Y-3.2087
X8.6102Y-2.5079
X8.6417Y-2.8937
X8.6421Y-2.4327
X8.6457Y-2.748
X8.6496Y-2.5787
X8.6496Y-3.0945
X8.6575Y-2.7165
X8.6575Y-2.8386
X8.6594Y-2.6673
X8.6732Y-2.5079
X8.689Y-2.9961
X8.6929Y-2.9252
X8.7205Y-2.9134
X8.7209Y-2.4327
X8.7323Y-2.4961
X8.7362Y-2.6476
X8.7362Y-2.7657
X8.752Y-2.2854
X8.7717Y-2.4961
X8.7795Y-3.0669
X8.7953Y-2.4961
X8.8051Y-2.8406
X8.8189Y-2.4961
X8.8189Y-2.9528
X8.8189Y-3.0984
X8.8236Y-3.0394
X8.8543Y-2.6476
X8.8543Y-2.7657
X8.8563Y-2.9075
X8.8614Y-3.0394
X8.8661Y-2.8819
X8.8976Y-3.0236
X8.9213Y-3.2598
X8.9335Y-2.3425
X8.937Y-2.5748
X8.937Y-2.622
X8.937Y-2.8622
X8.937Y-2.9409
X8.9685Y-2.7854
X8.9689Y-2.8232
X8.9724Y-2.5748
X8.9724Y-2.622
X8.9764Y-2.7618
X9.0157Y-2.8071
X9.0157Y-2.9646
X9.0276Y-2.752
X9.0669Y-2.7795
X9.0827Y-2.7244
X9.0846Y-2.9134
X9.0846Y-2.9528
X9.0988Y-2.3425
X9.124Y-2.9134
X9.124Y-2.9528
X9.1299Y-2.7677
X9.1535Y-2.4106
X9.1535Y-2.5106
X9.1732Y-2.6575
X9.1732Y-2.815
X9.189Y-2.8937
X9.189Y-2.9724
X9.252Y-2.5787
X9.252Y-2.7362
X9.2913Y-2.4094
X9.2913Y-2.5787
X9.2913Y-2.7362
X9.315Y-2.8543
X9.315Y-2.9331
X9.315Y-3.0118
T2
X8.189Y-2.7205
X8.189Y-2.752
X8.189Y-2.7992
X8.189Y-2.8307
X8.189Y-3.1142
X8.189Y-3.1457
X8.189Y-3.1929
X8.189Y-3.2244
X8.4291Y-2.6417
X8.4291Y-2.6772
X8.4843Y-3.1614
X8.4862Y-2.7677
X8.5748Y-2.9724
X8.752Y-3.2205
X9.0354Y-3.0709
X9.1614Y-3.0984
X9.1614Y-3.2559
X9.1969Y-2.5315
X9.2047Y-2.9213
X9.2362Y-2.4331
X9.2402Y-3.0984
X9.2402Y-3.2559
X9.3189Y-3.0984
X9.3189Y-3.2559
X9.3976Y-3.0984
X9.3976Y-3.2559
X9.4764Y-3.0984
X9.4764Y-3.2559
T3
X8.2677Y-2.9331
X8.2677Y-3.0118
T4
X8.2677Y-2.4606
X8.2677Y-2.5394
X8.2677Y-2.6181
X9.4508Y-2.4606
X9.4508Y-2.5394
X9.4508Y-2.6181
X9.4508Y-2.6969
X9.4508Y-2.7756
X9.4508Y-2.8543
X9.4508Y-2.9331
X9.4508Y-3.0118
T0
M30
