%TF.GenerationSoftware,KiCad,Pcbnew,(6.0.10)*%
%TF.CreationDate,2024-02-10T14:34:54+01:00*%
%TF.ProjectId,TMC6300_HAL,544d4336-3330-4305-9f48-414c2e6b6963,rev?*%
%TF.SameCoordinates,Original*%
%TF.FileFunction,Copper,L4,Bot*%
%TF.FilePolarity,Positive*%
%FSLAX46Y46*%
G04 Gerber Fmt 4.6, Leading zero omitted, Abs format (unit mm)*
G04 Created by KiCad (PCBNEW (6.0.10)) date 2024-02-10 14:34:54*
%MOMM*%
%LPD*%
G01*
G04 APERTURE LIST*
%TA.AperFunction,ComponentPad*%
%ADD10R,1.350000X1.350000*%
%TD*%
%TA.AperFunction,ComponentPad*%
%ADD11C,1.350000*%
%TD*%
%TA.AperFunction,ComponentPad*%
%ADD12R,1.100000X1.100000*%
%TD*%
%TA.AperFunction,ComponentPad*%
%ADD13C,1.100000*%
%TD*%
%TA.AperFunction,SMDPad,CuDef*%
%ADD14C,1.000000*%
%TD*%
%TA.AperFunction,ViaPad*%
%ADD15C,0.450000*%
%TD*%
%TA.AperFunction,ViaPad*%
%ADD16C,0.800000*%
%TD*%
%TA.AperFunction,Conductor*%
%ADD17C,0.250000*%
%TD*%
%TA.AperFunction,Conductor*%
%ADD18C,0.500000*%
%TD*%
%TA.AperFunction,Conductor*%
%ADD19C,0.400000*%
%TD*%
%TA.AperFunction,Conductor*%
%ADD20C,1.000000*%
%TD*%
%TA.AperFunction,Conductor*%
%ADD21C,0.800000*%
%TD*%
%TA.AperFunction,Conductor*%
%ADD22C,0.600000*%
%TD*%
G04 APERTURE END LIST*
D10*
%TO.P,J101,1,1*%
%TO.N,/5V0*%
X240050000Y-62500000D03*
D11*
%TO.P,J101,2,2*%
%TO.N,VSS*%
X240050000Y-64500000D03*
%TO.P,J101,3,3*%
%TO.N,/RAW_HALL_A*%
X240050000Y-66500000D03*
%TO.P,J101,4,4*%
%TO.N,/RAW_HALL_B*%
X240050000Y-68500000D03*
%TO.P,J101,5,5*%
%TO.N,/RAW_HALL_C*%
X240050000Y-70500000D03*
%TO.P,J101,6,6*%
%TO.N,/BLDC_W*%
X240050000Y-72500000D03*
%TO.P,J101,7,7*%
%TO.N,/BLDC_V*%
X240050000Y-74500000D03*
%TO.P,J101,8,8*%
%TO.N,/BLDC_U*%
X240050000Y-76500000D03*
%TD*%
D12*
%TO.P,J103,1,1*%
%TO.N,VS*%
X210000000Y-76500000D03*
D13*
%TO.P,J103,2,2*%
%TO.N,VSS*%
X210000000Y-74500000D03*
%TD*%
D11*
%TO.P,J102,3,3*%
%TO.N,VSS*%
X210000000Y-62500000D03*
%TO.P,J102,2,2*%
%TO.N,/CMD_RX*%
X210000000Y-64500000D03*
D10*
%TO.P,J102,1,1*%
%TO.N,/CMD_TX*%
X210000000Y-66500000D03*
%TD*%
D14*
%TO.P,TP201,1,1*%
%TO.N,/BLDC_WH*%
X229500000Y-66900000D03*
%TD*%
%TO.P,TP202,1,1*%
%TO.N,/BLDC_UL*%
X226000000Y-73200000D03*
%TD*%
%TO.P,TP204,1,1*%
%TO.N,/BLDC_WL*%
X226000000Y-75300000D03*
%TD*%
%TO.P,TP206,1,1*%
%TO.N,/BLDC_VL*%
X228100000Y-75300000D03*
%TD*%
%TO.P,TP203,1,1*%
%TO.N,/BLDC_VH*%
X231600000Y-66900000D03*
%TD*%
%TO.P,TP205,1,1*%
%TO.N,/BLDC_UH*%
X231600000Y-69000000D03*
%TD*%
D15*
%TO.N,VSS*%
X219700000Y-78600000D03*
%TO.N,Net-(IC101-Pad28)*%
X224000000Y-63400000D03*
%TO.N,Net-(IC101-Pad29)*%
X223400000Y-63400000D03*
%TO.N,Net-(IC101-Pad30)*%
X222800000Y-63400000D03*
%TO.N,VSS*%
X222300000Y-58050000D03*
X215750000Y-58050000D03*
%TO.N,Net-(IC101-Pad28)*%
X221510000Y-61790000D03*
%TO.N,Net-(IC101-Pad29)*%
X219510000Y-61790000D03*
%TO.N,Net-(IC101-Pad30)*%
X217510000Y-61790000D03*
%TO.N,VS_ADC*%
X220800000Y-74300000D03*
X219600000Y-69800000D03*
%TO.N,VDDA*%
X219900000Y-69000000D03*
%TO.N,VDD*%
X219500000Y-73500000D03*
%TO.N,GND*%
X221500000Y-74000000D03*
%TO.N,VDDA*%
X219900000Y-72100000D03*
%TO.N,VDD*%
X215300000Y-65700000D03*
X215300000Y-63800000D03*
%TO.N,VSS*%
X220700000Y-76100000D03*
%TO.N,VDD*%
X216400000Y-74000000D03*
D16*
%TO.N,VSS*%
X233600000Y-64300000D03*
%TO.N,/5V0*%
X234600000Y-61800000D03*
D15*
X216900000Y-77700000D03*
D16*
%TO.N,VSS*%
X215550000Y-70300000D03*
D15*
%TO.N,VDD*%
X216900000Y-67800000D03*
D16*
%TO.N,VS*%
X214100000Y-67100000D03*
X214100000Y-68000000D03*
D15*
X218600000Y-71500000D03*
X218600000Y-81500000D03*
D16*
%TO.N,VSS*%
X215500000Y-80300000D03*
X217800000Y-75500000D03*
%TO.N,/5V0*%
X208000000Y-79100000D03*
X208000000Y-79900000D03*
%TO.N,VSS*%
X208000000Y-81900000D03*
X208000000Y-81100000D03*
%TO.N,VDD*%
X208000000Y-69100000D03*
%TO.N,VSS*%
X208000000Y-71100000D03*
X208000000Y-71900000D03*
%TO.N,VDD*%
X208000000Y-69900000D03*
D15*
X218700000Y-63700000D03*
X235000000Y-65500000D03*
X225080000Y-77200000D03*
X235000000Y-69500000D03*
X219950000Y-67750000D03*
X231110000Y-59500000D03*
X227800000Y-70750000D03*
X232500000Y-63770000D03*
D16*
%TO.N,/BLDC_ISENSE*%
X222300000Y-81800000D03*
D15*
%TO.N,/BLDC_WL*%
X224950000Y-73850000D03*
X223650000Y-72150000D03*
%TO.N,/BLDC_VL*%
X229000000Y-75300000D03*
%TO.N,/BLDC_UL*%
X225200000Y-73200000D03*
%TO.N,VSS*%
X236600000Y-76500000D03*
D16*
X236700000Y-82700000D03*
D15*
X233000000Y-71500000D03*
X236000000Y-61200000D03*
X219700000Y-65500000D03*
X236600000Y-74500000D03*
X220300000Y-63700000D03*
X226600000Y-82800000D03*
X229000000Y-71300000D03*
X226910000Y-59500000D03*
X227810000Y-71710000D03*
X221900000Y-67250000D03*
D16*
X234700000Y-82700000D03*
D15*
X233000000Y-67500000D03*
X223000000Y-77900000D03*
X236600000Y-72500000D03*
D16*
X240700000Y-82700000D03*
D15*
X224000000Y-78700000D03*
X232500000Y-61230000D03*
X236000000Y-69500000D03*
X224000000Y-75000000D03*
X231750000Y-75000000D03*
X230750000Y-75000000D03*
X221800000Y-63400000D03*
D16*
X232700000Y-82700000D03*
D15*
X236000000Y-65500000D03*
X224900000Y-67250000D03*
X226000000Y-76800000D03*
X227000000Y-74700000D03*
X221900000Y-70250000D03*
X231750000Y-74000000D03*
D16*
X238700000Y-82700000D03*
D15*
X229300000Y-69900000D03*
X230750000Y-74000000D03*
X224120000Y-77200000D03*
X227000000Y-72700000D03*
X224900000Y-70250000D03*
%TO.N,/BLDC_WH*%
X228000000Y-70150000D03*
%TO.N,/BLDC_VH*%
X230300000Y-70600000D03*
%TO.N,/BLDC_UH*%
X230700000Y-69200000D03*
%TO.N,SYS_SWDIO*%
X227900000Y-66600000D03*
X227900000Y-65400000D03*
%TO.N,SYS_SWCLK*%
X227000000Y-65400000D03*
X227000000Y-66600000D03*
%TO.N,Net-(IC201-Pad16)*%
X233400000Y-75500000D03*
X233400000Y-73500000D03*
D16*
X229500000Y-78000000D03*
%TO.N,VS*%
X232700000Y-78700000D03*
X236700000Y-78700000D03*
X238700000Y-78700000D03*
X240700000Y-78700000D03*
D15*
X231900000Y-70300000D03*
D16*
X233800000Y-74200000D03*
X234700000Y-78700000D03*
%TD*%
D17*
%TO.N,/BLDC_VL*%
X229000000Y-75300000D02*
X228100000Y-75300000D01*
%TO.N,/BLDC_UL*%
X225200000Y-73200000D02*
X226000000Y-73200000D01*
D18*
%TO.N,/5V0*%
X208000000Y-73700000D02*
X208000000Y-79100000D01*
X209000000Y-72700000D02*
X208000000Y-73700000D01*
X209000000Y-68300000D02*
X209000000Y-72700000D01*
X209000000Y-61000000D02*
X208000000Y-62000000D01*
X213100000Y-61000000D02*
X209000000Y-61000000D01*
X215300000Y-58800000D02*
X213100000Y-61000000D01*
X234100000Y-58800000D02*
X215300000Y-58800000D01*
X208000000Y-62000000D02*
X208000000Y-67300000D01*
X208000000Y-67300000D02*
X209000000Y-68300000D01*
X234600000Y-59300000D02*
X234100000Y-58800000D01*
X234600000Y-61800000D02*
X234600000Y-59300000D01*
D19*
%TO.N,VS*%
X214400000Y-71500000D02*
X214100000Y-71200000D01*
X218600000Y-71500000D02*
X214400000Y-71500000D01*
D20*
X214100000Y-71200000D02*
X214100000Y-75900000D01*
X214100000Y-67100000D02*
X214100000Y-71200000D01*
D19*
X218600000Y-77200000D02*
X217900000Y-76500000D01*
D20*
X210100000Y-76600000D02*
X210000000Y-76500000D01*
X218000000Y-76600000D02*
X210100000Y-76600000D01*
X218600000Y-77200000D02*
X218000000Y-76600000D01*
X218600000Y-77200000D02*
X218600000Y-79900000D01*
D19*
X217900000Y-76500000D02*
X213500000Y-76500000D01*
D17*
%TO.N,Net-(IC101-Pad28)*%
X223090000Y-61790000D02*
X224000000Y-62700000D01*
X221510000Y-61790000D02*
X223090000Y-61790000D01*
X224000000Y-62700000D02*
X224000000Y-63400000D01*
%TO.N,Net-(IC101-Pad30)*%
X218520000Y-62800000D02*
X217510000Y-61790000D01*
X222800000Y-63100000D02*
X222500000Y-62800000D01*
X222800000Y-63400000D02*
X222800000Y-63100000D01*
X222500000Y-62800000D02*
X218520000Y-62800000D01*
%TO.N,Net-(IC101-Pad29)*%
X220020000Y-62300000D02*
X219510000Y-61790000D01*
X222800000Y-62300000D02*
X220020000Y-62300000D01*
X223400000Y-62900000D02*
X222800000Y-62300000D01*
X223400000Y-63400000D02*
X223400000Y-62900000D01*
%TO.N,VS_ADC*%
X219300000Y-72500000D02*
X219300000Y-70100000D01*
X220800000Y-74000000D02*
X219300000Y-72500000D01*
X219300000Y-70100000D02*
X219600000Y-69800000D01*
X220800000Y-74300000D02*
X220800000Y-74000000D01*
%TO.N,VDDA*%
X220200000Y-71800000D02*
X219900000Y-72100000D01*
X220200000Y-69300000D02*
X220200000Y-71800000D01*
X219900000Y-69000000D02*
X220200000Y-69300000D01*
D21*
%TO.N,VS*%
X234700000Y-74200000D02*
X233800000Y-74200000D01*
X234700000Y-78700000D02*
X234700000Y-74200000D01*
D22*
X234700000Y-73100000D02*
X234700000Y-78700000D01*
X232300000Y-72500000D02*
X234100000Y-72500000D01*
X231900000Y-72100000D02*
X232300000Y-72500000D01*
X231900000Y-70300000D02*
X231900000Y-72100000D01*
X234100000Y-72500000D02*
X234700000Y-73100000D01*
D19*
%TO.N,Net-(IC201-Pad16)*%
X233200000Y-75500000D02*
X233400000Y-75500000D01*
X233200000Y-73500000D02*
X232900000Y-73800000D01*
X232900000Y-73800000D02*
X232900000Y-75200000D01*
X232900000Y-75200000D02*
X233200000Y-75500000D01*
X233400000Y-73500000D02*
X233200000Y-73500000D01*
D20*
%TO.N,VS*%
X232700000Y-78700000D02*
X240700000Y-78700000D01*
X231500000Y-79900000D02*
X232700000Y-78700000D01*
X218600000Y-79900000D02*
X231500000Y-79900000D01*
D19*
X218600000Y-81500000D02*
X218600000Y-79900000D01*
D18*
%TO.N,/5V0*%
X208000000Y-80000000D02*
X208000000Y-79100000D01*
X215500000Y-79100000D02*
X208000000Y-79100000D01*
X216900000Y-77700000D02*
X215500000Y-79100000D01*
D20*
%TO.N,VS*%
X213500000Y-76500000D02*
X210000000Y-76500000D01*
X214100000Y-75900000D02*
X213500000Y-76500000D01*
D17*
%TO.N,/BLDC_WL*%
X223650000Y-72550000D02*
X223650000Y-72150000D01*
X224950000Y-73850000D02*
X223650000Y-72550000D01*
X224950000Y-73850000D02*
X224950000Y-74250000D01*
X224950000Y-74250000D02*
X226000000Y-75300000D01*
%TO.N,/BLDC_WH*%
X228000000Y-70150000D02*
X229500000Y-68650000D01*
X229500000Y-68650000D02*
X229500000Y-66900000D01*
%TO.N,/BLDC_VH*%
X230000000Y-68500000D02*
X231600000Y-66900000D01*
X230300000Y-70600000D02*
X230000000Y-70300000D01*
X230000000Y-70300000D02*
X230000000Y-68500000D01*
%TO.N,/BLDC_UH*%
X231600000Y-69000000D02*
X230900000Y-69000000D01*
X230900000Y-69000000D02*
X230700000Y-69200000D01*
%TO.N,SYS_SWDIO*%
X227900000Y-66600000D02*
X227900000Y-65400000D01*
%TO.N,SYS_SWCLK*%
X227000000Y-66600000D02*
X227000000Y-65400000D01*
D19*
%TO.N,Net-(IC201-Pad16)*%
X231700000Y-78000000D02*
X233400000Y-76300000D01*
X229500000Y-78000000D02*
X231700000Y-78000000D01*
X233400000Y-76300000D02*
X233400000Y-75500000D01*
%TD*%
M02*
