%TF.GenerationSoftware,KiCad,Pcbnew,(6.0.10)*%
%TF.CreationDate,2024-02-10T14:34:57+01:00*%
%TF.ProjectId,TMC6300_HAL,544d4336-3330-4305-9f48-414c2e6b6963,rev?*%
%TF.SameCoordinates,Original*%
%TF.FileFunction,Drillmap*%
%TF.FilePolarity,Positive*%
%FSLAX45Y45*%
G04 Gerber Fmt 4.5, Leading zero omitted, Abs format (unit mm)*
G04 Created by KiCad (PCBNEW (6.0.10)) date 2024-02-10 14:34:57*
%MOMM*%
%LPD*%
G01*
G04 APERTURE LIST*
%ADD10C,0.050000*%
%ADD11C,0.200000*%
%ADD12C,0.020000*%
%ADD13C,0.040000*%
%ADD14C,0.070000*%
%ADD15C,0.090000*%
G04 APERTURE END LIST*
D10*
X21400000Y-5300000D02*
X20800000Y-5300000D01*
X21500000Y-5600000D02*
X21500000Y-5400000D01*
X23400000Y-5700000D02*
X21600000Y-5700000D01*
X23600000Y-5300000D02*
X23700000Y-5300000D01*
X23500000Y-5600000D02*
X23500000Y-5400000D01*
X23400000Y-5700000D02*
G75*
G03*
X23500000Y-5600000I0J100000D01*
G01*
X21500000Y-5600000D02*
G75*
G03*
X21600000Y-5700000I100000J0D01*
G01*
X21500000Y-5400000D02*
G75*
G03*
X21400000Y-5300000I-100000J0D01*
G01*
X23600000Y-5300000D02*
G75*
G03*
X23500000Y-5400000I0J-100000D01*
G01*
X24200000Y-8400000D02*
G75*
G03*
X24300000Y-8300000I0J100000D01*
G01*
X20700000Y-8300000D02*
G75*
G03*
X20800000Y-8400000I100000J0D01*
G01*
X24300000Y-5400000D02*
G75*
G03*
X24200000Y-5300000I-100000J0D01*
G01*
X20800000Y-5300000D02*
G75*
G03*
X20700000Y-5400000I0J-100000D01*
G01*
X24200000Y-5300000D02*
X23700000Y-5300000D01*
X24300000Y-8300000D02*
X24300000Y-5400000D01*
X20700000Y-5400000D02*
X20700000Y-8300000D01*
X20800000Y-8400000D02*
X24200000Y-8400000D01*
D11*
D12*
X21520000Y-6370000D02*
X21540000Y-6390000D01*
X21540000Y-6370000D02*
X21520000Y-6390000D01*
X21520000Y-6560000D02*
X21540000Y-6580000D01*
X21540000Y-6560000D02*
X21520000Y-6580000D01*
X21565000Y-5795000D02*
X21585000Y-5815000D01*
X21585000Y-5795000D02*
X21565000Y-5815000D01*
X21630000Y-7390000D02*
X21650000Y-7410000D01*
X21650000Y-7390000D02*
X21630000Y-7410000D01*
X21680000Y-6770000D02*
X21700000Y-6790000D01*
X21700000Y-6770000D02*
X21680000Y-6790000D01*
X21680000Y-7760000D02*
X21700000Y-7780000D01*
X21700000Y-7760000D02*
X21680000Y-7780000D01*
X21741000Y-6169000D02*
X21761000Y-6189000D01*
X21761000Y-6169000D02*
X21741000Y-6189000D01*
X21850000Y-7140000D02*
X21870000Y-7160000D01*
X21870000Y-7140000D02*
X21850000Y-7160000D01*
X21850000Y-8140000D02*
X21870000Y-8160000D01*
X21870000Y-8140000D02*
X21850000Y-8160000D01*
X21860000Y-6360000D02*
X21880000Y-6380000D01*
X21880000Y-6360000D02*
X21860000Y-6380000D01*
X21940000Y-7340000D02*
X21960000Y-7360000D01*
X21960000Y-7340000D02*
X21940000Y-7360000D01*
X21941000Y-6169000D02*
X21961000Y-6189000D01*
X21961000Y-6169000D02*
X21941000Y-6189000D01*
X21950000Y-6970000D02*
X21970000Y-6990000D01*
X21970000Y-6970000D02*
X21950000Y-6990000D01*
X21960000Y-6540000D02*
X21980000Y-6560000D01*
X21980000Y-6540000D02*
X21960000Y-6560000D01*
X21960000Y-7850000D02*
X21980000Y-7870000D01*
X21980000Y-7850000D02*
X21960000Y-7870000D01*
X21980000Y-6890000D02*
X22000000Y-6910000D01*
X22000000Y-6890000D02*
X21980000Y-6910000D01*
X21980000Y-7200000D02*
X22000000Y-7220000D01*
X22000000Y-7200000D02*
X21980000Y-7220000D01*
X21985000Y-6765000D02*
X22005000Y-6785000D01*
X22005000Y-6765000D02*
X21985000Y-6785000D01*
X22020000Y-6360000D02*
X22040000Y-6380000D01*
X22040000Y-6360000D02*
X22020000Y-6380000D01*
X22060000Y-7600000D02*
X22080000Y-7620000D01*
X22080000Y-7600000D02*
X22060000Y-7620000D01*
X22070000Y-7420000D02*
X22090000Y-7440000D01*
X22090000Y-7420000D02*
X22070000Y-7440000D01*
X22140000Y-7390000D02*
X22160000Y-7410000D01*
X22160000Y-7390000D02*
X22140000Y-7410000D01*
X22141000Y-6169000D02*
X22161000Y-6189000D01*
X22161000Y-6169000D02*
X22141000Y-6189000D01*
X22170000Y-6330000D02*
X22190000Y-6350000D01*
X22190000Y-6330000D02*
X22170000Y-6350000D01*
X22180000Y-6715000D02*
X22200000Y-6735000D01*
X22200000Y-6715000D02*
X22180000Y-6735000D01*
X22180000Y-7015000D02*
X22200000Y-7035000D01*
X22200000Y-7015000D02*
X22180000Y-7035000D01*
X22220000Y-5795000D02*
X22240000Y-5815000D01*
X22240000Y-5795000D02*
X22220000Y-5815000D01*
X22270000Y-6330000D02*
X22290000Y-6350000D01*
X22290000Y-6330000D02*
X22270000Y-6350000D01*
X22290000Y-7780000D02*
X22310000Y-7800000D01*
X22310000Y-7780000D02*
X22290000Y-7800000D01*
X22330000Y-6330000D02*
X22350000Y-6350000D01*
X22350000Y-6330000D02*
X22330000Y-6350000D01*
X22355000Y-7205000D02*
X22375000Y-7225000D01*
X22375000Y-7205000D02*
X22355000Y-7225000D01*
X22390000Y-6330000D02*
X22410000Y-6350000D01*
X22410000Y-6330000D02*
X22390000Y-6350000D01*
X22390000Y-7490000D02*
X22410000Y-7510000D01*
X22410000Y-7490000D02*
X22390000Y-7510000D01*
X22390000Y-7860000D02*
X22410000Y-7880000D01*
X22410000Y-7860000D02*
X22390000Y-7880000D01*
X22402000Y-7710000D02*
X22422000Y-7730000D01*
X22422000Y-7710000D02*
X22402000Y-7730000D01*
X22480000Y-6715000D02*
X22500000Y-6735000D01*
X22500000Y-6715000D02*
X22480000Y-6735000D01*
X22480000Y-7015000D02*
X22500000Y-7035000D01*
X22500000Y-7015000D02*
X22480000Y-7035000D01*
X22485000Y-7375000D02*
X22505000Y-7395000D01*
X22505000Y-7375000D02*
X22485000Y-7395000D01*
X22498000Y-7710000D02*
X22518000Y-7730000D01*
X22518000Y-7710000D02*
X22498000Y-7730000D01*
X22510000Y-7310000D02*
X22530000Y-7330000D01*
X22530000Y-7310000D02*
X22510000Y-7330000D01*
X22590000Y-7670000D02*
X22610000Y-7690000D01*
X22610000Y-7670000D02*
X22590000Y-7690000D01*
X22650000Y-8270000D02*
X22670000Y-8290000D01*
X22670000Y-8270000D02*
X22650000Y-8290000D01*
X22681000Y-5940000D02*
X22701000Y-5960000D01*
X22701000Y-5940000D02*
X22681000Y-5960000D01*
X22690000Y-6530000D02*
X22710000Y-6550000D01*
X22710000Y-6530000D02*
X22690000Y-6550000D01*
X22690000Y-6650000D02*
X22710000Y-6670000D01*
X22710000Y-6650000D02*
X22690000Y-6670000D01*
X22690000Y-7260000D02*
X22710000Y-7280000D01*
X22710000Y-7260000D02*
X22690000Y-7280000D01*
X22690000Y-7460000D02*
X22710000Y-7480000D01*
X22710000Y-7460000D02*
X22690000Y-7480000D01*
X22770000Y-7065000D02*
X22790000Y-7085000D01*
X22790000Y-7065000D02*
X22770000Y-7085000D01*
X22771000Y-7161000D02*
X22791000Y-7181000D01*
X22791000Y-7161000D02*
X22771000Y-7181000D01*
X22780000Y-6530000D02*
X22800000Y-6550000D01*
X22800000Y-6530000D02*
X22780000Y-6550000D01*
X22780000Y-6650000D02*
X22800000Y-6670000D01*
X22800000Y-6650000D02*
X22780000Y-6670000D01*
X22790000Y-7005000D02*
X22810000Y-7025000D01*
X22810000Y-7005000D02*
X22790000Y-7025000D01*
X22890000Y-7120000D02*
X22910000Y-7140000D01*
X22910000Y-7120000D02*
X22890000Y-7140000D01*
X22890000Y-7520000D02*
X22910000Y-7540000D01*
X22910000Y-7520000D02*
X22890000Y-7540000D01*
X22920000Y-6980000D02*
X22940000Y-7000000D01*
X22940000Y-6980000D02*
X22920000Y-7000000D01*
X23020000Y-7050000D02*
X23040000Y-7070000D01*
X23040000Y-7050000D02*
X23020000Y-7070000D01*
X23060000Y-6910000D02*
X23080000Y-6930000D01*
X23080000Y-6910000D02*
X23060000Y-6930000D01*
X23065000Y-7390000D02*
X23085000Y-7410000D01*
X23085000Y-7390000D02*
X23065000Y-7410000D01*
X23065000Y-7490000D02*
X23085000Y-7510000D01*
X23085000Y-7490000D02*
X23065000Y-7510000D01*
X23101000Y-5940000D02*
X23121000Y-5960000D01*
X23121000Y-5940000D02*
X23101000Y-5960000D01*
X23165000Y-7390000D02*
X23185000Y-7410000D01*
X23185000Y-7390000D02*
X23165000Y-7410000D01*
X23165000Y-7490000D02*
X23185000Y-7510000D01*
X23185000Y-7490000D02*
X23165000Y-7510000D01*
X23180000Y-7020000D02*
X23200000Y-7040000D01*
X23200000Y-7020000D02*
X23180000Y-7040000D01*
X23240000Y-6113000D02*
X23260000Y-6133000D01*
X23260000Y-6113000D02*
X23240000Y-6133000D01*
X23240000Y-6367000D02*
X23260000Y-6387000D01*
X23260000Y-6367000D02*
X23240000Y-6387000D01*
X23290000Y-6740000D02*
X23310000Y-6760000D01*
X23310000Y-6740000D02*
X23290000Y-6760000D01*
X23290000Y-7140000D02*
X23310000Y-7160000D01*
X23310000Y-7140000D02*
X23290000Y-7160000D01*
X23330000Y-7340000D02*
X23350000Y-7360000D01*
X23350000Y-7340000D02*
X23330000Y-7360000D01*
X23330000Y-7540000D02*
X23350000Y-7560000D01*
X23350000Y-7540000D02*
X23330000Y-7560000D01*
X23490000Y-6540000D02*
X23510000Y-6560000D01*
X23510000Y-6540000D02*
X23490000Y-6560000D01*
X23490000Y-6940000D02*
X23510000Y-6960000D01*
X23510000Y-6940000D02*
X23490000Y-6960000D01*
X23590000Y-6110000D02*
X23610000Y-6130000D01*
X23610000Y-6110000D02*
X23590000Y-6130000D01*
X23590000Y-6540000D02*
X23610000Y-6560000D01*
X23610000Y-6540000D02*
X23590000Y-6560000D01*
X23590000Y-6940000D02*
X23610000Y-6960000D01*
X23610000Y-6940000D02*
X23590000Y-6960000D01*
X23650000Y-7240000D02*
X23670000Y-7260000D01*
X23670000Y-7240000D02*
X23650000Y-7260000D01*
X23650000Y-7440000D02*
X23670000Y-7460000D01*
X23670000Y-7440000D02*
X23650000Y-7460000D01*
X23650000Y-7640000D02*
X23670000Y-7660000D01*
X23670000Y-7640000D02*
X23650000Y-7660000D01*
D13*
X20820000Y-6910000D02*
G75*
G03*
X20820000Y-6910000I-20000J0D01*
G01*
X20820000Y-6990000D02*
G75*
G03*
X20820000Y-6990000I-20000J0D01*
G01*
X20820000Y-7110000D02*
G75*
G03*
X20820000Y-7110000I-20000J0D01*
G01*
X20820000Y-7190000D02*
G75*
G03*
X20820000Y-7190000I-20000J0D01*
G01*
X20820000Y-7910000D02*
G75*
G03*
X20820000Y-7910000I-20000J0D01*
G01*
X20820000Y-7990000D02*
G75*
G03*
X20820000Y-7990000I-20000J0D01*
G01*
X20820000Y-8110000D02*
G75*
G03*
X20820000Y-8110000I-20000J0D01*
G01*
X20820000Y-8190000D02*
G75*
G03*
X20820000Y-8190000I-20000J0D01*
G01*
X21430000Y-6710000D02*
G75*
G03*
X21430000Y-6710000I-20000J0D01*
G01*
X21430000Y-6800000D02*
G75*
G03*
X21430000Y-6800000I-20000J0D01*
G01*
X21570000Y-8030000D02*
G75*
G03*
X21570000Y-8030000I-20000J0D01*
G01*
X21575000Y-7030000D02*
G75*
G03*
X21575000Y-7030000I-20000J0D01*
G01*
X21800000Y-7550000D02*
G75*
G03*
X21800000Y-7550000I-20000J0D01*
G01*
X22250000Y-8180000D02*
G75*
G03*
X22250000Y-8180000I-20000J0D01*
G01*
X22970000Y-7800000D02*
G75*
G03*
X22970000Y-7800000I-20000J0D01*
G01*
X23290000Y-7870000D02*
G75*
G03*
X23290000Y-7870000I-20000J0D01*
G01*
X23290000Y-8270000D02*
G75*
G03*
X23290000Y-8270000I-20000J0D01*
G01*
X23380000Y-6430000D02*
G75*
G03*
X23380000Y-6430000I-20000J0D01*
G01*
X23400000Y-7420000D02*
G75*
G03*
X23400000Y-7420000I-20000J0D01*
G01*
X23480000Y-6180000D02*
G75*
G03*
X23480000Y-6180000I-20000J0D01*
G01*
X23490000Y-7870000D02*
G75*
G03*
X23490000Y-7870000I-20000J0D01*
G01*
X23490000Y-8270000D02*
G75*
G03*
X23490000Y-8270000I-20000J0D01*
G01*
X23690000Y-7870000D02*
G75*
G03*
X23690000Y-7870000I-20000J0D01*
G01*
X23690000Y-8270000D02*
G75*
G03*
X23690000Y-8270000I-20000J0D01*
G01*
X23890000Y-7870000D02*
G75*
G03*
X23890000Y-7870000I-20000J0D01*
G01*
X23890000Y-8270000D02*
G75*
G03*
X23890000Y-8270000I-20000J0D01*
G01*
X24090000Y-7870000D02*
G75*
G03*
X24090000Y-7870000I-20000J0D01*
G01*
X24090000Y-8270000D02*
G75*
G03*
X24090000Y-8270000I-20000J0D01*
G01*
D14*
X21000000Y-7415000D02*
X21000000Y-7485000D01*
X20965000Y-7450000D02*
X21035000Y-7450000D01*
X21000000Y-7615000D02*
X21000000Y-7685000D01*
X20965000Y-7650000D02*
X21035000Y-7650000D01*
D15*
X21031820Y-6281820D02*
X21031820Y-6218180D01*
X20968180Y-6218180D01*
X20968180Y-6281820D01*
X21031820Y-6281820D01*
X21031820Y-6481820D02*
X21031820Y-6418180D01*
X20968180Y-6418180D01*
X20968180Y-6481820D01*
X21031820Y-6481820D01*
X21031820Y-6681820D02*
X21031820Y-6618180D01*
X20968180Y-6618180D01*
X20968180Y-6681820D01*
X21031820Y-6681820D01*
X24036820Y-6281820D02*
X24036820Y-6218180D01*
X23973180Y-6218180D01*
X23973180Y-6281820D01*
X24036820Y-6281820D01*
X24036820Y-6481820D02*
X24036820Y-6418180D01*
X23973180Y-6418180D01*
X23973180Y-6481820D01*
X24036820Y-6481820D01*
X24036820Y-6681820D02*
X24036820Y-6618180D01*
X23973180Y-6618180D01*
X23973180Y-6681820D01*
X24036820Y-6681820D01*
X24036820Y-6881820D02*
X24036820Y-6818180D01*
X23973180Y-6818180D01*
X23973180Y-6881820D01*
X24036820Y-6881820D01*
X24036820Y-7081820D02*
X24036820Y-7018180D01*
X23973180Y-7018180D01*
X23973180Y-7081820D01*
X24036820Y-7081820D01*
X24036820Y-7281820D02*
X24036820Y-7218180D01*
X23973180Y-7218180D01*
X23973180Y-7281820D01*
X24036820Y-7281820D01*
X24036820Y-7481820D02*
X24036820Y-7418180D01*
X23973180Y-7418180D01*
X23973180Y-7481820D01*
X24036820Y-7481820D01*
X24036820Y-7681820D02*
X24036820Y-7618180D01*
X23973180Y-7618180D01*
X23973180Y-7681820D01*
X24036820Y-7681820D01*
D11*
X20955119Y-8712976D02*
X20955119Y-8512976D01*
X21002738Y-8512976D01*
X21031310Y-8522500D01*
X21050357Y-8541548D01*
X21059881Y-8560595D01*
X21069405Y-8598690D01*
X21069405Y-8627262D01*
X21059881Y-8665357D01*
X21050357Y-8684405D01*
X21031310Y-8703452D01*
X21002738Y-8712976D01*
X20955119Y-8712976D01*
X21155119Y-8712976D02*
X21155119Y-8579643D01*
X21155119Y-8617738D02*
X21164643Y-8598690D01*
X21174167Y-8589167D01*
X21193214Y-8579643D01*
X21212262Y-8579643D01*
X21278929Y-8712976D02*
X21278929Y-8579643D01*
X21278929Y-8512976D02*
X21269405Y-8522500D01*
X21278929Y-8532024D01*
X21288452Y-8522500D01*
X21278929Y-8512976D01*
X21278929Y-8532024D01*
X21402738Y-8712976D02*
X21383690Y-8703452D01*
X21374167Y-8684405D01*
X21374167Y-8512976D01*
X21507500Y-8712976D02*
X21488452Y-8703452D01*
X21478929Y-8684405D01*
X21478929Y-8512976D01*
X21736071Y-8712976D02*
X21736071Y-8512976D01*
X21802738Y-8655833D01*
X21869405Y-8512976D01*
X21869405Y-8712976D01*
X22050357Y-8712976D02*
X22050357Y-8608214D01*
X22040833Y-8589167D01*
X22021786Y-8579643D01*
X21983690Y-8579643D01*
X21964643Y-8589167D01*
X22050357Y-8703452D02*
X22031310Y-8712976D01*
X21983690Y-8712976D01*
X21964643Y-8703452D01*
X21955119Y-8684405D01*
X21955119Y-8665357D01*
X21964643Y-8646310D01*
X21983690Y-8636786D01*
X22031310Y-8636786D01*
X22050357Y-8627262D01*
X22145595Y-8579643D02*
X22145595Y-8779643D01*
X22145595Y-8589167D02*
X22164643Y-8579643D01*
X22202738Y-8579643D01*
X22221786Y-8589167D01*
X22231310Y-8598690D01*
X22240833Y-8617738D01*
X22240833Y-8674881D01*
X22231310Y-8693929D01*
X22221786Y-8703452D01*
X22202738Y-8712976D01*
X22164643Y-8712976D01*
X22145595Y-8703452D01*
X22326548Y-8693929D02*
X22336071Y-8703452D01*
X22326548Y-8712976D01*
X22317024Y-8703452D01*
X22326548Y-8693929D01*
X22326548Y-8712976D01*
X22326548Y-8589167D02*
X22336071Y-8598690D01*
X22326548Y-8608214D01*
X22317024Y-8598690D01*
X22326548Y-8589167D01*
X22326548Y-8608214D01*
D12*
X20677500Y-9032500D02*
X20697500Y-9052500D01*
X20697500Y-9032500D02*
X20677500Y-9052500D01*
D11*
X20993214Y-8932976D02*
X21012262Y-8932976D01*
X21031310Y-8942500D01*
X21040833Y-8952024D01*
X21050357Y-8971071D01*
X21059881Y-9009167D01*
X21059881Y-9056786D01*
X21050357Y-9094881D01*
X21040833Y-9113929D01*
X21031310Y-9123452D01*
X21012262Y-9132976D01*
X20993214Y-9132976D01*
X20974167Y-9123452D01*
X20964643Y-9113929D01*
X20955119Y-9094881D01*
X20945595Y-9056786D01*
X20945595Y-9009167D01*
X20955119Y-8971071D01*
X20964643Y-8952024D01*
X20974167Y-8942500D01*
X20993214Y-8932976D01*
X21145595Y-9113929D02*
X21155119Y-9123452D01*
X21145595Y-9132976D01*
X21136071Y-9123452D01*
X21145595Y-9113929D01*
X21145595Y-9132976D01*
X21231310Y-8952024D02*
X21240833Y-8942500D01*
X21259881Y-8932976D01*
X21307500Y-8932976D01*
X21326548Y-8942500D01*
X21336071Y-8952024D01*
X21345595Y-8971071D01*
X21345595Y-8990119D01*
X21336071Y-9018690D01*
X21221786Y-9132976D01*
X21345595Y-9132976D01*
X21469405Y-8932976D02*
X21488452Y-8932976D01*
X21507500Y-8942500D01*
X21517024Y-8952024D01*
X21526548Y-8971071D01*
X21536071Y-9009167D01*
X21536071Y-9056786D01*
X21526548Y-9094881D01*
X21517024Y-9113929D01*
X21507500Y-9123452D01*
X21488452Y-9132976D01*
X21469405Y-9132976D01*
X21450357Y-9123452D01*
X21440833Y-9113929D01*
X21431310Y-9094881D01*
X21421786Y-9056786D01*
X21421786Y-9009167D01*
X21431310Y-8971071D01*
X21440833Y-8952024D01*
X21450357Y-8942500D01*
X21469405Y-8932976D01*
X21659881Y-8932976D02*
X21678929Y-8932976D01*
X21697976Y-8942500D01*
X21707500Y-8952024D01*
X21717024Y-8971071D01*
X21726548Y-9009167D01*
X21726548Y-9056786D01*
X21717024Y-9094881D01*
X21707500Y-9113929D01*
X21697976Y-9123452D01*
X21678929Y-9132976D01*
X21659881Y-9132976D01*
X21640833Y-9123452D01*
X21631310Y-9113929D01*
X21621786Y-9094881D01*
X21612262Y-9056786D01*
X21612262Y-9009167D01*
X21621786Y-8971071D01*
X21631310Y-8952024D01*
X21640833Y-8942500D01*
X21659881Y-8932976D01*
X21812262Y-9132976D02*
X21812262Y-8999643D01*
X21812262Y-9018690D02*
X21821786Y-9009167D01*
X21840833Y-8999643D01*
X21869405Y-8999643D01*
X21888452Y-9009167D01*
X21897976Y-9028214D01*
X21897976Y-9132976D01*
X21897976Y-9028214D02*
X21907500Y-9009167D01*
X21926548Y-8999643D01*
X21955119Y-8999643D01*
X21974167Y-9009167D01*
X21983690Y-9028214D01*
X21983690Y-9132976D01*
X22078929Y-9132976D02*
X22078929Y-8999643D01*
X22078929Y-9018690D02*
X22088452Y-9009167D01*
X22107500Y-8999643D01*
X22136071Y-8999643D01*
X22155119Y-9009167D01*
X22164643Y-9028214D01*
X22164643Y-9132976D01*
X22164643Y-9028214D02*
X22174167Y-9009167D01*
X22193214Y-8999643D01*
X22221786Y-8999643D01*
X22240833Y-9009167D01*
X22250357Y-9028214D01*
X22250357Y-9132976D01*
X22640833Y-8923452D02*
X22469405Y-9180595D01*
X22897976Y-8932976D02*
X22917024Y-8932976D01*
X22936071Y-8942500D01*
X22945595Y-8952024D01*
X22955119Y-8971071D01*
X22964643Y-9009167D01*
X22964643Y-9056786D01*
X22955119Y-9094881D01*
X22945595Y-9113929D01*
X22936071Y-9123452D01*
X22917024Y-9132976D01*
X22897976Y-9132976D01*
X22878928Y-9123452D01*
X22869405Y-9113929D01*
X22859881Y-9094881D01*
X22850357Y-9056786D01*
X22850357Y-9009167D01*
X22859881Y-8971071D01*
X22869405Y-8952024D01*
X22878928Y-8942500D01*
X22897976Y-8932976D01*
X23050357Y-9113929D02*
X23059881Y-9123452D01*
X23050357Y-9132976D01*
X23040833Y-9123452D01*
X23050357Y-9113929D01*
X23050357Y-9132976D01*
X23183690Y-8932976D02*
X23202738Y-8932976D01*
X23221786Y-8942500D01*
X23231309Y-8952024D01*
X23240833Y-8971071D01*
X23250357Y-9009167D01*
X23250357Y-9056786D01*
X23240833Y-9094881D01*
X23231309Y-9113929D01*
X23221786Y-9123452D01*
X23202738Y-9132976D01*
X23183690Y-9132976D01*
X23164643Y-9123452D01*
X23155119Y-9113929D01*
X23145595Y-9094881D01*
X23136071Y-9056786D01*
X23136071Y-9009167D01*
X23145595Y-8971071D01*
X23155119Y-8952024D01*
X23164643Y-8942500D01*
X23183690Y-8932976D01*
X23374167Y-8932976D02*
X23393214Y-8932976D01*
X23412262Y-8942500D01*
X23421786Y-8952024D01*
X23431309Y-8971071D01*
X23440833Y-9009167D01*
X23440833Y-9056786D01*
X23431309Y-9094881D01*
X23421786Y-9113929D01*
X23412262Y-9123452D01*
X23393214Y-9132976D01*
X23374167Y-9132976D01*
X23355119Y-9123452D01*
X23345595Y-9113929D01*
X23336071Y-9094881D01*
X23326548Y-9056786D01*
X23326548Y-9009167D01*
X23336071Y-8971071D01*
X23345595Y-8952024D01*
X23355119Y-8942500D01*
X23374167Y-8932976D01*
X23507500Y-8932976D02*
X23640833Y-8932976D01*
X23555119Y-9132976D01*
X23726548Y-9132976D02*
X23764643Y-9132976D01*
X23783690Y-9123452D01*
X23793214Y-9113929D01*
X23812262Y-9085357D01*
X23821786Y-9047262D01*
X23821786Y-8971071D01*
X23812262Y-8952024D01*
X23802738Y-8942500D01*
X23783690Y-8932976D01*
X23745595Y-8932976D01*
X23726548Y-8942500D01*
X23717024Y-8952024D01*
X23707500Y-8971071D01*
X23707500Y-9018690D01*
X23717024Y-9037738D01*
X23726548Y-9047262D01*
X23745595Y-9056786D01*
X23783690Y-9056786D01*
X23802738Y-9047262D01*
X23812262Y-9037738D01*
X23821786Y-9018690D01*
X23897976Y-8932976D02*
X23897976Y-8971071D01*
X23974167Y-8932976D02*
X23974167Y-8971071D01*
X24269405Y-9209167D02*
X24259881Y-9199643D01*
X24240833Y-9171071D01*
X24231309Y-9152024D01*
X24221786Y-9123452D01*
X24212262Y-9075833D01*
X24212262Y-9037738D01*
X24221786Y-8990119D01*
X24231309Y-8961548D01*
X24240833Y-8942500D01*
X24259881Y-8913929D01*
X24269405Y-8904405D01*
X24326548Y-8932976D02*
X24459881Y-8932976D01*
X24374167Y-9132976D01*
X24517024Y-8932976D02*
X24650357Y-8932976D01*
X24564643Y-9132976D01*
X24878928Y-9132976D02*
X24878928Y-8932976D01*
X24964643Y-9132976D02*
X24964643Y-9028214D01*
X24955119Y-9009167D01*
X24936071Y-8999643D01*
X24907500Y-8999643D01*
X24888452Y-9009167D01*
X24878928Y-9018690D01*
X25088452Y-9132976D02*
X25069405Y-9123452D01*
X25059881Y-9113929D01*
X25050357Y-9094881D01*
X25050357Y-9037738D01*
X25059881Y-9018690D01*
X25069405Y-9009167D01*
X25088452Y-8999643D01*
X25117024Y-8999643D01*
X25136071Y-9009167D01*
X25145595Y-9018690D01*
X25155119Y-9037738D01*
X25155119Y-9094881D01*
X25145595Y-9113929D01*
X25136071Y-9123452D01*
X25117024Y-9132976D01*
X25088452Y-9132976D01*
X25269405Y-9132976D02*
X25250357Y-9123452D01*
X25240833Y-9104405D01*
X25240833Y-8932976D01*
X25421786Y-9123452D02*
X25402738Y-9132976D01*
X25364643Y-9132976D01*
X25345595Y-9123452D01*
X25336071Y-9104405D01*
X25336071Y-9028214D01*
X25345595Y-9009167D01*
X25364643Y-8999643D01*
X25402738Y-8999643D01*
X25421786Y-9009167D01*
X25431309Y-9028214D01*
X25431309Y-9047262D01*
X25336071Y-9066310D01*
X25507500Y-9123452D02*
X25526548Y-9132976D01*
X25564643Y-9132976D01*
X25583690Y-9123452D01*
X25593214Y-9104405D01*
X25593214Y-9094881D01*
X25583690Y-9075833D01*
X25564643Y-9066310D01*
X25536071Y-9066310D01*
X25517024Y-9056786D01*
X25507500Y-9037738D01*
X25507500Y-9028214D01*
X25517024Y-9009167D01*
X25536071Y-8999643D01*
X25564643Y-8999643D01*
X25583690Y-9009167D01*
X25659881Y-9209167D02*
X25669405Y-9199643D01*
X25688452Y-9171071D01*
X25697976Y-9152024D01*
X25707500Y-9123452D01*
X25717024Y-9075833D01*
X25717024Y-9037738D01*
X25707500Y-8990119D01*
X25697976Y-8961548D01*
X25688452Y-8942500D01*
X25669405Y-8913929D01*
X25659881Y-8904405D01*
D13*
X20697500Y-9306500D02*
G75*
G03*
X20697500Y-9306500I-20000J0D01*
G01*
D11*
X20993214Y-9196976D02*
X21012262Y-9196976D01*
X21031310Y-9206500D01*
X21040833Y-9216024D01*
X21050357Y-9235071D01*
X21059881Y-9273167D01*
X21059881Y-9320786D01*
X21050357Y-9358881D01*
X21040833Y-9377929D01*
X21031310Y-9387452D01*
X21012262Y-9396976D01*
X20993214Y-9396976D01*
X20974167Y-9387452D01*
X20964643Y-9377929D01*
X20955119Y-9358881D01*
X20945595Y-9320786D01*
X20945595Y-9273167D01*
X20955119Y-9235071D01*
X20964643Y-9216024D01*
X20974167Y-9206500D01*
X20993214Y-9196976D01*
X21145595Y-9377929D02*
X21155119Y-9387452D01*
X21145595Y-9396976D01*
X21136071Y-9387452D01*
X21145595Y-9377929D01*
X21145595Y-9396976D01*
X21326548Y-9263643D02*
X21326548Y-9396976D01*
X21278929Y-9187452D02*
X21231310Y-9330310D01*
X21355119Y-9330310D01*
X21469405Y-9196976D02*
X21488452Y-9196976D01*
X21507500Y-9206500D01*
X21517024Y-9216024D01*
X21526548Y-9235071D01*
X21536071Y-9273167D01*
X21536071Y-9320786D01*
X21526548Y-9358881D01*
X21517024Y-9377929D01*
X21507500Y-9387452D01*
X21488452Y-9396976D01*
X21469405Y-9396976D01*
X21450357Y-9387452D01*
X21440833Y-9377929D01*
X21431310Y-9358881D01*
X21421786Y-9320786D01*
X21421786Y-9273167D01*
X21431310Y-9235071D01*
X21440833Y-9216024D01*
X21450357Y-9206500D01*
X21469405Y-9196976D01*
X21659881Y-9196976D02*
X21678929Y-9196976D01*
X21697976Y-9206500D01*
X21707500Y-9216024D01*
X21717024Y-9235071D01*
X21726548Y-9273167D01*
X21726548Y-9320786D01*
X21717024Y-9358881D01*
X21707500Y-9377929D01*
X21697976Y-9387452D01*
X21678929Y-9396976D01*
X21659881Y-9396976D01*
X21640833Y-9387452D01*
X21631310Y-9377929D01*
X21621786Y-9358881D01*
X21612262Y-9320786D01*
X21612262Y-9273167D01*
X21621786Y-9235071D01*
X21631310Y-9216024D01*
X21640833Y-9206500D01*
X21659881Y-9196976D01*
X21812262Y-9396976D02*
X21812262Y-9263643D01*
X21812262Y-9282690D02*
X21821786Y-9273167D01*
X21840833Y-9263643D01*
X21869405Y-9263643D01*
X21888452Y-9273167D01*
X21897976Y-9292214D01*
X21897976Y-9396976D01*
X21897976Y-9292214D02*
X21907500Y-9273167D01*
X21926548Y-9263643D01*
X21955119Y-9263643D01*
X21974167Y-9273167D01*
X21983690Y-9292214D01*
X21983690Y-9396976D01*
X22078929Y-9396976D02*
X22078929Y-9263643D01*
X22078929Y-9282690D02*
X22088452Y-9273167D01*
X22107500Y-9263643D01*
X22136071Y-9263643D01*
X22155119Y-9273167D01*
X22164643Y-9292214D01*
X22164643Y-9396976D01*
X22164643Y-9292214D02*
X22174167Y-9273167D01*
X22193214Y-9263643D01*
X22221786Y-9263643D01*
X22240833Y-9273167D01*
X22250357Y-9292214D01*
X22250357Y-9396976D01*
X22640833Y-9187452D02*
X22469405Y-9444595D01*
X22897976Y-9196976D02*
X22917024Y-9196976D01*
X22936071Y-9206500D01*
X22945595Y-9216024D01*
X22955119Y-9235071D01*
X22964643Y-9273167D01*
X22964643Y-9320786D01*
X22955119Y-9358881D01*
X22945595Y-9377929D01*
X22936071Y-9387452D01*
X22917024Y-9396976D01*
X22897976Y-9396976D01*
X22878928Y-9387452D01*
X22869405Y-9377929D01*
X22859881Y-9358881D01*
X22850357Y-9320786D01*
X22850357Y-9273167D01*
X22859881Y-9235071D01*
X22869405Y-9216024D01*
X22878928Y-9206500D01*
X22897976Y-9196976D01*
X23050357Y-9377929D02*
X23059881Y-9387452D01*
X23050357Y-9396976D01*
X23040833Y-9387452D01*
X23050357Y-9377929D01*
X23050357Y-9396976D01*
X23183690Y-9196976D02*
X23202738Y-9196976D01*
X23221786Y-9206500D01*
X23231309Y-9216024D01*
X23240833Y-9235071D01*
X23250357Y-9273167D01*
X23250357Y-9320786D01*
X23240833Y-9358881D01*
X23231309Y-9377929D01*
X23221786Y-9387452D01*
X23202738Y-9396976D01*
X23183690Y-9396976D01*
X23164643Y-9387452D01*
X23155119Y-9377929D01*
X23145595Y-9358881D01*
X23136071Y-9320786D01*
X23136071Y-9273167D01*
X23145595Y-9235071D01*
X23155119Y-9216024D01*
X23164643Y-9206500D01*
X23183690Y-9196976D01*
X23440833Y-9396976D02*
X23326548Y-9396976D01*
X23383690Y-9396976D02*
X23383690Y-9196976D01*
X23364643Y-9225548D01*
X23345595Y-9244595D01*
X23326548Y-9254119D01*
X23621786Y-9196976D02*
X23526548Y-9196976D01*
X23517024Y-9292214D01*
X23526548Y-9282690D01*
X23545595Y-9273167D01*
X23593214Y-9273167D01*
X23612262Y-9282690D01*
X23621786Y-9292214D01*
X23631309Y-9311262D01*
X23631309Y-9358881D01*
X23621786Y-9377929D01*
X23612262Y-9387452D01*
X23593214Y-9396976D01*
X23545595Y-9396976D01*
X23526548Y-9387452D01*
X23517024Y-9377929D01*
X23697976Y-9196976D02*
X23831309Y-9196976D01*
X23745595Y-9396976D01*
X23897976Y-9196976D02*
X23897976Y-9235071D01*
X23974167Y-9196976D02*
X23974167Y-9235071D01*
X24269405Y-9473167D02*
X24259881Y-9463643D01*
X24240833Y-9435071D01*
X24231309Y-9416024D01*
X24221786Y-9387452D01*
X24212262Y-9339833D01*
X24212262Y-9301738D01*
X24221786Y-9254119D01*
X24231309Y-9225548D01*
X24240833Y-9206500D01*
X24259881Y-9177929D01*
X24269405Y-9168405D01*
X24336071Y-9216024D02*
X24345595Y-9206500D01*
X24364643Y-9196976D01*
X24412262Y-9196976D01*
X24431309Y-9206500D01*
X24440833Y-9216024D01*
X24450357Y-9235071D01*
X24450357Y-9254119D01*
X24440833Y-9282690D01*
X24326548Y-9396976D01*
X24450357Y-9396976D01*
X24564643Y-9282690D02*
X24545595Y-9273167D01*
X24536071Y-9263643D01*
X24526548Y-9244595D01*
X24526548Y-9235071D01*
X24536071Y-9216024D01*
X24545595Y-9206500D01*
X24564643Y-9196976D01*
X24602738Y-9196976D01*
X24621786Y-9206500D01*
X24631309Y-9216024D01*
X24640833Y-9235071D01*
X24640833Y-9244595D01*
X24631309Y-9263643D01*
X24621786Y-9273167D01*
X24602738Y-9282690D01*
X24564643Y-9282690D01*
X24545595Y-9292214D01*
X24536071Y-9301738D01*
X24526548Y-9320786D01*
X24526548Y-9358881D01*
X24536071Y-9377929D01*
X24545595Y-9387452D01*
X24564643Y-9396976D01*
X24602738Y-9396976D01*
X24621786Y-9387452D01*
X24631309Y-9377929D01*
X24640833Y-9358881D01*
X24640833Y-9320786D01*
X24631309Y-9301738D01*
X24621786Y-9292214D01*
X24602738Y-9282690D01*
X24878928Y-9396976D02*
X24878928Y-9196976D01*
X24964643Y-9396976D02*
X24964643Y-9292214D01*
X24955119Y-9273167D01*
X24936071Y-9263643D01*
X24907500Y-9263643D01*
X24888452Y-9273167D01*
X24878928Y-9282690D01*
X25088452Y-9396976D02*
X25069405Y-9387452D01*
X25059881Y-9377929D01*
X25050357Y-9358881D01*
X25050357Y-9301738D01*
X25059881Y-9282690D01*
X25069405Y-9273167D01*
X25088452Y-9263643D01*
X25117024Y-9263643D01*
X25136071Y-9273167D01*
X25145595Y-9282690D01*
X25155119Y-9301738D01*
X25155119Y-9358881D01*
X25145595Y-9377929D01*
X25136071Y-9387452D01*
X25117024Y-9396976D01*
X25088452Y-9396976D01*
X25269405Y-9396976D02*
X25250357Y-9387452D01*
X25240833Y-9368405D01*
X25240833Y-9196976D01*
X25421786Y-9387452D02*
X25402738Y-9396976D01*
X25364643Y-9396976D01*
X25345595Y-9387452D01*
X25336071Y-9368405D01*
X25336071Y-9292214D01*
X25345595Y-9273167D01*
X25364643Y-9263643D01*
X25402738Y-9263643D01*
X25421786Y-9273167D01*
X25431309Y-9292214D01*
X25431309Y-9311262D01*
X25336071Y-9330310D01*
X25507500Y-9387452D02*
X25526548Y-9396976D01*
X25564643Y-9396976D01*
X25583690Y-9387452D01*
X25593214Y-9368405D01*
X25593214Y-9358881D01*
X25583690Y-9339833D01*
X25564643Y-9330310D01*
X25536071Y-9330310D01*
X25517024Y-9320786D01*
X25507500Y-9301738D01*
X25507500Y-9292214D01*
X25517024Y-9273167D01*
X25536071Y-9263643D01*
X25564643Y-9263643D01*
X25583690Y-9273167D01*
X25659881Y-9473167D02*
X25669405Y-9463643D01*
X25688452Y-9435071D01*
X25697976Y-9416024D01*
X25707500Y-9387452D01*
X25717024Y-9339833D01*
X25717024Y-9301738D01*
X25707500Y-9254119D01*
X25697976Y-9225548D01*
X25688452Y-9206500D01*
X25669405Y-9177929D01*
X25659881Y-9168405D01*
D14*
X20662500Y-9535500D02*
X20662500Y-9605500D01*
X20627500Y-9570500D02*
X20697500Y-9570500D01*
D11*
X20993214Y-9460976D02*
X21012262Y-9460976D01*
X21031310Y-9470500D01*
X21040833Y-9480024D01*
X21050357Y-9499071D01*
X21059881Y-9537167D01*
X21059881Y-9584786D01*
X21050357Y-9622881D01*
X21040833Y-9641929D01*
X21031310Y-9651452D01*
X21012262Y-9660976D01*
X20993214Y-9660976D01*
X20974167Y-9651452D01*
X20964643Y-9641929D01*
X20955119Y-9622881D01*
X20945595Y-9584786D01*
X20945595Y-9537167D01*
X20955119Y-9499071D01*
X20964643Y-9480024D01*
X20974167Y-9470500D01*
X20993214Y-9460976D01*
X21145595Y-9641929D02*
X21155119Y-9651452D01*
X21145595Y-9660976D01*
X21136071Y-9651452D01*
X21145595Y-9641929D01*
X21145595Y-9660976D01*
X21221786Y-9460976D02*
X21355119Y-9460976D01*
X21269405Y-9660976D01*
X21469405Y-9460976D02*
X21488452Y-9460976D01*
X21507500Y-9470500D01*
X21517024Y-9480024D01*
X21526548Y-9499071D01*
X21536071Y-9537167D01*
X21536071Y-9584786D01*
X21526548Y-9622881D01*
X21517024Y-9641929D01*
X21507500Y-9651452D01*
X21488452Y-9660976D01*
X21469405Y-9660976D01*
X21450357Y-9651452D01*
X21440833Y-9641929D01*
X21431310Y-9622881D01*
X21421786Y-9584786D01*
X21421786Y-9537167D01*
X21431310Y-9499071D01*
X21440833Y-9480024D01*
X21450357Y-9470500D01*
X21469405Y-9460976D01*
X21659881Y-9460976D02*
X21678929Y-9460976D01*
X21697976Y-9470500D01*
X21707500Y-9480024D01*
X21717024Y-9499071D01*
X21726548Y-9537167D01*
X21726548Y-9584786D01*
X21717024Y-9622881D01*
X21707500Y-9641929D01*
X21697976Y-9651452D01*
X21678929Y-9660976D01*
X21659881Y-9660976D01*
X21640833Y-9651452D01*
X21631310Y-9641929D01*
X21621786Y-9622881D01*
X21612262Y-9584786D01*
X21612262Y-9537167D01*
X21621786Y-9499071D01*
X21631310Y-9480024D01*
X21640833Y-9470500D01*
X21659881Y-9460976D01*
X21812262Y-9660976D02*
X21812262Y-9527643D01*
X21812262Y-9546690D02*
X21821786Y-9537167D01*
X21840833Y-9527643D01*
X21869405Y-9527643D01*
X21888452Y-9537167D01*
X21897976Y-9556214D01*
X21897976Y-9660976D01*
X21897976Y-9556214D02*
X21907500Y-9537167D01*
X21926548Y-9527643D01*
X21955119Y-9527643D01*
X21974167Y-9537167D01*
X21983690Y-9556214D01*
X21983690Y-9660976D01*
X22078929Y-9660976D02*
X22078929Y-9527643D01*
X22078929Y-9546690D02*
X22088452Y-9537167D01*
X22107500Y-9527643D01*
X22136071Y-9527643D01*
X22155119Y-9537167D01*
X22164643Y-9556214D01*
X22164643Y-9660976D01*
X22164643Y-9556214D02*
X22174167Y-9537167D01*
X22193214Y-9527643D01*
X22221786Y-9527643D01*
X22240833Y-9537167D01*
X22250357Y-9556214D01*
X22250357Y-9660976D01*
X22640833Y-9451452D02*
X22469405Y-9708595D01*
X22897976Y-9460976D02*
X22917024Y-9460976D01*
X22936071Y-9470500D01*
X22945595Y-9480024D01*
X22955119Y-9499071D01*
X22964643Y-9537167D01*
X22964643Y-9584786D01*
X22955119Y-9622881D01*
X22945595Y-9641929D01*
X22936071Y-9651452D01*
X22917024Y-9660976D01*
X22897976Y-9660976D01*
X22878928Y-9651452D01*
X22869405Y-9641929D01*
X22859881Y-9622881D01*
X22850357Y-9584786D01*
X22850357Y-9537167D01*
X22859881Y-9499071D01*
X22869405Y-9480024D01*
X22878928Y-9470500D01*
X22897976Y-9460976D01*
X23050357Y-9641929D02*
X23059881Y-9651452D01*
X23050357Y-9660976D01*
X23040833Y-9651452D01*
X23050357Y-9641929D01*
X23050357Y-9660976D01*
X23183690Y-9460976D02*
X23202738Y-9460976D01*
X23221786Y-9470500D01*
X23231309Y-9480024D01*
X23240833Y-9499071D01*
X23250357Y-9537167D01*
X23250357Y-9584786D01*
X23240833Y-9622881D01*
X23231309Y-9641929D01*
X23221786Y-9651452D01*
X23202738Y-9660976D01*
X23183690Y-9660976D01*
X23164643Y-9651452D01*
X23155119Y-9641929D01*
X23145595Y-9622881D01*
X23136071Y-9584786D01*
X23136071Y-9537167D01*
X23145595Y-9499071D01*
X23155119Y-9480024D01*
X23164643Y-9470500D01*
X23183690Y-9460976D01*
X23326548Y-9480024D02*
X23336071Y-9470500D01*
X23355119Y-9460976D01*
X23402738Y-9460976D01*
X23421786Y-9470500D01*
X23431309Y-9480024D01*
X23440833Y-9499071D01*
X23440833Y-9518119D01*
X23431309Y-9546690D01*
X23317024Y-9660976D01*
X23440833Y-9660976D01*
X23507500Y-9460976D02*
X23640833Y-9460976D01*
X23555119Y-9660976D01*
X23802738Y-9460976D02*
X23764643Y-9460976D01*
X23745595Y-9470500D01*
X23736071Y-9480024D01*
X23717024Y-9508595D01*
X23707500Y-9546690D01*
X23707500Y-9622881D01*
X23717024Y-9641929D01*
X23726548Y-9651452D01*
X23745595Y-9660976D01*
X23783690Y-9660976D01*
X23802738Y-9651452D01*
X23812262Y-9641929D01*
X23821786Y-9622881D01*
X23821786Y-9575262D01*
X23812262Y-9556214D01*
X23802738Y-9546690D01*
X23783690Y-9537167D01*
X23745595Y-9537167D01*
X23726548Y-9546690D01*
X23717024Y-9556214D01*
X23707500Y-9575262D01*
X23897976Y-9460976D02*
X23897976Y-9499071D01*
X23974167Y-9460976D02*
X23974167Y-9499071D01*
X24269405Y-9737167D02*
X24259881Y-9727643D01*
X24240833Y-9699071D01*
X24231309Y-9680024D01*
X24221786Y-9651452D01*
X24212262Y-9603833D01*
X24212262Y-9565738D01*
X24221786Y-9518119D01*
X24231309Y-9489548D01*
X24240833Y-9470500D01*
X24259881Y-9441929D01*
X24269405Y-9432405D01*
X24336071Y-9480024D02*
X24345595Y-9470500D01*
X24364643Y-9460976D01*
X24412262Y-9460976D01*
X24431309Y-9470500D01*
X24440833Y-9480024D01*
X24450357Y-9499071D01*
X24450357Y-9518119D01*
X24440833Y-9546690D01*
X24326548Y-9660976D01*
X24450357Y-9660976D01*
X24688452Y-9660976D02*
X24688452Y-9460976D01*
X24774167Y-9660976D02*
X24774167Y-9556214D01*
X24764643Y-9537167D01*
X24745595Y-9527643D01*
X24717024Y-9527643D01*
X24697976Y-9537167D01*
X24688452Y-9546690D01*
X24897976Y-9660976D02*
X24878928Y-9651452D01*
X24869405Y-9641929D01*
X24859881Y-9622881D01*
X24859881Y-9565738D01*
X24869405Y-9546690D01*
X24878928Y-9537167D01*
X24897976Y-9527643D01*
X24926548Y-9527643D01*
X24945595Y-9537167D01*
X24955119Y-9546690D01*
X24964643Y-9565738D01*
X24964643Y-9622881D01*
X24955119Y-9641929D01*
X24945595Y-9651452D01*
X24926548Y-9660976D01*
X24897976Y-9660976D01*
X25078928Y-9660976D02*
X25059881Y-9651452D01*
X25050357Y-9632405D01*
X25050357Y-9460976D01*
X25231309Y-9651452D02*
X25212262Y-9660976D01*
X25174167Y-9660976D01*
X25155119Y-9651452D01*
X25145595Y-9632405D01*
X25145595Y-9556214D01*
X25155119Y-9537167D01*
X25174167Y-9527643D01*
X25212262Y-9527643D01*
X25231309Y-9537167D01*
X25240833Y-9556214D01*
X25240833Y-9575262D01*
X25145595Y-9594310D01*
X25317024Y-9651452D02*
X25336071Y-9660976D01*
X25374167Y-9660976D01*
X25393214Y-9651452D01*
X25402738Y-9632405D01*
X25402738Y-9622881D01*
X25393214Y-9603833D01*
X25374167Y-9594310D01*
X25345595Y-9594310D01*
X25326548Y-9584786D01*
X25317024Y-9565738D01*
X25317024Y-9556214D01*
X25326548Y-9537167D01*
X25345595Y-9527643D01*
X25374167Y-9527643D01*
X25393214Y-9537167D01*
X25469405Y-9737167D02*
X25478928Y-9727643D01*
X25497976Y-9699071D01*
X25507500Y-9680024D01*
X25517024Y-9651452D01*
X25526548Y-9603833D01*
X25526548Y-9565738D01*
X25517024Y-9518119D01*
X25507500Y-9489548D01*
X25497976Y-9470500D01*
X25478928Y-9441929D01*
X25469405Y-9432405D01*
D15*
X20684320Y-9866320D02*
X20684320Y-9802680D01*
X20620680Y-9802680D01*
X20620680Y-9866320D01*
X20684320Y-9866320D01*
D11*
X20993214Y-9724976D02*
X21012262Y-9724976D01*
X21031310Y-9734500D01*
X21040833Y-9744024D01*
X21050357Y-9763071D01*
X21059881Y-9801167D01*
X21059881Y-9848786D01*
X21050357Y-9886881D01*
X21040833Y-9905929D01*
X21031310Y-9915452D01*
X21012262Y-9924976D01*
X20993214Y-9924976D01*
X20974167Y-9915452D01*
X20964643Y-9905929D01*
X20955119Y-9886881D01*
X20945595Y-9848786D01*
X20945595Y-9801167D01*
X20955119Y-9763071D01*
X20964643Y-9744024D01*
X20974167Y-9734500D01*
X20993214Y-9724976D01*
X21145595Y-9905929D02*
X21155119Y-9915452D01*
X21145595Y-9924976D01*
X21136071Y-9915452D01*
X21145595Y-9905929D01*
X21145595Y-9924976D01*
X21250357Y-9924976D02*
X21288452Y-9924976D01*
X21307500Y-9915452D01*
X21317024Y-9905929D01*
X21336071Y-9877357D01*
X21345595Y-9839262D01*
X21345595Y-9763071D01*
X21336071Y-9744024D01*
X21326548Y-9734500D01*
X21307500Y-9724976D01*
X21269405Y-9724976D01*
X21250357Y-9734500D01*
X21240833Y-9744024D01*
X21231310Y-9763071D01*
X21231310Y-9810690D01*
X21240833Y-9829738D01*
X21250357Y-9839262D01*
X21269405Y-9848786D01*
X21307500Y-9848786D01*
X21326548Y-9839262D01*
X21336071Y-9829738D01*
X21345595Y-9810690D01*
X21469405Y-9724976D02*
X21488452Y-9724976D01*
X21507500Y-9734500D01*
X21517024Y-9744024D01*
X21526548Y-9763071D01*
X21536071Y-9801167D01*
X21536071Y-9848786D01*
X21526548Y-9886881D01*
X21517024Y-9905929D01*
X21507500Y-9915452D01*
X21488452Y-9924976D01*
X21469405Y-9924976D01*
X21450357Y-9915452D01*
X21440833Y-9905929D01*
X21431310Y-9886881D01*
X21421786Y-9848786D01*
X21421786Y-9801167D01*
X21431310Y-9763071D01*
X21440833Y-9744024D01*
X21450357Y-9734500D01*
X21469405Y-9724976D01*
X21659881Y-9724976D02*
X21678929Y-9724976D01*
X21697976Y-9734500D01*
X21707500Y-9744024D01*
X21717024Y-9763071D01*
X21726548Y-9801167D01*
X21726548Y-9848786D01*
X21717024Y-9886881D01*
X21707500Y-9905929D01*
X21697976Y-9915452D01*
X21678929Y-9924976D01*
X21659881Y-9924976D01*
X21640833Y-9915452D01*
X21631310Y-9905929D01*
X21621786Y-9886881D01*
X21612262Y-9848786D01*
X21612262Y-9801167D01*
X21621786Y-9763071D01*
X21631310Y-9744024D01*
X21640833Y-9734500D01*
X21659881Y-9724976D01*
X21812262Y-9924976D02*
X21812262Y-9791643D01*
X21812262Y-9810690D02*
X21821786Y-9801167D01*
X21840833Y-9791643D01*
X21869405Y-9791643D01*
X21888452Y-9801167D01*
X21897976Y-9820214D01*
X21897976Y-9924976D01*
X21897976Y-9820214D02*
X21907500Y-9801167D01*
X21926548Y-9791643D01*
X21955119Y-9791643D01*
X21974167Y-9801167D01*
X21983690Y-9820214D01*
X21983690Y-9924976D01*
X22078929Y-9924976D02*
X22078929Y-9791643D01*
X22078929Y-9810690D02*
X22088452Y-9801167D01*
X22107500Y-9791643D01*
X22136071Y-9791643D01*
X22155119Y-9801167D01*
X22164643Y-9820214D01*
X22164643Y-9924976D01*
X22164643Y-9820214D02*
X22174167Y-9801167D01*
X22193214Y-9791643D01*
X22221786Y-9791643D01*
X22240833Y-9801167D01*
X22250357Y-9820214D01*
X22250357Y-9924976D01*
X22640833Y-9715452D02*
X22469405Y-9972595D01*
X22897976Y-9724976D02*
X22917024Y-9724976D01*
X22936071Y-9734500D01*
X22945595Y-9744024D01*
X22955119Y-9763071D01*
X22964643Y-9801167D01*
X22964643Y-9848786D01*
X22955119Y-9886881D01*
X22945595Y-9905929D01*
X22936071Y-9915452D01*
X22917024Y-9924976D01*
X22897976Y-9924976D01*
X22878928Y-9915452D01*
X22869405Y-9905929D01*
X22859881Y-9886881D01*
X22850357Y-9848786D01*
X22850357Y-9801167D01*
X22859881Y-9763071D01*
X22869405Y-9744024D01*
X22878928Y-9734500D01*
X22897976Y-9724976D01*
X23050357Y-9905929D02*
X23059881Y-9915452D01*
X23050357Y-9924976D01*
X23040833Y-9915452D01*
X23050357Y-9905929D01*
X23050357Y-9924976D01*
X23183690Y-9724976D02*
X23202738Y-9724976D01*
X23221786Y-9734500D01*
X23231309Y-9744024D01*
X23240833Y-9763071D01*
X23250357Y-9801167D01*
X23250357Y-9848786D01*
X23240833Y-9886881D01*
X23231309Y-9905929D01*
X23221786Y-9915452D01*
X23202738Y-9924976D01*
X23183690Y-9924976D01*
X23164643Y-9915452D01*
X23155119Y-9905929D01*
X23145595Y-9886881D01*
X23136071Y-9848786D01*
X23136071Y-9801167D01*
X23145595Y-9763071D01*
X23155119Y-9744024D01*
X23164643Y-9734500D01*
X23183690Y-9724976D01*
X23317024Y-9724976D02*
X23440833Y-9724976D01*
X23374167Y-9801167D01*
X23402738Y-9801167D01*
X23421786Y-9810690D01*
X23431309Y-9820214D01*
X23440833Y-9839262D01*
X23440833Y-9886881D01*
X23431309Y-9905929D01*
X23421786Y-9915452D01*
X23402738Y-9924976D01*
X23345595Y-9924976D01*
X23326548Y-9915452D01*
X23317024Y-9905929D01*
X23621786Y-9724976D02*
X23526548Y-9724976D01*
X23517024Y-9820214D01*
X23526548Y-9810690D01*
X23545595Y-9801167D01*
X23593214Y-9801167D01*
X23612262Y-9810690D01*
X23621786Y-9820214D01*
X23631309Y-9839262D01*
X23631309Y-9886881D01*
X23621786Y-9905929D01*
X23612262Y-9915452D01*
X23593214Y-9924976D01*
X23545595Y-9924976D01*
X23526548Y-9915452D01*
X23517024Y-9905929D01*
X23802738Y-9791643D02*
X23802738Y-9924976D01*
X23755119Y-9715452D02*
X23707500Y-9858310D01*
X23831309Y-9858310D01*
X23897976Y-9724976D02*
X23897976Y-9763071D01*
X23974167Y-9724976D02*
X23974167Y-9763071D01*
X24269405Y-10001167D02*
X24259881Y-9991643D01*
X24240833Y-9963071D01*
X24231309Y-9944024D01*
X24221786Y-9915452D01*
X24212262Y-9867833D01*
X24212262Y-9829738D01*
X24221786Y-9782119D01*
X24231309Y-9753548D01*
X24240833Y-9734500D01*
X24259881Y-9705929D01*
X24269405Y-9696405D01*
X24450357Y-9924976D02*
X24336071Y-9924976D01*
X24393214Y-9924976D02*
X24393214Y-9724976D01*
X24374167Y-9753548D01*
X24355119Y-9772595D01*
X24336071Y-9782119D01*
X24640833Y-9924976D02*
X24526548Y-9924976D01*
X24583690Y-9924976D02*
X24583690Y-9724976D01*
X24564643Y-9753548D01*
X24545595Y-9772595D01*
X24526548Y-9782119D01*
X24878928Y-9924976D02*
X24878928Y-9724976D01*
X24964643Y-9924976D02*
X24964643Y-9820214D01*
X24955119Y-9801167D01*
X24936071Y-9791643D01*
X24907500Y-9791643D01*
X24888452Y-9801167D01*
X24878928Y-9810690D01*
X25088452Y-9924976D02*
X25069405Y-9915452D01*
X25059881Y-9905929D01*
X25050357Y-9886881D01*
X25050357Y-9829738D01*
X25059881Y-9810690D01*
X25069405Y-9801167D01*
X25088452Y-9791643D01*
X25117024Y-9791643D01*
X25136071Y-9801167D01*
X25145595Y-9810690D01*
X25155119Y-9829738D01*
X25155119Y-9886881D01*
X25145595Y-9905929D01*
X25136071Y-9915452D01*
X25117024Y-9924976D01*
X25088452Y-9924976D01*
X25269405Y-9924976D02*
X25250357Y-9915452D01*
X25240833Y-9896405D01*
X25240833Y-9724976D01*
X25421786Y-9915452D02*
X25402738Y-9924976D01*
X25364643Y-9924976D01*
X25345595Y-9915452D01*
X25336071Y-9896405D01*
X25336071Y-9820214D01*
X25345595Y-9801167D01*
X25364643Y-9791643D01*
X25402738Y-9791643D01*
X25421786Y-9801167D01*
X25431309Y-9820214D01*
X25431309Y-9839262D01*
X25336071Y-9858310D01*
X25507500Y-9915452D02*
X25526548Y-9924976D01*
X25564643Y-9924976D01*
X25583690Y-9915452D01*
X25593214Y-9896405D01*
X25593214Y-9886881D01*
X25583690Y-9867833D01*
X25564643Y-9858310D01*
X25536071Y-9858310D01*
X25517024Y-9848786D01*
X25507500Y-9829738D01*
X25507500Y-9820214D01*
X25517024Y-9801167D01*
X25536071Y-9791643D01*
X25564643Y-9791643D01*
X25583690Y-9801167D01*
X25659881Y-10001167D02*
X25669405Y-9991643D01*
X25688452Y-9963071D01*
X25697976Y-9944024D01*
X25707500Y-9915452D01*
X25717024Y-9867833D01*
X25717024Y-9829738D01*
X25707500Y-9782119D01*
X25697976Y-9753548D01*
X25688452Y-9734500D01*
X25669405Y-9705929D01*
X25659881Y-9696405D01*
M02*
