%TF.GenerationSoftware,KiCad,Pcbnew,(6.0.10)*%
%TF.CreationDate,2024-02-10T14:34:54+01:00*%
%TF.ProjectId,TMC6300_HAL,544d4336-3330-4305-9f48-414c2e6b6963,rev?*%
%TF.SameCoordinates,Original*%
%TF.FileFunction,Copper,L1,Top*%
%TF.FilePolarity,Positive*%
%FSLAX46Y46*%
G04 Gerber Fmt 4.6, Leading zero omitted, Abs format (unit mm)*
G04 Created by KiCad (PCBNEW (6.0.10)) date 2024-02-10 14:34:54*
%MOMM*%
%LPD*%
G01*
G04 APERTURE LIST*
G04 Aperture macros list*
%AMRoundRect*
0 Rectangle with rounded corners*
0 $1 Rounding radius*
0 $2 $3 $4 $5 $6 $7 $8 $9 X,Y pos of 4 corners*
0 Add a 4 corners polygon primitive as box body*
4,1,4,$2,$3,$4,$5,$6,$7,$8,$9,$2,$3,0*
0 Add four circle primitives for the rounded corners*
1,1,$1+$1,$2,$3*
1,1,$1+$1,$4,$5*
1,1,$1+$1,$6,$7*
1,1,$1+$1,$8,$9*
0 Add four rect primitives between the rounded corners*
20,1,$1+$1,$2,$3,$4,$5,0*
20,1,$1+$1,$4,$5,$6,$7,0*
20,1,$1+$1,$6,$7,$8,$9,0*
20,1,$1+$1,$8,$9,$2,$3,0*%
G04 Aperture macros list end*
%TA.AperFunction,SMDPad,CuDef*%
%ADD10RoundRect,0.135000X-0.135000X-0.185000X0.135000X-0.185000X0.135000X0.185000X-0.135000X0.185000X0*%
%TD*%
%TA.AperFunction,SMDPad,CuDef*%
%ADD11R,0.950000X0.950000*%
%TD*%
%TA.AperFunction,SMDPad,CuDef*%
%ADD12RoundRect,0.135000X0.135000X0.185000X-0.135000X0.185000X-0.135000X-0.185000X0.135000X-0.185000X0*%
%TD*%
%TA.AperFunction,SMDPad,CuDef*%
%ADD13RoundRect,0.140000X0.140000X0.170000X-0.140000X0.170000X-0.140000X-0.170000X0.140000X-0.170000X0*%
%TD*%
%TA.AperFunction,SMDPad,CuDef*%
%ADD14R,0.500000X0.400000*%
%TD*%
%TA.AperFunction,SMDPad,CuDef*%
%ADD15R,1.200000X1.200000*%
%TD*%
%TA.AperFunction,SMDPad,CuDef*%
%ADD16R,3.000000X1.000000*%
%TD*%
%TA.AperFunction,SMDPad,CuDef*%
%ADD17R,0.600000X0.250000*%
%TD*%
%TA.AperFunction,SMDPad,CuDef*%
%ADD18RoundRect,0.225000X0.225000X0.250000X-0.225000X0.250000X-0.225000X-0.250000X0.225000X-0.250000X0*%
%TD*%
%TA.AperFunction,SMDPad,CuDef*%
%ADD19RoundRect,0.250000X-0.475000X0.250000X-0.475000X-0.250000X0.475000X-0.250000X0.475000X0.250000X0*%
%TD*%
%TA.AperFunction,SMDPad,CuDef*%
%ADD20RoundRect,0.135000X-0.185000X0.135000X-0.185000X-0.135000X0.185000X-0.135000X0.185000X0.135000X0*%
%TD*%
%TA.AperFunction,SMDPad,CuDef*%
%ADD21R,0.430000X0.320000*%
%TD*%
%TA.AperFunction,SMDPad,CuDef*%
%ADD22R,0.320000X0.430000*%
%TD*%
%TA.AperFunction,SMDPad,CuDef*%
%ADD23R,0.850000X0.250000*%
%TD*%
%TA.AperFunction,SMDPad,CuDef*%
%ADD24R,0.250000X0.850000*%
%TD*%
%TA.AperFunction,SMDPad,CuDef*%
%ADD25R,3.600000X3.600000*%
%TD*%
%TA.AperFunction,SMDPad,CuDef*%
%ADD26RoundRect,0.140000X-0.170000X0.140000X-0.170000X-0.140000X0.170000X-0.140000X0.170000X0.140000X0*%
%TD*%
%TA.AperFunction,ComponentPad*%
%ADD27R,1.350000X1.350000*%
%TD*%
%TA.AperFunction,ComponentPad*%
%ADD28C,1.350000*%
%TD*%
%TA.AperFunction,SMDPad,CuDef*%
%ADD29RoundRect,0.225000X-0.250000X0.225000X-0.250000X-0.225000X0.250000X-0.225000X0.250000X0.225000X0*%
%TD*%
%TA.AperFunction,SMDPad,CuDef*%
%ADD30R,1.150000X1.150000*%
%TD*%
%TA.AperFunction,SMDPad,CuDef*%
%ADD31R,1.385000X0.650000*%
%TD*%
%TA.AperFunction,SMDPad,CuDef*%
%ADD32R,0.200000X0.800000*%
%TD*%
%TA.AperFunction,SMDPad,CuDef*%
%ADD33R,0.800000X0.200000*%
%TD*%
%TA.AperFunction,SMDPad,CuDef*%
%ADD34R,1.800000X1.800000*%
%TD*%
%TA.AperFunction,SMDPad,CuDef*%
%ADD35RoundRect,0.140000X0.170000X-0.140000X0.170000X0.140000X-0.170000X0.140000X-0.170000X-0.140000X0*%
%TD*%
%TA.AperFunction,SMDPad,CuDef*%
%ADD36RoundRect,0.135000X0.185000X-0.135000X0.185000X0.135000X-0.185000X0.135000X-0.185000X-0.135000X0*%
%TD*%
%TA.AperFunction,SMDPad,CuDef*%
%ADD37RoundRect,0.140000X-0.140000X-0.170000X0.140000X-0.170000X0.140000X0.170000X-0.140000X0.170000X0*%
%TD*%
%TA.AperFunction,ComponentPad*%
%ADD38R,1.100000X1.100000*%
%TD*%
%TA.AperFunction,ComponentPad*%
%ADD39C,1.100000*%
%TD*%
%TA.AperFunction,SMDPad,CuDef*%
%ADD40C,1.000000*%
%TD*%
%TA.AperFunction,SMDPad,CuDef*%
%ADD41R,0.600000X1.200000*%
%TD*%
%TA.AperFunction,SMDPad,CuDef*%
%ADD42RoundRect,0.225000X-0.225000X-0.250000X0.225000X-0.250000X0.225000X0.250000X-0.225000X0.250000X0*%
%TD*%
%TA.AperFunction,ViaPad*%
%ADD43C,0.450000*%
%TD*%
%TA.AperFunction,ViaPad*%
%ADD44C,0.800000*%
%TD*%
%TA.AperFunction,Conductor*%
%ADD45C,0.250000*%
%TD*%
%TA.AperFunction,Conductor*%
%ADD46C,0.200000*%
%TD*%
%TA.AperFunction,Conductor*%
%ADD47C,0.600000*%
%TD*%
%TA.AperFunction,Conductor*%
%ADD48C,0.500000*%
%TD*%
%TA.AperFunction,Conductor*%
%ADD49C,1.000000*%
%TD*%
%TA.AperFunction,Conductor*%
%ADD50C,0.400000*%
%TD*%
%TA.AperFunction,Conductor*%
%ADD51C,1.200000*%
%TD*%
G04 APERTURE END LIST*
D10*
%TO.P,R109,1*%
%TO.N,Net-(LED103-Pad2)*%
X220490000Y-61000000D03*
%TO.P,R109,2*%
%TO.N,Net-(IC101-Pad28)*%
X221510000Y-61000000D03*
%TD*%
%TO.P,R108,1*%
%TO.N,Net-(LED102-Pad2)*%
X218490000Y-61000000D03*
%TO.P,R108,2*%
%TO.N,Net-(IC101-Pad29)*%
X219510000Y-61000000D03*
%TD*%
D11*
%TO.P,LED103,1*%
%TO.N,VSS*%
X221000000Y-58050000D03*
%TO.P,LED103,2*%
%TO.N,Net-(LED103-Pad2)*%
X221000000Y-59550000D03*
%TD*%
%TO.P,LED102,1*%
%TO.N,VSS*%
X219000000Y-58050000D03*
%TO.P,LED102,2*%
%TO.N,Net-(LED102-Pad2)*%
X219000000Y-59550000D03*
%TD*%
D10*
%TO.P,R107,2*%
%TO.N,VS_ADC*%
X220410000Y-80500000D03*
%TO.P,R107,1*%
%TO.N,VSS*%
X219390000Y-80500000D03*
%TD*%
D12*
%TO.P,R106,2*%
%TO.N,VS*%
X219390000Y-81500000D03*
%TO.P,R106,1*%
%TO.N,VS_ADC*%
X220410000Y-81500000D03*
%TD*%
D13*
%TO.P,C108,2*%
%TO.N,VSS*%
X219420000Y-79500000D03*
%TO.P,C108,1*%
%TO.N,VS_ADC*%
X220380000Y-79500000D03*
%TD*%
D10*
%TO.P,R105,1*%
%TO.N,Net-(LED101-Pad2)*%
X216490000Y-61000000D03*
%TO.P,R105,2*%
%TO.N,Net-(IC101-Pad30)*%
X217510000Y-61000000D03*
%TD*%
D11*
%TO.P,LED101,1*%
%TO.N,VSS*%
X217000000Y-58050000D03*
%TO.P,LED101,2*%
%TO.N,Net-(LED101-Pad2)*%
X217000000Y-59550000D03*
%TD*%
D14*
%TO.P,FB101,1,1*%
%TO.N,VDDA*%
X219300000Y-72100000D03*
%TO.P,FB101,2,2*%
%TO.N,VDD*%
X219300000Y-72900000D03*
%TD*%
D13*
%TO.P,C107,1*%
%TO.N,GND*%
X221480000Y-72300000D03*
%TO.P,C107,2*%
%TO.N,VDDA*%
X220520000Y-72300000D03*
%TD*%
%TO.P,C106,1*%
%TO.N,GND*%
X221480000Y-73300000D03*
%TO.P,C106,2*%
%TO.N,VDDA*%
X220520000Y-73300000D03*
%TD*%
D15*
%TO.P,D301,1*%
%TO.N,VS*%
X213900000Y-75500000D03*
%TO.P,D301,2*%
%TO.N,VSS*%
X216700000Y-75500000D03*
%TD*%
D12*
%TO.P,R311,1*%
%TO.N,Net-(LED301-Pad2)*%
X218010000Y-74000000D03*
%TO.P,R311,2*%
%TO.N,VDD*%
X216990000Y-74000000D03*
%TD*%
%TO.P,R310,1*%
%TO.N,Net-(R306-Pad2)*%
X218010000Y-68500000D03*
%TO.P,R310,2*%
%TO.N,VDD*%
X216990000Y-68500000D03*
%TD*%
D10*
%TO.P,R309,1*%
%TO.N,VSS*%
X216990000Y-69500000D03*
%TO.P,R309,2*%
%TO.N,Net-(R306-Pad2)*%
X218010000Y-69500000D03*
%TD*%
D12*
%TO.P,R308,2*%
%TO.N,/5V0*%
X216990000Y-78500000D03*
%TO.P,R308,1*%
%TO.N,Net-(R305-Pad2)*%
X218010000Y-78500000D03*
%TD*%
D10*
%TO.P,R307,2*%
%TO.N,Net-(R305-Pad2)*%
X218010000Y-79500000D03*
%TO.P,R307,1*%
%TO.N,VSS*%
X216990000Y-79500000D03*
%TD*%
%TO.P,R306,2*%
%TO.N,Net-(R306-Pad2)*%
X218010000Y-70500000D03*
%TO.P,R306,1*%
%TO.N,Net-(IC302-Pad6)*%
X216990000Y-70500000D03*
%TD*%
%TO.P,R305,2*%
%TO.N,Net-(R305-Pad2)*%
X218010000Y-80500000D03*
%TO.P,R305,1*%
%TO.N,Net-(IC301-Pad6)*%
X216990000Y-80500000D03*
%TD*%
D12*
%TO.P,R304,1*%
%TO.N,VS*%
X218010000Y-71500000D03*
%TO.P,R304,2*%
%TO.N,Net-(IC302-Pad5)*%
X216990000Y-71500000D03*
%TD*%
%TO.P,R303,2*%
%TO.N,Net-(IC301-Pad5)*%
X216990000Y-81500000D03*
%TO.P,R303,1*%
%TO.N,VS*%
X218010000Y-81500000D03*
%TD*%
D10*
%TO.P,R302,1*%
%TO.N,Net-(IC302-Pad4)*%
X216990000Y-72500000D03*
%TO.P,R302,2*%
%TO.N,Net-(C306-Pad1)*%
X218010000Y-72500000D03*
%TD*%
%TO.P,R301,2*%
%TO.N,Net-(C305-Pad1)*%
X218010000Y-82500000D03*
%TO.P,R301,1*%
%TO.N,Net-(IC301-Pad4)*%
X216990000Y-82500000D03*
%TD*%
D11*
%TO.P,LED301,1*%
%TO.N,VSS*%
X219500000Y-76150000D03*
%TO.P,LED301,2*%
%TO.N,Net-(LED301-Pad2)*%
X219500000Y-74650000D03*
%TD*%
D16*
%TO.P,L302,1*%
%TO.N,VDD*%
X212000000Y-69500000D03*
%TO.P,L302,2*%
%TO.N,Net-(C306-Pad2)*%
X212000000Y-71500000D03*
%TD*%
%TO.P,L301,2*%
%TO.N,Net-(C305-Pad2)*%
X212000000Y-81500000D03*
%TO.P,L301,1*%
%TO.N,/5V0*%
X212000000Y-79500000D03*
%TD*%
D17*
%TO.P,IC302,1,VIN*%
%TO.N,VS*%
X214300000Y-71000000D03*
%TO.P,IC302,2,SW*%
%TO.N,Net-(C306-Pad2)*%
X214300000Y-71500000D03*
%TO.P,IC302,3,GND*%
%TO.N,VSS*%
X214300000Y-72000000D03*
%TO.P,IC302,4,BST*%
%TO.N,Net-(IC302-Pad4)*%
X215700000Y-72000000D03*
%TO.P,IC302,5,EN*%
%TO.N,Net-(IC302-Pad5)*%
X215700000Y-71500000D03*
%TO.P,IC302,6,FB*%
%TO.N,Net-(IC302-Pad6)*%
X215700000Y-71000000D03*
%TD*%
%TO.P,IC301,6,FB*%
%TO.N,Net-(IC301-Pad6)*%
X215700000Y-81000000D03*
%TO.P,IC301,5,EN*%
%TO.N,Net-(IC301-Pad5)*%
X215700000Y-81500000D03*
%TO.P,IC301,4,BST*%
%TO.N,Net-(IC301-Pad4)*%
X215700000Y-82000000D03*
%TO.P,IC301,3,GND*%
%TO.N,VSS*%
X214300000Y-82000000D03*
%TO.P,IC301,2,SW*%
%TO.N,Net-(C305-Pad2)*%
X214300000Y-81500000D03*
%TO.P,IC301,1,VIN*%
%TO.N,VS*%
X214300000Y-81000000D03*
%TD*%
D18*
%TO.P,C306,2*%
%TO.N,Net-(C306-Pad2)*%
X214225000Y-73000000D03*
%TO.P,C306,1*%
%TO.N,Net-(C306-Pad1)*%
X215775000Y-73000000D03*
%TD*%
%TO.P,C305,1*%
%TO.N,Net-(C305-Pad1)*%
X215775000Y-83000000D03*
%TO.P,C305,2*%
%TO.N,Net-(C305-Pad2)*%
X214225000Y-83000000D03*
%TD*%
D19*
%TO.P,C304,1*%
%TO.N,VS*%
X215500000Y-67550000D03*
%TO.P,C304,2*%
%TO.N,VSS*%
X215500000Y-69450000D03*
%TD*%
%TO.P,C303,2*%
%TO.N,VSS*%
X215500000Y-79450000D03*
%TO.P,C303,1*%
%TO.N,VS*%
X215500000Y-77550000D03*
%TD*%
%TO.P,C302,1*%
%TO.N,VDD*%
X209300000Y-69550000D03*
%TO.P,C302,2*%
%TO.N,VSS*%
X209300000Y-71450000D03*
%TD*%
%TO.P,C301,2*%
%TO.N,VSS*%
X209300000Y-81450000D03*
%TO.P,C301,1*%
%TO.N,/5V0*%
X209300000Y-79550000D03*
%TD*%
%TO.P,C204,1*%
%TO.N,VS*%
X236700000Y-79750000D03*
%TO.P,C204,2*%
%TO.N,VSS*%
X236700000Y-81650000D03*
%TD*%
D20*
%TO.P,R101,1*%
%TO.N,VSS*%
X221800000Y-64040000D03*
%TO.P,R101,2*%
%TO.N,/BOOT0*%
X221800000Y-65060000D03*
%TD*%
D21*
%TO.P,D102,1*%
%TO.N,/BLDC_V*%
X234950000Y-74500000D03*
%TO.P,D102,2*%
%TO.N,VSS*%
X236050000Y-74500000D03*
%TD*%
D22*
%TO.P,D401,1*%
%TO.N,/RAW_HALL_A*%
X236000000Y-67050000D03*
%TO.P,D401,2*%
%TO.N,VSS*%
X236000000Y-65950000D03*
%TD*%
D10*
%TO.P,R205,1*%
%TO.N,VSS*%
X229890000Y-69900000D03*
%TO.P,R205,2*%
%TO.N,/BLDC_UH*%
X230910000Y-69900000D03*
%TD*%
D23*
%TO.P,IC101,1,VDD_1*%
%TO.N,VDD*%
X220950000Y-67000000D03*
%TO.P,IC101,2,PC14-OSC32_IN*%
%TO.N,unconnected-(IC101-Pad2)*%
X220950000Y-67500000D03*
%TO.P,IC101,3,PC15-OSC32_OUT*%
%TO.N,unconnected-(IC101-Pad3)*%
X220950000Y-68000000D03*
%TO.P,IC101,4,NRST*%
%TO.N,NRST*%
X220950000Y-68500000D03*
%TO.P,IC101,5,VDDA/VREF+*%
%TO.N,VDDA*%
X220950000Y-69000000D03*
%TO.P,IC101,6,PA0/CK_IN*%
%TO.N,VS_ADC*%
X220950000Y-69500000D03*
%TO.P,IC101,7,PA1*%
%TO.N,unconnected-(IC101-Pad7)*%
X220950000Y-70000000D03*
%TO.P,IC101,8,PA2*%
%TO.N,/CMD_RX*%
X220950000Y-70500000D03*
D24*
%TO.P,IC101,9,PA3*%
%TO.N,/CMD_TX*%
X221650000Y-71200000D03*
%TO.P,IC101,10,PA4*%
%TO.N,/BLDC_ISENSE*%
X222150000Y-71200000D03*
%TO.P,IC101,11,PA5*%
%TO.N,/BLDC_DIAG*%
X222650000Y-71200000D03*
%TO.P,IC101,12,PA6*%
%TO.N,/BLDC_NSTBY*%
X223150000Y-71200000D03*
%TO.P,IC101,13,PA7*%
%TO.N,/BLDC_WL*%
X223650000Y-71200000D03*
%TO.P,IC101,14,PB0*%
%TO.N,/BLDC_VL*%
X224150000Y-71200000D03*
%TO.P,IC101,15,PB1*%
%TO.N,/BLDC_UL*%
X224650000Y-71200000D03*
%TO.P,IC101,16,VSS_1*%
%TO.N,VSS*%
X225150000Y-71200000D03*
D23*
%TO.P,IC101,17,VDD_2*%
%TO.N,VDD*%
X225850000Y-70500000D03*
%TO.P,IC101,18,PA8*%
%TO.N,/BLDC_WH*%
X225850000Y-70000000D03*
%TO.P,IC101,19,PA9*%
%TO.N,/BLDC_VH*%
X225850000Y-69500000D03*
%TO.P,IC101,20,PA10*%
%TO.N,/BLDC_UH*%
X225850000Y-69000000D03*
%TO.P,IC101,21,PA11*%
%TO.N,/HALL_C*%
X225850000Y-68500000D03*
%TO.P,IC101,22,PA12*%
%TO.N,/HALL_B*%
X225850000Y-68000000D03*
%TO.P,IC101,23,PA13*%
%TO.N,SYS_SWDIO*%
X225850000Y-67500000D03*
%TO.P,IC101,24,PA14*%
%TO.N,SYS_SWCLK*%
X225850000Y-67000000D03*
D24*
%TO.P,IC101,25,PA15*%
%TO.N,/HALL_A*%
X225150000Y-66300000D03*
%TO.P,IC101,26,PB3*%
%TO.N,SYS_SWO*%
X224650000Y-66300000D03*
%TO.P,IC101,27,PB4*%
%TO.N,unconnected-(IC101-Pad27)*%
X224150000Y-66300000D03*
%TO.P,IC101,28,PB5*%
%TO.N,Net-(IC101-Pad28)*%
X223650000Y-66300000D03*
%TO.P,IC101,29,PB6*%
%TO.N,Net-(IC101-Pad29)*%
X223150000Y-66300000D03*
%TO.P,IC101,30,PB7*%
%TO.N,Net-(IC101-Pad30)*%
X222650000Y-66300000D03*
%TO.P,IC101,31,PH3/BOOT0*%
%TO.N,/BOOT0*%
X222150000Y-66300000D03*
%TO.P,IC101,32,VSS_2*%
%TO.N,VSS*%
X221650000Y-66300000D03*
D25*
%TO.P,IC101,33,GND*%
X223400000Y-68750000D03*
%TD*%
D20*
%TO.P,R405,1*%
%TO.N,/HALL_C*%
X234000000Y-69990000D03*
%TO.P,R405,2*%
%TO.N,/RAW_HALL_C*%
X234000000Y-71010000D03*
%TD*%
D10*
%TO.P,R204,1*%
%TO.N,/BLDC_WL*%
X225490000Y-74700000D03*
%TO.P,R204,2*%
%TO.N,VSS*%
X226510000Y-74700000D03*
%TD*%
D26*
%TO.P,C102,1*%
%TO.N,VDD*%
X227150000Y-70750000D03*
%TO.P,C102,2*%
%TO.N,VSS*%
X227150000Y-71710000D03*
%TD*%
D27*
%TO.P,J101,1,1*%
%TO.N,/5V0*%
X240050000Y-62500000D03*
D28*
%TO.P,J101,2,2*%
%TO.N,VSS*%
X240050000Y-64500000D03*
%TO.P,J101,3,3*%
%TO.N,/RAW_HALL_A*%
X240050000Y-66500000D03*
%TO.P,J101,4,4*%
%TO.N,/RAW_HALL_B*%
X240050000Y-68500000D03*
%TO.P,J101,5,5*%
%TO.N,/RAW_HALL_C*%
X240050000Y-70500000D03*
%TO.P,J101,6,6*%
%TO.N,/BLDC_W*%
X240050000Y-72500000D03*
%TO.P,J101,7,7*%
%TO.N,/BLDC_V*%
X240050000Y-74500000D03*
%TO.P,J101,8,8*%
%TO.N,/BLDC_U*%
X240050000Y-76500000D03*
%TD*%
D19*
%TO.P,C205,1*%
%TO.N,VS*%
X234700000Y-79750000D03*
%TO.P,C205,2*%
%TO.N,VSS*%
X234700000Y-81650000D03*
%TD*%
D29*
%TO.P,C403,1*%
%TO.N,/5V0*%
X234600000Y-62725000D03*
%TO.P,C403,2*%
%TO.N,VSS*%
X234600000Y-64275000D03*
%TD*%
D13*
%TO.P,C209,1*%
%TO.N,VSS*%
X231930000Y-77200000D03*
%TO.P,C209,2*%
%TO.N,Net-(C209-Pad2)*%
X230970000Y-77200000D03*
%TD*%
D20*
%TO.P,R208,1*%
%TO.N,/BLDC_ISENSE*%
X224000000Y-81290000D03*
%TO.P,R208,2*%
%TO.N,Net-(IC202-Pad1)*%
X224000000Y-82310000D03*
%TD*%
D30*
%TO.P,R212,1*%
%TO.N,Net-(IC201-Pad16)*%
X229500000Y-79525000D03*
%TO.P,R212,2*%
%TO.N,VSS*%
X229500000Y-81875000D03*
%TD*%
D10*
%TO.P,R202,1*%
%TO.N,/BLDC_UL*%
X225490000Y-72700000D03*
%TO.P,R202,2*%
%TO.N,VSS*%
X226510000Y-72700000D03*
%TD*%
D31*
%TO.P,J104,1,1*%
%TO.N,VDD*%
X231408000Y-63770000D03*
%TO.P,J104,2,2*%
%TO.N,SYS_SWDIO*%
X226592000Y-63770000D03*
%TO.P,J104,3,3*%
%TO.N,NRST*%
X231408000Y-62500000D03*
%TO.P,J104,4,4*%
%TO.N,SYS_SWCLK*%
X226592000Y-62500000D03*
%TO.P,J104,5,5*%
%TO.N,VSS*%
X231408000Y-61230000D03*
%TO.P,J104,6,6*%
%TO.N,SYS_SWO*%
X226592000Y-61230000D03*
%TD*%
D26*
%TO.P,C207,1*%
%TO.N,VS*%
X231900000Y-70920000D03*
%TO.P,C207,2*%
%TO.N,Net-(C207-Pad2)*%
X231900000Y-71880000D03*
%TD*%
D21*
%TO.P,D103,1*%
%TO.N,/BLDC_U*%
X234950000Y-76500000D03*
%TO.P,D103,2*%
%TO.N,VSS*%
X236050000Y-76500000D03*
%TD*%
D32*
%TO.P,IC201,1,W*%
%TO.N,/BLDC_W*%
X232050000Y-73000000D03*
%TO.P,IC201,2,VCP*%
%TO.N,Net-(C207-Pad2)*%
X231650000Y-73000000D03*
%TO.P,IC201,3,UH*%
%TO.N,/BLDC_UH*%
X231250000Y-73000000D03*
%TO.P,IC201,4,VH*%
%TO.N,/BLDC_VH*%
X230850000Y-73000000D03*
%TO.P,IC201,5,WH*%
%TO.N,/BLDC_WH*%
X230450000Y-73000000D03*
D33*
%TO.P,IC201,6,UL*%
%TO.N,/BLDC_UL*%
X229750000Y-73700000D03*
%TO.P,IC201,7,WL*%
%TO.N,/BLDC_WL*%
X229750000Y-74100000D03*
%TO.P,IC201,8,GND_1*%
%TO.N,VSS*%
X229750000Y-74500000D03*
%TO.P,IC201,9,GND_2*%
X229750000Y-74900000D03*
%TO.P,IC201,10,VL*%
%TO.N,/BLDC_VL*%
X229750000Y-75300000D03*
D32*
%TO.P,IC201,11,VIO/NSTDBY*%
%TO.N,/BLDC_NSTBY*%
X230450000Y-76000000D03*
%TO.P,IC201,12,DIAG*%
%TO.N,/BLDC_DIAG*%
X230850000Y-76000000D03*
%TO.P,IC201,13,1.8VOUT*%
%TO.N,Net-(C209-Pad2)*%
X231250000Y-76000000D03*
%TO.P,IC201,14,GND_3*%
%TO.N,VSS*%
X231650000Y-76000000D03*
%TO.P,IC201,15,U*%
%TO.N,/BLDC_U*%
X232050000Y-76000000D03*
D33*
%TO.P,IC201,16,BRUV*%
%TO.N,Net-(IC201-Pad16)*%
X232750000Y-75300000D03*
%TO.P,IC201,17,V*%
%TO.N,/BLDC_V*%
X232750000Y-74900000D03*
%TO.P,IC201,18,VS*%
%TO.N,VS*%
X232750000Y-74500000D03*
%TO.P,IC201,19,-*%
%TO.N,unconnected-(IC201-Pad19)*%
X232750000Y-74100000D03*
%TO.P,IC201,20,BRW*%
%TO.N,Net-(IC201-Pad16)*%
X232750000Y-73700000D03*
D34*
%TO.P,IC201,21,EP*%
%TO.N,VSS*%
X231250000Y-74500000D03*
%TD*%
D26*
%TO.P,C208,1*%
%TO.N,VSS*%
X224000000Y-79320000D03*
%TO.P,C208,2*%
%TO.N,/BLDC_ISENSE*%
X224000000Y-80280000D03*
%TD*%
D35*
%TO.P,C101,1*%
%TO.N,VDD*%
X219700000Y-67080000D03*
%TO.P,C101,2*%
%TO.N,VSS*%
X219700000Y-66120000D03*
%TD*%
D26*
%TO.P,C201,1*%
%TO.N,VS*%
X231100000Y-80220000D03*
%TO.P,C201,2*%
%TO.N,VSS*%
X231100000Y-81180000D03*
%TD*%
D19*
%TO.P,C206,1*%
%TO.N,VS*%
X238700000Y-79750000D03*
%TO.P,C206,2*%
%TO.N,VSS*%
X238700000Y-81650000D03*
%TD*%
D22*
%TO.P,D402,1*%
%TO.N,/5V0*%
X236000000Y-62950000D03*
%TO.P,D402,2*%
%TO.N,VSS*%
X236000000Y-61850000D03*
%TD*%
D12*
%TO.P,R103,1*%
%TO.N,VDD*%
X214710000Y-65700000D03*
%TO.P,R103,2*%
%TO.N,/CMD_TX*%
X213690000Y-65700000D03*
%TD*%
D36*
%TO.P,R402,1*%
%TO.N,/RAW_HALL_A*%
X235000000Y-67010000D03*
%TO.P,R402,2*%
%TO.N,VDD*%
X235000000Y-65990000D03*
%TD*%
D20*
%TO.P,R210,1*%
%TO.N,/BLDC_DIAG*%
X223000000Y-76290000D03*
%TO.P,R210,2*%
%TO.N,VSS*%
X223000000Y-77310000D03*
%TD*%
D26*
%TO.P,C104,1*%
%TO.N,VSS*%
X232900000Y-62020000D03*
%TO.P,C104,2*%
%TO.N,VDD*%
X232900000Y-62980000D03*
%TD*%
D37*
%TO.P,C105,1*%
%TO.N,VSS*%
X227530000Y-59500000D03*
%TO.P,C105,2*%
%TO.N,NRST*%
X228490000Y-59500000D03*
%TD*%
D38*
%TO.P,J103,1,1*%
%TO.N,VS*%
X210000000Y-76500000D03*
D39*
%TO.P,J103,2,2*%
%TO.N,VSS*%
X210000000Y-74500000D03*
%TD*%
D40*
%TO.P,TP207,1,1*%
%TO.N,/BLDC_ISENSE*%
X222300000Y-81800000D03*
%TD*%
D20*
%TO.P,R207,1*%
%TO.N,/BLDC_NSTBY*%
X223800000Y-73390000D03*
%TO.P,R207,2*%
%TO.N,VSS*%
X223800000Y-74410000D03*
%TD*%
D10*
%TO.P,R102,1*%
%TO.N,/CMD_RX*%
X213690000Y-63800000D03*
%TO.P,R102,2*%
%TO.N,VDD*%
X214710000Y-63800000D03*
%TD*%
%TO.P,R104,1*%
%TO.N,NRST*%
X229500000Y-59500000D03*
%TO.P,R104,2*%
%TO.N,VDD*%
X230520000Y-59500000D03*
%TD*%
D12*
%TO.P,R206,1*%
%TO.N,/BLDC_VL*%
X228510000Y-74700000D03*
%TO.P,R206,2*%
%TO.N,VSS*%
X227490000Y-74700000D03*
%TD*%
D10*
%TO.P,R201,1*%
%TO.N,VSS*%
X227490000Y-72700000D03*
%TO.P,R201,2*%
%TO.N,/BLDC_WH*%
X228510000Y-72700000D03*
%TD*%
D36*
%TO.P,R403,1*%
%TO.N,/HALL_B*%
X234000000Y-69000000D03*
%TO.P,R403,2*%
%TO.N,/RAW_HALL_B*%
X234000000Y-67980000D03*
%TD*%
D12*
%TO.P,R211,1*%
%TO.N,Net-(IC202-Pad4)*%
X227610000Y-77900000D03*
%TO.P,R211,2*%
%TO.N,Net-(IC202-Pad1)*%
X226590000Y-77900000D03*
%TD*%
D36*
%TO.P,R406,1*%
%TO.N,/RAW_HALL_C*%
X235000000Y-71010000D03*
%TO.P,R406,2*%
%TO.N,VDD*%
X235000000Y-69990000D03*
%TD*%
D19*
%TO.P,C203,1*%
%TO.N,VS*%
X232700000Y-79750000D03*
%TO.P,C203,2*%
%TO.N,VSS*%
X232700000Y-81650000D03*
%TD*%
%TO.P,C202,1*%
%TO.N,VS*%
X240700000Y-79750000D03*
%TO.P,C202,2*%
%TO.N,VSS*%
X240700000Y-81650000D03*
%TD*%
D41*
%TO.P,IC202,1,OUT*%
%TO.N,Net-(IC202-Pad1)*%
X225650000Y-81850000D03*
%TO.P,IC202,2,V-*%
%TO.N,VSS*%
X226600000Y-81850000D03*
%TO.P,IC202,3,+IN*%
%TO.N,Net-(IC201-Pad16)*%
X227550000Y-81850000D03*
%TO.P,IC202,4,-IN*%
%TO.N,Net-(IC202-Pad4)*%
X227550000Y-79350000D03*
%TO.P,IC202,5,V+*%
%TO.N,VDD*%
X225650000Y-79350000D03*
%TD*%
D35*
%TO.P,C402,1*%
%TO.N,/HALL_B*%
X233000000Y-68980000D03*
%TO.P,C402,2*%
%TO.N,VSS*%
X233000000Y-68020000D03*
%TD*%
D22*
%TO.P,D403,1*%
%TO.N,/RAW_HALL_B*%
X236000000Y-67950000D03*
%TO.P,D403,2*%
%TO.N,VSS*%
X236000000Y-69050000D03*
%TD*%
D42*
%TO.P,C103,1*%
%TO.N,VDD*%
X218725000Y-64500000D03*
%TO.P,C103,2*%
%TO.N,VSS*%
X220275000Y-64500000D03*
%TD*%
D21*
%TO.P,D101,1*%
%TO.N,/BLDC_W*%
X234950000Y-72500000D03*
%TO.P,D101,2*%
%TO.N,VSS*%
X236050000Y-72500000D03*
%TD*%
D13*
%TO.P,C210,1*%
%TO.N,VDD*%
X225080000Y-77900000D03*
%TO.P,C210,2*%
%TO.N,VSS*%
X224120000Y-77900000D03*
%TD*%
D20*
%TO.P,R404,1*%
%TO.N,/RAW_HALL_B*%
X235000000Y-67990000D03*
%TO.P,R404,2*%
%TO.N,VDD*%
X235000000Y-69010000D03*
%TD*%
%TO.P,R401,1*%
%TO.N,/HALL_A*%
X234000000Y-66000000D03*
%TO.P,R401,2*%
%TO.N,/RAW_HALL_A*%
X234000000Y-67020000D03*
%TD*%
D26*
%TO.P,C401,1*%
%TO.N,/HALL_A*%
X233000000Y-66020000D03*
%TO.P,C401,2*%
%TO.N,VSS*%
X233000000Y-66980000D03*
%TD*%
D10*
%TO.P,R209,1*%
%TO.N,VSS*%
X226590000Y-76800000D03*
%TO.P,R209,2*%
%TO.N,Net-(IC202-Pad4)*%
X227610000Y-76800000D03*
%TD*%
D26*
%TO.P,C404,1*%
%TO.N,/HALL_C*%
X233000000Y-70020000D03*
%TO.P,C404,2*%
%TO.N,VSS*%
X233000000Y-70980000D03*
%TD*%
D22*
%TO.P,D404,1*%
%TO.N,/RAW_HALL_C*%
X236000000Y-71050000D03*
%TO.P,D404,2*%
%TO.N,VSS*%
X236000000Y-69950000D03*
%TD*%
D28*
%TO.P,J102,3,3*%
%TO.N,VSS*%
X210000000Y-62500000D03*
%TO.P,J102,2,2*%
%TO.N,/CMD_RX*%
X210000000Y-64500000D03*
D27*
%TO.P,J102,1,1*%
%TO.N,/CMD_TX*%
X210000000Y-66500000D03*
%TD*%
D10*
%TO.P,R203,1*%
%TO.N,VSS*%
X229580000Y-71300000D03*
%TO.P,R203,2*%
%TO.N,/BLDC_VH*%
X230600000Y-71300000D03*
%TD*%
D43*
%TO.N,VSS*%
X219700000Y-78600000D03*
%TO.N,Net-(IC101-Pad28)*%
X224000000Y-63400000D03*
%TO.N,Net-(IC101-Pad29)*%
X223400000Y-63400000D03*
%TO.N,Net-(IC101-Pad30)*%
X222800000Y-63400000D03*
%TO.N,VSS*%
X222300000Y-58050000D03*
X215750000Y-58050000D03*
%TO.N,Net-(IC101-Pad28)*%
X221510000Y-61790000D03*
%TO.N,Net-(IC101-Pad29)*%
X219510000Y-61790000D03*
%TO.N,Net-(IC101-Pad30)*%
X217510000Y-61790000D03*
%TO.N,VS_ADC*%
X220800000Y-74300000D03*
X219600000Y-69800000D03*
%TO.N,VDDA*%
X219900000Y-69000000D03*
%TO.N,VDD*%
X219500000Y-73500000D03*
%TO.N,GND*%
X221500000Y-74000000D03*
%TO.N,VDDA*%
X219900000Y-72100000D03*
%TO.N,VDD*%
X215300000Y-65700000D03*
X215300000Y-63800000D03*
%TO.N,VSS*%
X220700000Y-76100000D03*
%TO.N,VDD*%
X216400000Y-74000000D03*
D44*
%TO.N,VSS*%
X233600000Y-64300000D03*
%TO.N,/5V0*%
X234600000Y-61800000D03*
D43*
X216900000Y-77700000D03*
D44*
%TO.N,VSS*%
X215550000Y-70300000D03*
D43*
%TO.N,VDD*%
X216900000Y-67800000D03*
D44*
%TO.N,VS*%
X214100000Y-67100000D03*
X214100000Y-68000000D03*
D43*
X218600000Y-71500000D03*
X218600000Y-81500000D03*
D44*
%TO.N,VSS*%
X215500000Y-80300000D03*
X217800000Y-75500000D03*
%TO.N,/5V0*%
X208000000Y-79100000D03*
X208000000Y-79900000D03*
%TO.N,VSS*%
X208000000Y-81900000D03*
X208000000Y-81100000D03*
%TO.N,VDD*%
X208000000Y-69100000D03*
%TO.N,VSS*%
X208000000Y-71100000D03*
X208000000Y-71900000D03*
%TO.N,VDD*%
X208000000Y-69900000D03*
D43*
X218700000Y-63700000D03*
X235000000Y-65500000D03*
X225080000Y-77200000D03*
X235000000Y-69500000D03*
X219950000Y-67750000D03*
X231110000Y-59500000D03*
X227800000Y-70750000D03*
X232500000Y-63770000D03*
D44*
%TO.N,/BLDC_ISENSE*%
X222300000Y-81800000D03*
D43*
%TO.N,/BLDC_WL*%
X224950000Y-73850000D03*
X223650000Y-72150000D03*
%TO.N,/BLDC_VL*%
X229000000Y-75300000D03*
%TO.N,/BLDC_UL*%
X225200000Y-73200000D03*
%TO.N,VSS*%
X236600000Y-76500000D03*
D44*
X236700000Y-82700000D03*
D43*
X233000000Y-71500000D03*
X236000000Y-61200000D03*
X219700000Y-65500000D03*
X236600000Y-74500000D03*
X220300000Y-63700000D03*
X226600000Y-82800000D03*
X229000000Y-71300000D03*
X226910000Y-59500000D03*
X227810000Y-71710000D03*
X221900000Y-67250000D03*
D44*
X234700000Y-82700000D03*
D43*
X233000000Y-67500000D03*
X223000000Y-77900000D03*
X236600000Y-72500000D03*
D44*
X240700000Y-82700000D03*
D43*
X224000000Y-78700000D03*
X232500000Y-61230000D03*
X236000000Y-69500000D03*
X224000000Y-75000000D03*
X231750000Y-75000000D03*
X230750000Y-75000000D03*
X221800000Y-63400000D03*
D44*
X232700000Y-82700000D03*
D43*
X236000000Y-65500000D03*
X224900000Y-67250000D03*
X226000000Y-76800000D03*
X227000000Y-74700000D03*
X221900000Y-70250000D03*
X231750000Y-74000000D03*
D44*
X238700000Y-82700000D03*
D43*
X229300000Y-69900000D03*
X230750000Y-74000000D03*
X224120000Y-77200000D03*
X227000000Y-72700000D03*
X224900000Y-70250000D03*
%TO.N,/BLDC_WH*%
X228000000Y-70150000D03*
%TO.N,/BLDC_VH*%
X230300000Y-70600000D03*
%TO.N,/BLDC_UH*%
X230700000Y-69200000D03*
%TO.N,SYS_SWDIO*%
X227900000Y-66600000D03*
X227900000Y-65400000D03*
%TO.N,SYS_SWCLK*%
X227000000Y-65400000D03*
X227000000Y-66600000D03*
%TO.N,Net-(IC201-Pad16)*%
X233400000Y-75500000D03*
X233400000Y-73500000D03*
D44*
X229500000Y-78000000D03*
%TO.N,VS*%
X232700000Y-78700000D03*
X236700000Y-78700000D03*
X238700000Y-78700000D03*
X240700000Y-78700000D03*
D43*
X231900000Y-70300000D03*
D44*
X233800000Y-74200000D03*
X234700000Y-78700000D03*
%TD*%
D45*
%TO.N,/BLDC_VL*%
X228510000Y-75210000D02*
X228510000Y-74700000D01*
X228600000Y-75300000D02*
X228510000Y-75210000D01*
X225110643Y-75300000D02*
X224472000Y-74661357D01*
X224472000Y-73172000D02*
X224150000Y-72850000D01*
D46*
X229000000Y-75300000D02*
X229750000Y-75300000D01*
D45*
X229000000Y-75300000D02*
X228600000Y-75300000D01*
X229000000Y-75300000D02*
X225110643Y-75300000D01*
X224150000Y-72850000D02*
X224150000Y-71200000D01*
X224472000Y-74661357D02*
X224472000Y-73172000D01*
%TO.N,/BLDC_UL*%
X225200000Y-73200000D02*
X224900000Y-72900000D01*
X225200000Y-73200000D02*
X225700000Y-73700000D01*
X225700000Y-73700000D02*
X228800000Y-73700000D01*
%TO.N,VSS*%
X219700000Y-78600000D02*
X219420000Y-78880000D01*
X219420000Y-78880000D02*
X219420000Y-79500000D01*
D47*
X216990000Y-79500000D02*
X215550000Y-79500000D01*
D45*
%TO.N,Net-(IC101-Pad28)*%
X224000000Y-63800000D02*
X224000000Y-63400000D01*
X223900000Y-63900000D02*
X224000000Y-63800000D01*
X223650000Y-64150000D02*
X223900000Y-63900000D01*
X223650000Y-66300000D02*
X223650000Y-64150000D01*
%TO.N,Net-(IC101-Pad29)*%
X223150000Y-63725995D02*
X223150000Y-66300000D01*
X223400000Y-63400000D02*
X223400000Y-63475995D01*
X223400000Y-63475995D02*
X223150000Y-63725995D01*
%TO.N,Net-(IC101-Pad30)*%
X222650000Y-63550000D02*
X222800000Y-63400000D01*
X222650000Y-66300000D02*
X222650000Y-63550000D01*
%TO.N,VSS*%
X221800000Y-63400000D02*
X221800000Y-64040000D01*
%TO.N,/BOOT0*%
X222150000Y-65410000D02*
X221800000Y-65060000D01*
X222150000Y-66300000D02*
X222150000Y-65410000D01*
%TO.N,VSS*%
X221000000Y-58050000D02*
X222300000Y-58050000D01*
X215750000Y-58050000D02*
X217000000Y-58050000D01*
%TO.N,Net-(IC101-Pad28)*%
X221510000Y-61000000D02*
X221510000Y-61790000D01*
%TO.N,Net-(IC101-Pad29)*%
X219510000Y-61000000D02*
X219510000Y-61790000D01*
%TO.N,Net-(IC101-Pad30)*%
X217510000Y-61000000D02*
X217510000Y-61790000D01*
%TO.N,Net-(LED101-Pad2)*%
X216490000Y-60060000D02*
X217000000Y-59550000D01*
X216490000Y-61000000D02*
X216490000Y-60060000D01*
%TO.N,Net-(LED102-Pad2)*%
X218490000Y-60060000D02*
X219000000Y-59550000D01*
X218490000Y-61000000D02*
X218490000Y-60060000D01*
%TO.N,Net-(LED103-Pad2)*%
X220490000Y-60060000D02*
X221000000Y-59550000D01*
X220490000Y-61000000D02*
X220490000Y-60060000D01*
%TO.N,VSS*%
X219000000Y-58050000D02*
X221000000Y-58050000D01*
X217000000Y-58050000D02*
X219000000Y-58050000D01*
%TO.N,NRST*%
X220000000Y-68500000D02*
X220950000Y-68500000D01*
X219100000Y-67600000D02*
X220000000Y-68500000D01*
X217850000Y-63500000D02*
X217850000Y-65250000D01*
X218550000Y-62800000D02*
X217850000Y-63500000D01*
X223100000Y-62800000D02*
X218550000Y-62800000D01*
X217850000Y-65250000D02*
X219100000Y-66500000D01*
X219100000Y-66500000D02*
X219100000Y-67600000D01*
X228500000Y-60400000D02*
X225500000Y-60400000D01*
X225500000Y-60400000D02*
X223100000Y-62800000D01*
X228490000Y-59500000D02*
X228490000Y-60390000D01*
X228490000Y-60390000D02*
X228500000Y-60400000D01*
X228500000Y-60400000D02*
X228900000Y-60400000D01*
X229500000Y-59500000D02*
X228490000Y-59500000D01*
X229700000Y-62500000D02*
X231408000Y-62500000D01*
X229300000Y-62100000D02*
X229700000Y-62500000D01*
X229300000Y-60800000D02*
X229300000Y-62100000D01*
X228900000Y-60400000D02*
X229300000Y-60800000D01*
%TO.N,VDDA*%
X220520000Y-72300000D02*
X220520000Y-73300000D01*
%TO.N,VS_ADC*%
X221400000Y-74900000D02*
X220800000Y-74300000D01*
X221400000Y-75100000D02*
X221400000Y-74900000D01*
X221400000Y-77700000D02*
X221400000Y-75100000D01*
X220380000Y-78720000D02*
X220800000Y-78300000D01*
X220800000Y-78300000D02*
X221400000Y-77700000D01*
X220380000Y-79500000D02*
X220380000Y-78720000D01*
%TO.N,VS*%
X218600000Y-81500000D02*
X219390000Y-81500000D01*
%TO.N,VS_ADC*%
X220410000Y-81500000D02*
X220410000Y-80500000D01*
X220410000Y-79530000D02*
X220380000Y-79500000D01*
X220410000Y-80500000D02*
X220410000Y-79530000D01*
%TO.N,VSS*%
X219420000Y-80470000D02*
X219390000Y-80500000D01*
X219420000Y-79500000D02*
X219420000Y-80470000D01*
%TO.N,VS_ADC*%
X219900000Y-69500000D02*
X219600000Y-69800000D01*
X220950000Y-69500000D02*
X219900000Y-69500000D01*
%TO.N,VDDA*%
X220950000Y-69000000D02*
X219900000Y-69000000D01*
X220320000Y-72100000D02*
X220520000Y-72300000D01*
X219900000Y-72100000D02*
X220320000Y-72100000D01*
X219300000Y-72100000D02*
X219900000Y-72100000D01*
%TO.N,VDD*%
X219300000Y-73300000D02*
X219500000Y-73500000D01*
X219300000Y-72900000D02*
X219300000Y-73300000D01*
%TO.N,GND*%
X221480000Y-73980000D02*
X221500000Y-74000000D01*
X221480000Y-73300000D02*
X221480000Y-73980000D01*
X221480000Y-72300000D02*
X221480000Y-73300000D01*
D46*
%TO.N,VS*%
X233500000Y-74500000D02*
X233800000Y-74200000D01*
X232750000Y-74500000D02*
X233500000Y-74500000D01*
%TO.N,Net-(C207-Pad2)*%
X231650000Y-72130000D02*
X231900000Y-71880000D01*
X231650000Y-73000000D02*
X231650000Y-72130000D01*
D45*
%TO.N,VSS*%
X220650000Y-76150000D02*
X220700000Y-76100000D01*
X219500000Y-76150000D02*
X220650000Y-76150000D01*
%TO.N,/CMD_RX*%
X218722000Y-66987428D02*
X216234572Y-64500000D01*
X216234572Y-64500000D02*
X213700000Y-64500000D01*
X219078000Y-70178000D02*
X219078000Y-68112573D01*
X219078000Y-68112573D02*
X218722000Y-67756573D01*
X219400000Y-70500000D02*
X219078000Y-70178000D01*
X218722000Y-67756573D02*
X218722000Y-66987428D01*
X220950000Y-70500000D02*
X219400000Y-70500000D01*
%TO.N,/CMD_TX*%
X218344000Y-67144000D02*
X216200000Y-65000000D01*
X218344000Y-67965285D02*
X218344000Y-67144000D01*
X218700000Y-68321285D02*
X218344000Y-67965285D01*
X216200000Y-65000000D02*
X213700000Y-65000000D01*
X221650000Y-71200000D02*
X219500000Y-71200000D01*
X219500000Y-71200000D02*
X218700000Y-70400000D01*
X218700000Y-70400000D02*
X218700000Y-68321285D01*
%TO.N,VDD*%
X214710000Y-65700000D02*
X215300000Y-65700000D01*
X214710000Y-63800000D02*
X215300000Y-63800000D01*
%TO.N,/CMD_TX*%
X213690000Y-65700000D02*
X213690000Y-65010000D01*
X213700000Y-65000000D02*
X211500000Y-65000000D01*
X213690000Y-65010000D02*
X213700000Y-65000000D01*
%TO.N,/CMD_RX*%
X213700000Y-64500000D02*
X210000000Y-64500000D01*
X213690000Y-63800000D02*
X213690000Y-64490000D01*
X213690000Y-64490000D02*
X213700000Y-64500000D01*
%TO.N,/CMD_TX*%
X211500000Y-65000000D02*
X210000000Y-66500000D01*
%TO.N,VDD*%
X219700000Y-67500000D02*
X219700000Y-67080000D01*
X219950000Y-67750000D02*
X219700000Y-67500000D01*
%TO.N,/BLDC_ISENSE*%
X222810000Y-81290000D02*
X222300000Y-81800000D01*
X224000000Y-81290000D02*
X222810000Y-81290000D01*
%TO.N,Net-(LED301-Pad2)*%
X218850000Y-74000000D02*
X219500000Y-74650000D01*
X218010000Y-74000000D02*
X218850000Y-74000000D01*
%TO.N,VDD*%
X216990000Y-74000000D02*
X216400000Y-74000000D01*
%TO.N,VSS*%
X219700000Y-65500000D02*
X219700000Y-66120000D01*
X237600000Y-64500000D02*
X240050000Y-64500000D01*
X237375000Y-64275000D02*
X237600000Y-64500000D01*
X234600000Y-64275000D02*
X237375000Y-64275000D01*
D48*
%TO.N,/5V0*%
X234600000Y-61800000D02*
X234600000Y-62725000D01*
%TO.N,VSS*%
X234575000Y-64300000D02*
X234600000Y-64275000D01*
X233600000Y-64300000D02*
X234575000Y-64300000D01*
D45*
%TO.N,/5V0*%
X237800000Y-62500000D02*
X240050000Y-62500000D01*
X234825000Y-62950000D02*
X237350000Y-62950000D01*
X237350000Y-62950000D02*
X237800000Y-62500000D01*
X234600000Y-62725000D02*
X234825000Y-62950000D01*
X216990000Y-77790000D02*
X216900000Y-77700000D01*
X216990000Y-78500000D02*
X216990000Y-77790000D01*
D48*
%TO.N,VSS*%
X215550000Y-70350000D02*
X215550000Y-69500000D01*
D45*
%TO.N,VDD*%
X216990000Y-67890000D02*
X216900000Y-67800000D01*
X216990000Y-68500000D02*
X216990000Y-67890000D01*
%TO.N,VS*%
X218010000Y-71500000D02*
X218600000Y-71500000D01*
X218010000Y-81500000D02*
X218600000Y-81500000D01*
D48*
%TO.N,VSS*%
X215500000Y-80300000D02*
X215500000Y-79450000D01*
D49*
X216700000Y-75500000D02*
X217800000Y-75500000D01*
%TO.N,VS*%
X213900000Y-76300000D02*
X213700000Y-76500000D01*
X213700000Y-76500000D02*
X214450000Y-76500000D01*
X213900000Y-75500000D02*
X213900000Y-76300000D01*
X210000000Y-76500000D02*
X213700000Y-76500000D01*
X214450000Y-76500000D02*
X215500000Y-77550000D01*
D45*
%TO.N,VSS*%
X215000000Y-71800000D02*
X215000000Y-69950000D01*
X214800000Y-72000000D02*
X215000000Y-71800000D01*
X215000000Y-69950000D02*
X215500000Y-69450000D01*
X214300000Y-72000000D02*
X214800000Y-72000000D01*
%TO.N,VS*%
X214300000Y-68750000D02*
X215500000Y-67550000D01*
X214300000Y-71000000D02*
X214300000Y-68750000D01*
%TO.N,Net-(C306-Pad1)*%
X218010000Y-72890000D02*
X218010000Y-72500000D01*
X217800000Y-73100000D02*
X218010000Y-72890000D01*
X215875000Y-73100000D02*
X217800000Y-73100000D01*
X215775000Y-73000000D02*
X215875000Y-73100000D01*
%TO.N,Net-(R306-Pad2)*%
X218010000Y-69500000D02*
X218010000Y-68500000D01*
X218010000Y-70500000D02*
X218010000Y-69500000D01*
%TO.N,Net-(C306-Pad2)*%
X213600000Y-71600000D02*
X213700000Y-71500000D01*
X213600000Y-72375000D02*
X213600000Y-71600000D01*
X214225000Y-73000000D02*
X213600000Y-72375000D01*
X213700000Y-71500000D02*
X212000000Y-71500000D01*
X214300000Y-71500000D02*
X213700000Y-71500000D01*
%TO.N,Net-(IC302-Pad4)*%
X216490000Y-72000000D02*
X216990000Y-72500000D01*
X215700000Y-72000000D02*
X216490000Y-72000000D01*
%TO.N,Net-(IC302-Pad6)*%
X216490000Y-71000000D02*
X216990000Y-70500000D01*
X215700000Y-71000000D02*
X216490000Y-71000000D01*
%TO.N,Net-(IC302-Pad5)*%
X215700000Y-71500000D02*
X216990000Y-71500000D01*
D47*
%TO.N,VSS*%
X215550000Y-69500000D02*
X215500000Y-69450000D01*
X216990000Y-69500000D02*
X215550000Y-69500000D01*
%TO.N,VDD*%
X209350000Y-69500000D02*
X209300000Y-69550000D01*
X212000000Y-69500000D02*
X209350000Y-69500000D01*
%TO.N,/5V0*%
X209350000Y-79500000D02*
X209300000Y-79550000D01*
X212000000Y-79500000D02*
X209350000Y-79500000D01*
%TO.N,VSS*%
X215550000Y-79500000D02*
X215500000Y-79450000D01*
D45*
%TO.N,Net-(R305-Pad2)*%
X218010000Y-79500000D02*
X218010000Y-78500000D01*
X218010000Y-80500000D02*
X218010000Y-79500000D01*
%TO.N,VS*%
X214300000Y-81000000D02*
X214300000Y-78750000D01*
X214300000Y-78750000D02*
X215500000Y-77550000D01*
%TO.N,VSS*%
X215000000Y-79950000D02*
X215500000Y-79450000D01*
X215000000Y-81800000D02*
X215000000Y-79950000D01*
X214800000Y-82000000D02*
X215000000Y-81800000D01*
X214300000Y-82000000D02*
X214800000Y-82000000D01*
%TO.N,Net-(C305-Pad2)*%
X213600000Y-81500000D02*
X213600000Y-82375000D01*
X213600000Y-81500000D02*
X212000000Y-81500000D01*
X214300000Y-81500000D02*
X213600000Y-81500000D01*
X213600000Y-82375000D02*
X214225000Y-83000000D01*
%TO.N,Net-(C305-Pad1)*%
X218010000Y-82890000D02*
X218010000Y-82500000D01*
X217800000Y-83100000D02*
X218010000Y-82890000D01*
X215875000Y-83100000D02*
X217800000Y-83100000D01*
X215775000Y-83000000D02*
X215875000Y-83100000D01*
%TO.N,Net-(IC301-Pad4)*%
X215700000Y-82000000D02*
X216490000Y-82000000D01*
X216490000Y-82000000D02*
X216990000Y-82500000D01*
%TO.N,Net-(IC301-Pad6)*%
X215700000Y-81000000D02*
X216490000Y-81000000D01*
X216490000Y-81000000D02*
X216990000Y-80500000D01*
%TO.N,Net-(IC301-Pad5)*%
X215700000Y-81500000D02*
X216990000Y-81500000D01*
%TO.N,VDD*%
X232900000Y-63370000D02*
X232500000Y-63770000D01*
X227150000Y-70750000D02*
X227800000Y-70750000D01*
X226900000Y-70500000D02*
X227150000Y-70750000D01*
X225080000Y-77200000D02*
X225080000Y-77900000D01*
X220950000Y-67000000D02*
X219780000Y-67000000D01*
X232900000Y-62980000D02*
X232900000Y-63370000D01*
X218725000Y-63725000D02*
X218700000Y-63700000D01*
X225650000Y-79350000D02*
X225650000Y-78470000D01*
X225650000Y-78470000D02*
X225080000Y-77900000D01*
X231408000Y-63770000D02*
X232500000Y-63770000D01*
X230520000Y-59500000D02*
X231110000Y-59500000D01*
X235000000Y-65990000D02*
X235000000Y-65500000D01*
X218725000Y-64500000D02*
X218725000Y-63725000D01*
X225850000Y-70500000D02*
X226900000Y-70500000D01*
X235000000Y-69010000D02*
X235000000Y-69990000D01*
X219780000Y-67000000D02*
X219700000Y-67080000D01*
%TO.N,/BLDC_ISENSE*%
X222150000Y-79650000D02*
X222150000Y-71200000D01*
X224000000Y-81290000D02*
X224000000Y-80280000D01*
X222780000Y-80280000D02*
X222150000Y-79650000D01*
X224000000Y-80280000D02*
X222780000Y-80280000D01*
%TO.N,/BLDC_DIAG*%
X229700000Y-76200000D02*
X223700000Y-76200000D01*
D46*
X229700000Y-76200000D02*
X230200000Y-76700000D01*
D45*
X223000000Y-76290000D02*
X223000000Y-76200000D01*
D46*
X230200000Y-76700000D02*
X230600000Y-76700000D01*
X230600000Y-76700000D02*
X230850000Y-76450000D01*
D45*
X223000000Y-76200000D02*
X223350000Y-75850000D01*
D46*
X230850000Y-76450000D02*
X230850000Y-76000000D01*
D45*
X223350000Y-75850000D02*
X222650000Y-75150000D01*
X222650000Y-75150000D02*
X222650000Y-71200000D01*
X223700000Y-76200000D02*
X223350000Y-75850000D01*
%TO.N,/BLDC_NSTBY*%
X229800000Y-75800000D02*
X224000000Y-75800000D01*
D46*
X230250000Y-75800000D02*
X230450000Y-76000000D01*
D45*
X223150000Y-73350000D02*
X223150000Y-71200000D01*
D46*
X229800000Y-75800000D02*
X230250000Y-75800000D01*
D45*
X224000000Y-75800000D02*
X223150000Y-74950000D01*
X223150000Y-74950000D02*
X223150000Y-73350000D01*
X223800000Y-73390000D02*
X223190000Y-73390000D01*
X223190000Y-73390000D02*
X223150000Y-73350000D01*
D46*
%TO.N,/BLDC_WL*%
X228800000Y-74100000D02*
X229750000Y-74100000D01*
D45*
X225490000Y-74110000D02*
X225500000Y-74100000D01*
X223650000Y-72150000D02*
X223650000Y-71200000D01*
X224950000Y-73850000D02*
X225200000Y-74100000D01*
X225490000Y-74700000D02*
X225490000Y-74110000D01*
X225200000Y-74100000D02*
X225500000Y-74100000D01*
X228800000Y-74100000D02*
X225500000Y-74100000D01*
%TO.N,/BLDC_UL*%
X224900000Y-72900000D02*
X224650000Y-72650000D01*
X225100000Y-72700000D02*
X224900000Y-72900000D01*
X225490000Y-72700000D02*
X225100000Y-72700000D01*
D46*
X228800000Y-73700000D02*
X229750000Y-73700000D01*
D45*
X224650000Y-72650000D02*
X224650000Y-71200000D01*
D46*
%TO.N,VSS*%
X230650000Y-74900000D02*
X230750000Y-75000000D01*
D45*
X232900000Y-62020000D02*
X232900000Y-61630000D01*
X221650000Y-66300000D02*
X219880000Y-66300000D01*
X229890000Y-69900000D02*
X229300000Y-69900000D01*
X223800000Y-74800000D02*
X224000000Y-75000000D01*
X236000000Y-69050000D02*
X236000000Y-69950000D01*
D46*
X229750000Y-74900000D02*
X230650000Y-74900000D01*
D45*
X226600000Y-81850000D02*
X226600000Y-82800000D01*
X219880000Y-66300000D02*
X219700000Y-66120000D01*
X227810000Y-71710000D02*
X227150000Y-71710000D01*
X236050000Y-76500000D02*
X236600000Y-76500000D01*
X227110000Y-71750000D02*
X227150000Y-71710000D01*
X236050000Y-72500000D02*
X236600000Y-72500000D01*
D46*
X231650000Y-76000000D02*
X231650000Y-75100000D01*
X229750000Y-74500000D02*
X231250000Y-74500000D01*
D45*
X227490000Y-74700000D02*
X227000000Y-74700000D01*
X229580000Y-71300000D02*
X229000000Y-71300000D01*
X227490000Y-72700000D02*
X227000000Y-72700000D01*
X224120000Y-77200000D02*
X224120000Y-77900000D01*
X225150000Y-71200000D02*
X225150000Y-71500000D01*
X225400000Y-71750000D02*
X227110000Y-71750000D01*
X223000000Y-77310000D02*
X223000000Y-77900000D01*
X226510000Y-74700000D02*
X227000000Y-74700000D01*
X227530000Y-59500000D02*
X226910000Y-59500000D01*
X225150000Y-71500000D02*
X225400000Y-71750000D01*
X226590000Y-76800000D02*
X226000000Y-76800000D01*
D46*
X231650000Y-76000000D02*
X231650000Y-76920000D01*
D45*
X233000000Y-70980000D02*
X233000000Y-71500000D01*
X220275000Y-64500000D02*
X220275000Y-63725000D01*
D46*
X231650000Y-75100000D02*
X231750000Y-75000000D01*
D45*
X223800000Y-74410000D02*
X223800000Y-74800000D01*
D46*
X231650000Y-76920000D02*
X231930000Y-77200000D01*
X231250000Y-74500000D02*
X231750000Y-74000000D01*
D45*
X233000000Y-66980000D02*
X233000000Y-68020000D01*
X236000000Y-65950000D02*
X236000000Y-65500000D01*
X220275000Y-63725000D02*
X220300000Y-63700000D01*
X232900000Y-61630000D02*
X232500000Y-61230000D01*
X231408000Y-61230000D02*
X232500000Y-61230000D01*
X224000000Y-79320000D02*
X224000000Y-78700000D01*
X236000000Y-61850000D02*
X236000000Y-61200000D01*
X226510000Y-72700000D02*
X227000000Y-72700000D01*
X236050000Y-74500000D02*
X236600000Y-74500000D01*
D46*
%TO.N,/BLDC_WH*%
X230400000Y-72000000D02*
X230450000Y-72050000D01*
D45*
X227850000Y-70000000D02*
X225850000Y-70000000D01*
X228000000Y-70150000D02*
X227850000Y-70000000D01*
X228400000Y-71700000D02*
X228700000Y-72000000D01*
D46*
X230450000Y-72050000D02*
X230450000Y-73000000D01*
D45*
X228400000Y-70550000D02*
X228400000Y-71700000D01*
X228000000Y-70150000D02*
X228400000Y-70550000D01*
X228510000Y-72190000D02*
X228700000Y-72000000D01*
X230400000Y-72000000D02*
X228700000Y-72000000D01*
X228510000Y-72700000D02*
X228510000Y-72190000D01*
%TO.N,/BLDC_VH*%
X230800000Y-71800000D02*
X230600000Y-71600000D01*
X228800000Y-70400000D02*
X228800000Y-70100000D01*
D46*
X230850000Y-73000000D02*
X230850000Y-71850000D01*
D45*
X230600000Y-70900000D02*
X230300000Y-70600000D01*
X230600000Y-71300000D02*
X230600000Y-70900000D01*
X229000000Y-70600000D02*
X228800000Y-70400000D01*
X230600000Y-71600000D02*
X230600000Y-71300000D01*
X228800000Y-70100000D02*
X228200000Y-69500000D01*
X230300000Y-70600000D02*
X229000000Y-70600000D01*
X228200000Y-69500000D02*
X225850000Y-69500000D01*
D46*
X230850000Y-71850000D02*
X230800000Y-71800000D01*
D45*
%TO.N,/BLDC_UH*%
X230910000Y-69410000D02*
X230700000Y-69200000D01*
D46*
X231250000Y-73000000D02*
X231250000Y-71850000D01*
D45*
X230910000Y-69900000D02*
X230910000Y-69410000D01*
X231200000Y-71800000D02*
X231200000Y-70190000D01*
X230500000Y-69000000D02*
X225850000Y-69000000D01*
D46*
X231250000Y-71850000D02*
X231200000Y-71800000D01*
D45*
X231200000Y-70190000D02*
X230910000Y-69900000D01*
X230700000Y-69200000D02*
X230500000Y-69000000D01*
%TO.N,SYS_SWDIO*%
X227900000Y-64100000D02*
X227570000Y-63770000D01*
X227900000Y-66700000D02*
X227900000Y-66600000D01*
X227570000Y-63770000D02*
X226592000Y-63770000D01*
X225850000Y-67500000D02*
X227100000Y-67500000D01*
X227900000Y-65400000D02*
X227900000Y-64100000D01*
X227100000Y-67500000D02*
X227900000Y-66700000D01*
%TO.N,SYS_SWCLK*%
X225850000Y-67000000D02*
X226600000Y-67000000D01*
X225300000Y-62700000D02*
X225500000Y-62500000D01*
X225500000Y-62500000D02*
X226592000Y-62500000D01*
X227000000Y-65400000D02*
X226300000Y-65400000D01*
X226600000Y-67000000D02*
X227000000Y-66600000D01*
X225300000Y-64400000D02*
X225300000Y-62700000D01*
X226300000Y-65400000D02*
X225300000Y-64400000D01*
%TO.N,SYS_SWO*%
X224650000Y-62050000D02*
X225470000Y-61230000D01*
X225470000Y-61230000D02*
X226592000Y-61230000D01*
X224650000Y-66300000D02*
X224650000Y-62050000D01*
D46*
%TO.N,Net-(C209-Pad2)*%
X231250000Y-76920000D02*
X230970000Y-77200000D01*
X231250000Y-76000000D02*
X231250000Y-76920000D01*
D50*
%TO.N,Net-(IC201-Pad16)*%
X227550000Y-81475000D02*
X229500000Y-79525000D01*
D46*
X233200000Y-75300000D02*
X232750000Y-75300000D01*
X233400000Y-75500000D02*
X233200000Y-75300000D01*
X233400000Y-73500000D02*
X233200000Y-73700000D01*
X233200000Y-73700000D02*
X232750000Y-73700000D01*
D51*
X229500000Y-79525000D02*
X229500000Y-78000000D01*
D50*
X227550000Y-81850000D02*
X227550000Y-81475000D01*
D45*
%TO.N,VS*%
X231900000Y-70920000D02*
X231900000Y-70300000D01*
%TO.N,Net-(IC202-Pad1)*%
X226590000Y-77900000D02*
X226590000Y-80010000D01*
X225650000Y-81850000D02*
X224460000Y-81850000D01*
X224460000Y-81850000D02*
X224000000Y-82310000D01*
X225650000Y-80950000D02*
X225650000Y-81850000D01*
X226590000Y-80010000D02*
X225650000Y-80950000D01*
%TO.N,Net-(IC202-Pad4)*%
X227550000Y-77960000D02*
X227610000Y-77900000D01*
X227610000Y-77900000D02*
X227610000Y-76800000D01*
X227550000Y-79350000D02*
X227550000Y-77960000D01*
%TO.N,/HALL_A*%
X233000000Y-66020000D02*
X232980000Y-66000000D01*
X225450000Y-66000000D02*
X225150000Y-66300000D01*
X234000000Y-66000000D02*
X233020000Y-66000000D01*
X232980000Y-66000000D02*
X225450000Y-66000000D01*
X233020000Y-66000000D02*
X233000000Y-66020000D01*
%TO.N,/HALL_B*%
X232280000Y-68980000D02*
X233000000Y-68980000D01*
X234000000Y-69000000D02*
X233020000Y-69000000D01*
X231300000Y-68000000D02*
X225850000Y-68000000D01*
X231300000Y-68000000D02*
X232280000Y-68980000D01*
X233020000Y-69000000D02*
X233000000Y-68980000D01*
%TO.N,/HALL_C*%
X231000000Y-68500000D02*
X225850000Y-68500000D01*
X232520000Y-70020000D02*
X233000000Y-70020000D01*
X231000000Y-68500000D02*
X232520000Y-70020000D01*
X233030000Y-69990000D02*
X233000000Y-70020000D01*
X234000000Y-69990000D02*
X233030000Y-69990000D01*
%TO.N,/RAW_HALL_B*%
X235040000Y-67950000D02*
X235000000Y-67990000D01*
X239500000Y-67950000D02*
X240050000Y-68500000D01*
X234010000Y-67990000D02*
X234000000Y-67980000D01*
X235000000Y-67990000D02*
X234010000Y-67990000D01*
X236000000Y-67950000D02*
X235040000Y-67950000D01*
X236000000Y-67950000D02*
X239500000Y-67950000D01*
%TO.N,/RAW_HALL_A*%
X235040000Y-67050000D02*
X235000000Y-67010000D01*
X234990000Y-67020000D02*
X235000000Y-67010000D01*
X234000000Y-67020000D02*
X234990000Y-67020000D01*
X239500000Y-67050000D02*
X240050000Y-66500000D01*
X236000000Y-67050000D02*
X239500000Y-67050000D01*
X236000000Y-67050000D02*
X235040000Y-67050000D01*
%TO.N,/RAW_HALL_C*%
X234000000Y-71010000D02*
X235000000Y-71010000D01*
X236000000Y-71050000D02*
X239500000Y-71050000D01*
X239500000Y-71050000D02*
X240050000Y-70500000D01*
X235960000Y-71010000D02*
X236000000Y-71050000D01*
X235000000Y-71010000D02*
X235960000Y-71010000D01*
%TD*%
%TA.AperFunction,Conductor*%
%TO.N,VS*%
G36*
X241481548Y-78218452D02*
G01*
X241500000Y-78263000D01*
X241500000Y-80437000D01*
X241481548Y-80481548D01*
X241437000Y-80500000D01*
X230763000Y-80500000D01*
X230718452Y-80481548D01*
X230700000Y-80437000D01*
X230700000Y-78263000D01*
X230718452Y-78218452D01*
X230763000Y-78200000D01*
X241437000Y-78200000D01*
X241481548Y-78218452D01*
G37*
%TD.AperFunction*%
%TD*%
%TA.AperFunction,Conductor*%
%TO.N,/BLDC_V*%
G36*
X240881548Y-73618452D02*
G01*
X240900000Y-73663000D01*
X240900000Y-75337000D01*
X240881548Y-75381548D01*
X240837000Y-75400000D01*
X234463000Y-75400000D01*
X234418452Y-75381548D01*
X234400000Y-75337000D01*
X234400000Y-75100000D01*
X233330231Y-75100000D01*
X233295921Y-75089837D01*
X233283716Y-75081911D01*
X233273644Y-75080316D01*
X233257883Y-75075647D01*
X233248569Y-75071500D01*
X233222935Y-75071500D01*
X233213080Y-75070724D01*
X233194316Y-75067752D01*
X233194315Y-75067752D01*
X233187774Y-75066716D01*
X233181377Y-75068430D01*
X233177927Y-75069354D01*
X233161623Y-75071500D01*
X232363000Y-75071500D01*
X232318452Y-75053048D01*
X232300000Y-75008500D01*
X232300000Y-74791500D01*
X232318452Y-74746952D01*
X232363000Y-74728500D01*
X233492357Y-74728500D01*
X233495654Y-74728586D01*
X233529934Y-74730383D01*
X233529936Y-74730383D01*
X233536543Y-74730729D01*
X233542722Y-74728357D01*
X233542723Y-74728357D01*
X233560470Y-74721545D01*
X233569947Y-74718738D01*
X233578637Y-74716890D01*
X233595016Y-74713409D01*
X233599604Y-74710075D01*
X233648836Y-74709430D01*
X233658218Y-74713316D01*
X233658222Y-74713317D01*
X233662034Y-74714896D01*
X233666126Y-74715435D01*
X233666127Y-74715435D01*
X233795906Y-74732521D01*
X233800000Y-74733060D01*
X233804094Y-74732521D01*
X233933873Y-74715435D01*
X233933874Y-74715435D01*
X233937966Y-74714896D01*
X233941781Y-74713316D01*
X233962354Y-74704795D01*
X233986462Y-74700000D01*
X234400000Y-74700000D01*
X234400000Y-74672654D01*
X235706500Y-74672654D01*
X235713956Y-74710138D01*
X235742357Y-74752643D01*
X235784862Y-74781044D01*
X235822346Y-74788500D01*
X236277654Y-74788500D01*
X236315138Y-74781044D01*
X236320302Y-74777593D01*
X236322215Y-74776801D01*
X236370433Y-74776800D01*
X236383354Y-74784035D01*
X236386121Y-74786045D01*
X236389628Y-74789552D01*
X236489401Y-74840389D01*
X236600000Y-74857906D01*
X236710599Y-74840389D01*
X236810372Y-74789552D01*
X236889552Y-74710372D01*
X236940389Y-74610599D01*
X236957906Y-74500000D01*
X236940389Y-74389401D01*
X236889552Y-74289628D01*
X236810372Y-74210448D01*
X236710599Y-74159611D01*
X236600000Y-74142094D01*
X236489401Y-74159611D01*
X236389628Y-74210448D01*
X236386122Y-74213954D01*
X236383354Y-74215965D01*
X236336468Y-74227219D01*
X236322215Y-74223199D01*
X236320302Y-74222407D01*
X236315138Y-74218956D01*
X236277654Y-74211500D01*
X235822346Y-74211500D01*
X235784862Y-74218956D01*
X235742357Y-74247357D01*
X235713956Y-74289862D01*
X235706500Y-74327346D01*
X235706500Y-74672654D01*
X234400000Y-74672654D01*
X234400000Y-73663000D01*
X234418452Y-73618452D01*
X234463000Y-73600000D01*
X240837000Y-73600000D01*
X240881548Y-73618452D01*
G37*
%TD.AperFunction*%
%TD*%
%TA.AperFunction,Conductor*%
%TO.N,VSS*%
G36*
X241481548Y-80918452D02*
G01*
X241500000Y-80963000D01*
X241500000Y-83137000D01*
X241481548Y-83181548D01*
X241437000Y-83200000D01*
X228863000Y-83200000D01*
X228818452Y-83181548D01*
X228800000Y-83137000D01*
X228800000Y-80963000D01*
X228818452Y-80918452D01*
X228863000Y-80900000D01*
X241437000Y-80900000D01*
X241481548Y-80918452D01*
G37*
%TD.AperFunction*%
%TD*%
%TA.AperFunction,Conductor*%
%TO.N,/BLDC_U*%
G36*
X233060153Y-75618452D02*
G01*
X233071737Y-75634398D01*
X233110448Y-75710372D01*
X233189628Y-75789552D01*
X233289401Y-75840389D01*
X233400000Y-75857906D01*
X233510599Y-75840389D01*
X233610372Y-75789552D01*
X233689552Y-75710372D01*
X233728262Y-75634399D01*
X233764927Y-75603083D01*
X233784395Y-75600000D01*
X240837000Y-75600000D01*
X240881548Y-75618452D01*
X240900000Y-75663000D01*
X240900000Y-77237000D01*
X240881548Y-77281548D01*
X240837000Y-77300000D01*
X232401500Y-77300000D01*
X232356952Y-77281548D01*
X232338500Y-77237000D01*
X232338499Y-77006654D01*
X232338499Y-77003558D01*
X232322921Y-76925237D01*
X232263578Y-76836422D01*
X232174763Y-76777079D01*
X232096443Y-76761500D01*
X232088752Y-76761500D01*
X231962999Y-76761501D01*
X231918453Y-76743049D01*
X231900000Y-76698501D01*
X231900000Y-76672654D01*
X235706500Y-76672654D01*
X235713956Y-76710138D01*
X235742357Y-76752643D01*
X235784862Y-76781044D01*
X235822346Y-76788500D01*
X236277654Y-76788500D01*
X236315138Y-76781044D01*
X236320302Y-76777593D01*
X236322215Y-76776801D01*
X236370433Y-76776800D01*
X236383354Y-76784035D01*
X236386121Y-76786045D01*
X236389628Y-76789552D01*
X236489401Y-76840389D01*
X236600000Y-76857906D01*
X236710599Y-76840389D01*
X236810372Y-76789552D01*
X236889552Y-76710372D01*
X236940389Y-76610599D01*
X236957906Y-76500000D01*
X236940389Y-76389401D01*
X236889552Y-76289628D01*
X236810372Y-76210448D01*
X236710599Y-76159611D01*
X236600000Y-76142094D01*
X236489401Y-76159611D01*
X236389628Y-76210448D01*
X236386122Y-76213954D01*
X236383354Y-76215965D01*
X236336468Y-76227219D01*
X236322215Y-76223199D01*
X236320302Y-76222407D01*
X236315138Y-76218956D01*
X236277654Y-76211500D01*
X235822346Y-76211500D01*
X235784862Y-76218956D01*
X235742357Y-76247357D01*
X235713956Y-76289862D01*
X235706500Y-76327346D01*
X235706500Y-76672654D01*
X231900000Y-76672654D01*
X231900000Y-75663000D01*
X231918452Y-75618452D01*
X231963000Y-75600000D01*
X233015605Y-75600000D01*
X233060153Y-75618452D01*
G37*
%TD.AperFunction*%
%TD*%
%TA.AperFunction,Conductor*%
%TO.N,/BLDC_W*%
G36*
X232718528Y-71718452D02*
G01*
X232789628Y-71789552D01*
X232889401Y-71840389D01*
X233000000Y-71857906D01*
X233110599Y-71840389D01*
X233210372Y-71789552D01*
X233281472Y-71718452D01*
X233326020Y-71700000D01*
X240837000Y-71700000D01*
X240881548Y-71718452D01*
X240900000Y-71763000D01*
X240900000Y-73337000D01*
X240881548Y-73381548D01*
X240837000Y-73400000D01*
X233784395Y-73400000D01*
X233739847Y-73381548D01*
X233728262Y-73365601D01*
X233691804Y-73294048D01*
X233689552Y-73289628D01*
X233610372Y-73210448D01*
X233510599Y-73159611D01*
X233400000Y-73142094D01*
X233289401Y-73159611D01*
X233189628Y-73210448D01*
X233110448Y-73289628D01*
X233108196Y-73294048D01*
X233071738Y-73365601D01*
X233035073Y-73396917D01*
X233015605Y-73400000D01*
X231963000Y-73400000D01*
X231918452Y-73381548D01*
X231900000Y-73337000D01*
X231900000Y-72672654D01*
X235706500Y-72672654D01*
X235713956Y-72710138D01*
X235742357Y-72752643D01*
X235784862Y-72781044D01*
X235822346Y-72788500D01*
X236277654Y-72788500D01*
X236315138Y-72781044D01*
X236320302Y-72777593D01*
X236322215Y-72776801D01*
X236370433Y-72776800D01*
X236383354Y-72784035D01*
X236386121Y-72786045D01*
X236389628Y-72789552D01*
X236489401Y-72840389D01*
X236600000Y-72857906D01*
X236710599Y-72840389D01*
X236810372Y-72789552D01*
X236889552Y-72710372D01*
X236940389Y-72610599D01*
X236957906Y-72500000D01*
X236940389Y-72389401D01*
X236889552Y-72289628D01*
X236810372Y-72210448D01*
X236710599Y-72159611D01*
X236600000Y-72142094D01*
X236489401Y-72159611D01*
X236389628Y-72210448D01*
X236386122Y-72213954D01*
X236383354Y-72215965D01*
X236336468Y-72227219D01*
X236322215Y-72223199D01*
X236320302Y-72222407D01*
X236315138Y-72218956D01*
X236277654Y-72211500D01*
X235822346Y-72211500D01*
X235784862Y-72218956D01*
X235742357Y-72247357D01*
X235713956Y-72289862D01*
X235706500Y-72327346D01*
X235706500Y-72672654D01*
X231900000Y-72672654D01*
X231900000Y-72351500D01*
X231918452Y-72306952D01*
X231963000Y-72288500D01*
X232088739Y-72288499D01*
X232096442Y-72288499D01*
X232099471Y-72287896D01*
X232099476Y-72287896D01*
X232155940Y-72276665D01*
X232174763Y-72272921D01*
X232263578Y-72213578D01*
X232322921Y-72124763D01*
X232338500Y-72046443D01*
X232338499Y-71763000D01*
X232356951Y-71718452D01*
X232401499Y-71700000D01*
X232673980Y-71700000D01*
X232718528Y-71718452D01*
G37*
%TD.AperFunction*%
%TD*%
%TA.AperFunction,Conductor*%
%TO.N,/5V0*%
G36*
X213208188Y-78701078D02*
G01*
X213312963Y-78714872D01*
X213344735Y-78723385D01*
X213434674Y-78760639D01*
X213463160Y-78777086D01*
X213540393Y-78836349D01*
X213563651Y-78859607D01*
X213622914Y-78936840D01*
X213639361Y-78965326D01*
X213676615Y-79055265D01*
X213685128Y-79087037D01*
X213698922Y-79191812D01*
X213700000Y-79208258D01*
X213700000Y-79791742D01*
X213698922Y-79808188D01*
X213685128Y-79912963D01*
X213676615Y-79944735D01*
X213639361Y-80034674D01*
X213622914Y-80063160D01*
X213563651Y-80140393D01*
X213540393Y-80163651D01*
X213463160Y-80222914D01*
X213434674Y-80239361D01*
X213344735Y-80276615D01*
X213312963Y-80285128D01*
X213208188Y-80298922D01*
X213191742Y-80300000D01*
X208108258Y-80300000D01*
X208091812Y-80298922D01*
X207987037Y-80285128D01*
X207955265Y-80276615D01*
X207865326Y-80239361D01*
X207836840Y-80222914D01*
X207759607Y-80163651D01*
X207736349Y-80140393D01*
X207677086Y-80063160D01*
X207660639Y-80034674D01*
X207623385Y-79944735D01*
X207614872Y-79912963D01*
X207601078Y-79808188D01*
X207600000Y-79791742D01*
X207600000Y-79208258D01*
X207601078Y-79191812D01*
X207614872Y-79087037D01*
X207623385Y-79055265D01*
X207660639Y-78965326D01*
X207677086Y-78936840D01*
X207736349Y-78859607D01*
X207759607Y-78836349D01*
X207836840Y-78777086D01*
X207865326Y-78760639D01*
X207955265Y-78723385D01*
X207987037Y-78714872D01*
X208091812Y-78701078D01*
X208108258Y-78700000D01*
X213191742Y-78700000D01*
X213208188Y-78701078D01*
G37*
%TD.AperFunction*%
%TD*%
%TA.AperFunction,Conductor*%
%TO.N,VSS*%
G36*
X209708188Y-80701078D02*
G01*
X209812963Y-80714872D01*
X209844735Y-80723385D01*
X209934674Y-80760639D01*
X209963160Y-80777086D01*
X210040393Y-80836349D01*
X210063651Y-80859607D01*
X210122914Y-80936840D01*
X210139361Y-80965326D01*
X210176615Y-81055265D01*
X210185128Y-81087037D01*
X210198922Y-81191812D01*
X210200000Y-81208258D01*
X210200000Y-81791742D01*
X210198922Y-81808188D01*
X210185128Y-81912963D01*
X210176615Y-81944735D01*
X210139361Y-82034674D01*
X210122914Y-82063160D01*
X210063651Y-82140393D01*
X210040393Y-82163651D01*
X209963160Y-82222914D01*
X209934674Y-82239361D01*
X209844735Y-82276615D01*
X209812963Y-82285128D01*
X209708188Y-82298922D01*
X209691742Y-82300000D01*
X208108258Y-82300000D01*
X208091812Y-82298922D01*
X207987037Y-82285128D01*
X207955265Y-82276615D01*
X207865326Y-82239361D01*
X207836840Y-82222914D01*
X207759607Y-82163651D01*
X207736349Y-82140393D01*
X207677086Y-82063160D01*
X207660639Y-82034674D01*
X207623385Y-81944735D01*
X207614872Y-81912963D01*
X207601078Y-81808188D01*
X207600000Y-81791742D01*
X207600000Y-81208258D01*
X207601078Y-81191812D01*
X207614872Y-81087037D01*
X207623385Y-81055265D01*
X207660639Y-80965326D01*
X207677086Y-80936840D01*
X207736349Y-80859607D01*
X207759607Y-80836349D01*
X207836840Y-80777086D01*
X207865326Y-80760639D01*
X207955265Y-80723385D01*
X207987037Y-80714872D01*
X208091812Y-80701078D01*
X208108258Y-80700000D01*
X209691742Y-80700000D01*
X209708188Y-80701078D01*
G37*
%TD.AperFunction*%
%TD*%
%TA.AperFunction,Conductor*%
%TO.N,VDD*%
G36*
X213208188Y-68701078D02*
G01*
X213312963Y-68714872D01*
X213344735Y-68723385D01*
X213434674Y-68760639D01*
X213463160Y-68777086D01*
X213540393Y-68836349D01*
X213563651Y-68859607D01*
X213622914Y-68936840D01*
X213639361Y-68965326D01*
X213676615Y-69055265D01*
X213685128Y-69087037D01*
X213698922Y-69191812D01*
X213700000Y-69208258D01*
X213700000Y-69791742D01*
X213698922Y-69808188D01*
X213685128Y-69912963D01*
X213676615Y-69944735D01*
X213639361Y-70034674D01*
X213622914Y-70063160D01*
X213563651Y-70140393D01*
X213540393Y-70163651D01*
X213463160Y-70222914D01*
X213434674Y-70239361D01*
X213344735Y-70276615D01*
X213312963Y-70285128D01*
X213208188Y-70298922D01*
X213191742Y-70300000D01*
X208108258Y-70300000D01*
X208091812Y-70298922D01*
X207987037Y-70285128D01*
X207955265Y-70276615D01*
X207865326Y-70239361D01*
X207836840Y-70222914D01*
X207759607Y-70163651D01*
X207736349Y-70140393D01*
X207677086Y-70063160D01*
X207660639Y-70034674D01*
X207623385Y-69944735D01*
X207614872Y-69912963D01*
X207601078Y-69808188D01*
X207600000Y-69791742D01*
X207600000Y-69208258D01*
X207601078Y-69191812D01*
X207614872Y-69087037D01*
X207623385Y-69055265D01*
X207660639Y-68965326D01*
X207677086Y-68936840D01*
X207736349Y-68859607D01*
X207759607Y-68836349D01*
X207836840Y-68777086D01*
X207865326Y-68760639D01*
X207955265Y-68723385D01*
X207987037Y-68714872D01*
X208091812Y-68701078D01*
X208108258Y-68700000D01*
X213191742Y-68700000D01*
X213208188Y-68701078D01*
G37*
%TD.AperFunction*%
%TD*%
%TA.AperFunction,Conductor*%
%TO.N,VSS*%
G36*
X209708188Y-70701078D02*
G01*
X209812963Y-70714872D01*
X209844735Y-70723385D01*
X209934674Y-70760639D01*
X209963160Y-70777086D01*
X210040393Y-70836349D01*
X210063651Y-70859607D01*
X210122914Y-70936840D01*
X210139361Y-70965326D01*
X210176615Y-71055265D01*
X210185128Y-71087037D01*
X210198922Y-71191812D01*
X210200000Y-71208258D01*
X210200000Y-71791742D01*
X210198922Y-71808188D01*
X210185128Y-71912963D01*
X210176615Y-71944735D01*
X210139361Y-72034674D01*
X210122914Y-72063160D01*
X210063651Y-72140393D01*
X210040393Y-72163651D01*
X209963160Y-72222914D01*
X209934674Y-72239361D01*
X209844735Y-72276615D01*
X209812963Y-72285128D01*
X209708188Y-72298922D01*
X209691742Y-72300000D01*
X208108258Y-72300000D01*
X208091812Y-72298922D01*
X207987037Y-72285128D01*
X207955265Y-72276615D01*
X207865326Y-72239361D01*
X207836840Y-72222914D01*
X207759607Y-72163651D01*
X207736349Y-72140393D01*
X207677086Y-72063160D01*
X207660639Y-72034674D01*
X207623385Y-71944735D01*
X207614872Y-71912963D01*
X207601078Y-71808188D01*
X207600000Y-71791742D01*
X207600000Y-71208258D01*
X207601078Y-71191812D01*
X207614872Y-71087037D01*
X207623385Y-71055265D01*
X207660639Y-70965326D01*
X207677086Y-70936840D01*
X207736349Y-70859607D01*
X207759607Y-70836349D01*
X207836840Y-70777086D01*
X207865326Y-70760639D01*
X207955265Y-70723385D01*
X207987037Y-70714872D01*
X208091812Y-70701078D01*
X208108258Y-70700000D01*
X209691742Y-70700000D01*
X209708188Y-70701078D01*
G37*
%TD.AperFunction*%
%TD*%
%TA.AperFunction,Conductor*%
%TO.N,VS*%
G36*
X215908188Y-66701078D02*
G01*
X216012963Y-66714872D01*
X216044735Y-66723385D01*
X216134674Y-66760639D01*
X216163160Y-66777086D01*
X216240393Y-66836349D01*
X216263651Y-66859607D01*
X216322914Y-66936840D01*
X216339361Y-66965326D01*
X216376615Y-67055265D01*
X216385128Y-67087037D01*
X216398922Y-67191812D01*
X216400000Y-67208258D01*
X216400000Y-67891742D01*
X216398922Y-67908188D01*
X216385128Y-68012963D01*
X216376615Y-68044735D01*
X216339361Y-68134674D01*
X216322914Y-68163160D01*
X216263651Y-68240393D01*
X216240393Y-68263651D01*
X216163160Y-68322914D01*
X216134674Y-68339361D01*
X216044735Y-68376615D01*
X216012963Y-68385128D01*
X215908188Y-68398922D01*
X215891742Y-68400000D01*
X214208258Y-68400000D01*
X214191812Y-68398922D01*
X214087037Y-68385128D01*
X214055265Y-68376615D01*
X213965326Y-68339361D01*
X213936840Y-68322914D01*
X213859607Y-68263651D01*
X213836349Y-68240393D01*
X213777086Y-68163160D01*
X213760639Y-68134674D01*
X213723385Y-68044735D01*
X213714872Y-68012963D01*
X213701078Y-67908188D01*
X213700000Y-67891742D01*
X213700000Y-67208258D01*
X213701078Y-67191812D01*
X213714872Y-67087037D01*
X213723385Y-67055265D01*
X213760639Y-66965326D01*
X213777086Y-66936840D01*
X213836349Y-66859607D01*
X213859607Y-66836349D01*
X213936840Y-66777086D01*
X213965326Y-66760639D01*
X214055265Y-66723385D01*
X214087037Y-66714872D01*
X214191812Y-66701078D01*
X214208258Y-66700000D01*
X215891742Y-66700000D01*
X215908188Y-66701078D01*
G37*
%TD.AperFunction*%
%TD*%
M02*
