%TF.GenerationSoftware,KiCad,Pcbnew,(6.0.10)*%
%TF.CreationDate,2024-02-10T14:34:54+01:00*%
%TF.ProjectId,TMC6300_HAL,544d4336-3330-4305-9f48-414c2e6b6963,rev?*%
%TF.SameCoordinates,Original*%
%TF.FileFunction,Copper,L3,Inr*%
%TF.FilePolarity,Positive*%
%FSLAX46Y46*%
G04 Gerber Fmt 4.6, Leading zero omitted, Abs format (unit mm)*
G04 Created by KiCad (PCBNEW (6.0.10)) date 2024-02-10 14:34:54*
%MOMM*%
%LPD*%
G01*
G04 APERTURE LIST*
%TA.AperFunction,ComponentPad*%
%ADD10R,1.350000X1.350000*%
%TD*%
%TA.AperFunction,ComponentPad*%
%ADD11C,1.350000*%
%TD*%
%TA.AperFunction,ComponentPad*%
%ADD12R,1.100000X1.100000*%
%TD*%
%TA.AperFunction,ComponentPad*%
%ADD13C,1.100000*%
%TD*%
%TA.AperFunction,ViaPad*%
%ADD14C,0.450000*%
%TD*%
%TA.AperFunction,ViaPad*%
%ADD15C,0.800000*%
%TD*%
G04 APERTURE END LIST*
D10*
%TO.N,/5V0*%
%TO.C,J101*%
X240050000Y-62500000D03*
D11*
%TO.N,VSS*%
X240050000Y-64500000D03*
%TO.N,/RAW_HALL_A*%
X240050000Y-66500000D03*
%TO.N,/RAW_HALL_B*%
X240050000Y-68500000D03*
%TO.N,/RAW_HALL_C*%
X240050000Y-70500000D03*
%TO.N,/BLDC_W*%
X240050000Y-72500000D03*
%TO.N,/BLDC_V*%
X240050000Y-74500000D03*
%TO.N,/BLDC_U*%
X240050000Y-76500000D03*
%TD*%
D12*
%TO.N,VS*%
%TO.C,J103*%
X210000000Y-76500000D03*
D13*
%TO.N,VSS*%
X210000000Y-74500000D03*
%TD*%
D11*
%TO.N,VSS*%
%TO.C,J102*%
X210000000Y-62500000D03*
%TO.N,/CMD_RX*%
X210000000Y-64500000D03*
D10*
%TO.N,/CMD_TX*%
X210000000Y-66500000D03*
%TD*%
D14*
%TO.N,VSS*%
X219700000Y-78600000D03*
%TO.N,Net-(IC101-Pad28)*%
X224000000Y-63400000D03*
%TO.N,Net-(IC101-Pad29)*%
X223400000Y-63400000D03*
%TO.N,Net-(IC101-Pad30)*%
X222800000Y-63400000D03*
%TO.N,VSS*%
X222300000Y-58050000D03*
X215750000Y-58050000D03*
%TO.N,Net-(IC101-Pad28)*%
X221510000Y-61790000D03*
%TO.N,Net-(IC101-Pad29)*%
X219510000Y-61790000D03*
%TO.N,Net-(IC101-Pad30)*%
X217510000Y-61790000D03*
%TO.N,VS_ADC*%
X220800000Y-74300000D03*
X219600000Y-69800000D03*
%TO.N,VDDA*%
X219900000Y-69000000D03*
%TO.N,VDD*%
X219500000Y-73500000D03*
%TO.N,GND*%
X221500000Y-74000000D03*
%TO.N,VDDA*%
X219900000Y-72100000D03*
%TO.N,VDD*%
X215300000Y-65700000D03*
X215300000Y-63800000D03*
%TO.N,VSS*%
X220700000Y-76100000D03*
%TO.N,VDD*%
X216400000Y-74000000D03*
D15*
%TO.N,VSS*%
X233600000Y-64300000D03*
%TO.N,/5V0*%
X234600000Y-61800000D03*
D14*
X216900000Y-77700000D03*
D15*
%TO.N,VSS*%
X215550000Y-70300000D03*
D14*
%TO.N,VDD*%
X216900000Y-67800000D03*
D15*
%TO.N,VS*%
X214100000Y-67100000D03*
X214100000Y-68000000D03*
D14*
X218600000Y-71500000D03*
X218600000Y-81500000D03*
D15*
%TO.N,VSS*%
X215500000Y-80300000D03*
X217800000Y-75500000D03*
%TO.N,/5V0*%
X208000000Y-79100000D03*
X208000000Y-79900000D03*
%TO.N,VSS*%
X208000000Y-81900000D03*
X208000000Y-81100000D03*
%TO.N,VDD*%
X208000000Y-69100000D03*
%TO.N,VSS*%
X208000000Y-71100000D03*
X208000000Y-71900000D03*
%TO.N,VDD*%
X208000000Y-69900000D03*
D14*
X218700000Y-63700000D03*
X235000000Y-65500000D03*
X225080000Y-77200000D03*
X235000000Y-69500000D03*
X219950000Y-67750000D03*
X231110000Y-59500000D03*
X227800000Y-70750000D03*
X232500000Y-63770000D03*
D15*
%TO.N,/BLDC_ISENSE*%
X222300000Y-81800000D03*
D14*
%TO.N,/BLDC_WL*%
X224950000Y-73850000D03*
X223650000Y-72150000D03*
%TO.N,/BLDC_VL*%
X229000000Y-75300000D03*
%TO.N,/BLDC_UL*%
X225200000Y-73200000D03*
%TO.N,VSS*%
X236600000Y-76500000D03*
D15*
X236700000Y-82700000D03*
D14*
X233000000Y-71500000D03*
X236000000Y-61200000D03*
X219700000Y-65500000D03*
X236600000Y-74500000D03*
X220300000Y-63700000D03*
X226600000Y-82800000D03*
X229000000Y-71300000D03*
X226910000Y-59500000D03*
X227810000Y-71710000D03*
X221900000Y-67250000D03*
D15*
X234700000Y-82700000D03*
D14*
X233000000Y-67500000D03*
X223000000Y-77900000D03*
X236600000Y-72500000D03*
D15*
X240700000Y-82700000D03*
D14*
X224000000Y-78700000D03*
X232500000Y-61230000D03*
X236000000Y-69500000D03*
X224000000Y-75000000D03*
X231750000Y-75000000D03*
X230750000Y-75000000D03*
X221800000Y-63400000D03*
D15*
X232700000Y-82700000D03*
D14*
X236000000Y-65500000D03*
X224900000Y-67250000D03*
X226000000Y-76800000D03*
X227000000Y-74700000D03*
X221900000Y-70250000D03*
X231750000Y-74000000D03*
D15*
X238700000Y-82700000D03*
D14*
X229300000Y-69900000D03*
X230750000Y-74000000D03*
X224120000Y-77200000D03*
X227000000Y-72700000D03*
X224900000Y-70250000D03*
%TO.N,/BLDC_WH*%
X228000000Y-70150000D03*
%TO.N,/BLDC_VH*%
X230300000Y-70600000D03*
%TO.N,/BLDC_UH*%
X230700000Y-69200000D03*
%TO.N,SYS_SWDIO*%
X227900000Y-66600000D03*
X227900000Y-65400000D03*
%TO.N,SYS_SWCLK*%
X227000000Y-65400000D03*
X227000000Y-66600000D03*
%TO.N,Net-(IC201-Pad16)*%
X233400000Y-75500000D03*
X233400000Y-73500000D03*
D15*
X229500000Y-78000000D03*
%TO.N,VS*%
X232700000Y-78700000D03*
X236700000Y-78700000D03*
X238700000Y-78700000D03*
X240700000Y-78700000D03*
D14*
X231900000Y-70300000D03*
D15*
X233800000Y-74200000D03*
X234700000Y-78700000D03*
%TD*%
%TA.AperFunction,Conductor*%
%TO.N,VDD*%
G36*
X213991094Y-53130647D02*
G01*
X214000000Y-53133033D01*
X214008012Y-53130886D01*
X214016308Y-53130886D01*
X214016308Y-53131454D01*
X214023779Y-53130842D01*
X214130001Y-53141304D01*
X214163850Y-53144638D01*
X214175960Y-53147048D01*
X214235365Y-53165068D01*
X214327571Y-53193038D01*
X214338981Y-53197764D01*
X214478705Y-53272448D01*
X214488974Y-53279309D01*
X214611447Y-53379820D01*
X214620180Y-53388553D01*
X214720691Y-53511026D01*
X214727552Y-53521295D01*
X214802236Y-53661019D01*
X214806962Y-53672429D01*
X214852952Y-53824038D01*
X214855362Y-53836151D01*
X214869158Y-53976221D01*
X214868546Y-53983692D01*
X214869114Y-53983692D01*
X214869114Y-53991988D01*
X214866967Y-54000000D01*
X214869114Y-54008011D01*
X214869353Y-54008903D01*
X214871500Y-54025210D01*
X214871500Y-55974790D01*
X214869353Y-55991094D01*
X214866967Y-56000000D01*
X214867297Y-56001230D01*
X214884399Y-56196711D01*
X214885112Y-56199372D01*
X214934794Y-56384789D01*
X214934796Y-56384795D01*
X214935506Y-56387444D01*
X214936666Y-56389932D01*
X214936668Y-56389937D01*
X214954229Y-56427596D01*
X215018957Y-56566406D01*
X215020530Y-56568652D01*
X215020532Y-56568656D01*
X215130640Y-56725907D01*
X215130643Y-56725911D01*
X215132216Y-56728157D01*
X215271843Y-56867784D01*
X215274089Y-56869357D01*
X215274093Y-56869360D01*
X215431345Y-56979468D01*
X215431349Y-56979470D01*
X215433595Y-56981043D01*
X215612556Y-57064494D01*
X215615205Y-57065204D01*
X215615211Y-57065206D01*
X215800628Y-57114888D01*
X215803289Y-57115601D01*
X215998770Y-57132703D01*
X216000000Y-57133033D01*
X216008016Y-57130885D01*
X216008017Y-57130885D01*
X216008313Y-57130805D01*
X216008906Y-57130647D01*
X216025210Y-57128500D01*
X233974790Y-57128500D01*
X233991094Y-57130647D01*
X233991687Y-57130805D01*
X233991983Y-57130885D01*
X233991984Y-57130885D01*
X234000000Y-57133033D01*
X234001230Y-57132703D01*
X234196711Y-57115601D01*
X234199372Y-57114888D01*
X234384789Y-57065206D01*
X234384795Y-57065204D01*
X234387444Y-57064494D01*
X234389932Y-57063334D01*
X234389937Y-57063332D01*
X234435480Y-57042095D01*
X237145028Y-57042095D01*
X237145245Y-57044368D01*
X237145245Y-57044373D01*
X237153673Y-57132703D01*
X237170534Y-57309431D01*
X237171075Y-57311640D01*
X237214075Y-57487368D01*
X237234364Y-57570285D01*
X237335182Y-57819192D01*
X237336332Y-57821157D01*
X237336334Y-57821160D01*
X237467457Y-58045100D01*
X237470875Y-58050938D01*
X237638601Y-58260669D01*
X237834846Y-58443991D01*
X238055499Y-58597064D01*
X238295938Y-58716680D01*
X238298111Y-58717392D01*
X238298115Y-58717394D01*
X238484854Y-58778610D01*
X238551126Y-58800335D01*
X238652329Y-58817907D01*
X238813820Y-58845947D01*
X238813826Y-58845948D01*
X238815717Y-58846276D01*
X238817632Y-58846371D01*
X238817638Y-58846372D01*
X238899801Y-58850462D01*
X238899806Y-58850462D01*
X238900567Y-58850500D01*
X239068223Y-58850500D01*
X239267846Y-58836016D01*
X239530080Y-58778120D01*
X239532205Y-58777315D01*
X239532208Y-58777314D01*
X239779079Y-58683783D01*
X239779082Y-58683782D01*
X239781211Y-58682975D01*
X239783208Y-58681866D01*
X240013980Y-58553683D01*
X240013983Y-58553681D01*
X240015976Y-58552574D01*
X240229458Y-58389650D01*
X240231053Y-58388019D01*
X240231058Y-58388014D01*
X240415584Y-58199252D01*
X240415586Y-58199250D01*
X240417185Y-58197614D01*
X240575225Y-57980491D01*
X240700265Y-57742828D01*
X240761196Y-57570285D01*
X240788930Y-57491751D01*
X240788932Y-57491744D01*
X240789688Y-57489603D01*
X240824765Y-57311640D01*
X240841178Y-57228365D01*
X240841178Y-57228364D01*
X240841620Y-57226122D01*
X240846306Y-57131999D01*
X240849724Y-57063332D01*
X240854972Y-56957905D01*
X240829466Y-56690569D01*
X240788855Y-56524603D01*
X240766179Y-56431933D01*
X240766178Y-56431930D01*
X240765636Y-56429715D01*
X240748515Y-56387444D01*
X240695749Y-56257172D01*
X240664818Y-56180808D01*
X240658502Y-56170021D01*
X240530276Y-55951027D01*
X240530273Y-55951023D01*
X240529125Y-55949062D01*
X240361399Y-55739331D01*
X240165154Y-55556009D01*
X239944501Y-55402936D01*
X239704062Y-55283320D01*
X239701889Y-55282608D01*
X239701885Y-55282606D01*
X239451052Y-55200379D01*
X239448874Y-55199665D01*
X239347671Y-55182093D01*
X239186180Y-55154053D01*
X239186174Y-55154052D01*
X239184283Y-55153724D01*
X239182368Y-55153629D01*
X239182362Y-55153628D01*
X239100199Y-55149538D01*
X239100194Y-55149538D01*
X239099433Y-55149500D01*
X238931777Y-55149500D01*
X238732154Y-55163984D01*
X238469920Y-55221880D01*
X238467795Y-55222685D01*
X238467792Y-55222686D01*
X238220921Y-55316217D01*
X238220918Y-55316218D01*
X238218789Y-55317025D01*
X238216795Y-55318133D01*
X238216792Y-55318134D01*
X237986020Y-55446317D01*
X237986017Y-55446319D01*
X237984024Y-55447426D01*
X237770542Y-55610350D01*
X237768947Y-55611981D01*
X237768942Y-55611986D01*
X237645975Y-55737776D01*
X237582815Y-55802386D01*
X237424775Y-56019509D01*
X237299735Y-56257172D01*
X237272778Y-56333509D01*
X237211070Y-56508249D01*
X237211068Y-56508256D01*
X237210312Y-56510397D01*
X237209873Y-56512626D01*
X237209871Y-56512632D01*
X237167009Y-56730098D01*
X237158380Y-56773878D01*
X237145028Y-57042095D01*
X234435480Y-57042095D01*
X234563914Y-56982205D01*
X234566406Y-56981043D01*
X234568652Y-56979470D01*
X234568656Y-56979468D01*
X234725907Y-56869360D01*
X234725911Y-56869357D01*
X234728157Y-56867784D01*
X234867784Y-56728157D01*
X234869357Y-56725911D01*
X234869360Y-56725907D01*
X234979468Y-56568656D01*
X234979470Y-56568652D01*
X234981043Y-56566406D01*
X235045771Y-56427596D01*
X235063332Y-56389937D01*
X235063334Y-56389932D01*
X235064494Y-56387444D01*
X235065204Y-56384795D01*
X235065206Y-56384789D01*
X235114888Y-56199372D01*
X235115601Y-56196711D01*
X235132703Y-56001230D01*
X235133033Y-56000000D01*
X235130647Y-55991094D01*
X235128500Y-55974790D01*
X235128500Y-54025210D01*
X235130647Y-54008903D01*
X235130886Y-54008011D01*
X235133033Y-54000000D01*
X235130886Y-53991988D01*
X235130886Y-53983692D01*
X235131454Y-53983692D01*
X235130842Y-53976221D01*
X235144638Y-53836151D01*
X235147048Y-53824038D01*
X235193038Y-53672429D01*
X235197764Y-53661019D01*
X235272448Y-53521295D01*
X235279309Y-53511026D01*
X235379820Y-53388553D01*
X235388553Y-53379820D01*
X235511026Y-53279309D01*
X235521295Y-53272448D01*
X235661019Y-53197764D01*
X235672429Y-53193038D01*
X235764635Y-53165068D01*
X235824040Y-53147048D01*
X235836150Y-53144638D01*
X235869999Y-53141304D01*
X235976221Y-53130842D01*
X235983692Y-53131454D01*
X235983692Y-53130886D01*
X235991988Y-53130886D01*
X236000000Y-53133033D01*
X236008906Y-53130647D01*
X236025210Y-53128500D01*
X241974790Y-53128500D01*
X241991094Y-53130647D01*
X242000000Y-53133033D01*
X242008012Y-53130886D01*
X242016308Y-53130886D01*
X242016308Y-53131454D01*
X242023779Y-53130842D01*
X242130001Y-53141304D01*
X242163850Y-53144638D01*
X242175960Y-53147048D01*
X242235365Y-53165068D01*
X242327571Y-53193038D01*
X242338981Y-53197764D01*
X242478705Y-53272448D01*
X242488974Y-53279309D01*
X242611447Y-53379820D01*
X242620180Y-53388553D01*
X242720691Y-53511026D01*
X242727552Y-53521295D01*
X242802236Y-53661019D01*
X242806962Y-53672429D01*
X242852952Y-53824038D01*
X242855362Y-53836151D01*
X242869158Y-53976221D01*
X242868546Y-53983692D01*
X242869114Y-53983692D01*
X242869114Y-53991988D01*
X242866967Y-54000000D01*
X242869114Y-54008011D01*
X242869353Y-54008903D01*
X242871500Y-54025210D01*
X242871500Y-82974790D01*
X242869353Y-82991094D01*
X242866967Y-83000000D01*
X242869114Y-83008012D01*
X242869114Y-83016308D01*
X242868546Y-83016308D01*
X242869158Y-83023779D01*
X242855362Y-83163849D01*
X242852952Y-83175960D01*
X242840978Y-83215435D01*
X242806962Y-83327571D01*
X242802236Y-83338981D01*
X242727552Y-83478705D01*
X242720691Y-83488974D01*
X242620180Y-83611447D01*
X242611447Y-83620180D01*
X242488974Y-83720691D01*
X242478705Y-83727552D01*
X242338981Y-83802236D01*
X242327571Y-83806962D01*
X242235365Y-83834932D01*
X242175960Y-83852952D01*
X242163850Y-83855362D01*
X242130001Y-83858696D01*
X242023779Y-83869158D01*
X242016308Y-83868546D01*
X242016308Y-83869114D01*
X242008012Y-83869114D01*
X242000000Y-83866967D01*
X241991094Y-83869353D01*
X241974790Y-83871500D01*
X208025210Y-83871500D01*
X208008906Y-83869353D01*
X208000000Y-83866967D01*
X207991988Y-83869114D01*
X207983692Y-83869114D01*
X207983692Y-83868546D01*
X207976221Y-83869158D01*
X207869999Y-83858696D01*
X207836150Y-83855362D01*
X207824040Y-83852952D01*
X207764635Y-83834932D01*
X207672429Y-83806962D01*
X207661019Y-83802236D01*
X207521295Y-83727552D01*
X207511026Y-83720691D01*
X207388553Y-83620180D01*
X207379820Y-83611447D01*
X207279309Y-83488974D01*
X207272448Y-83478705D01*
X207197764Y-83338981D01*
X207193038Y-83327571D01*
X207159022Y-83215435D01*
X207147048Y-83175960D01*
X207144638Y-83163849D01*
X207130842Y-83023779D01*
X207131454Y-83016308D01*
X207130886Y-83016308D01*
X207130886Y-83008012D01*
X207133033Y-83000000D01*
X207130647Y-82991094D01*
X207128500Y-82974790D01*
X207128500Y-82800000D01*
X226242094Y-82800000D01*
X226259611Y-82910599D01*
X226310448Y-83010372D01*
X226389628Y-83089552D01*
X226489401Y-83140389D01*
X226600000Y-83157906D01*
X226710599Y-83140389D01*
X226810372Y-83089552D01*
X226889552Y-83010372D01*
X226940389Y-82910599D01*
X226957906Y-82800000D01*
X226942068Y-82700000D01*
X232166940Y-82700000D01*
X232167479Y-82704094D01*
X232180106Y-82800000D01*
X232185104Y-82837966D01*
X232238356Y-82966530D01*
X232240867Y-82969803D01*
X232240868Y-82969804D01*
X232273531Y-83012370D01*
X232323070Y-83076930D01*
X232326349Y-83079446D01*
X232428599Y-83157906D01*
X232433470Y-83161644D01*
X232562034Y-83214896D01*
X232566126Y-83215435D01*
X232566127Y-83215435D01*
X232695906Y-83232521D01*
X232700000Y-83233060D01*
X232704094Y-83232521D01*
X232833873Y-83215435D01*
X232833874Y-83215435D01*
X232837966Y-83214896D01*
X232966530Y-83161644D01*
X232971402Y-83157906D01*
X233073651Y-83079446D01*
X233076930Y-83076930D01*
X233126469Y-83012370D01*
X233159132Y-82969804D01*
X233159133Y-82969803D01*
X233161644Y-82966530D01*
X233214896Y-82837966D01*
X233219895Y-82800000D01*
X233232521Y-82704094D01*
X233233060Y-82700000D01*
X234166940Y-82700000D01*
X234167479Y-82704094D01*
X234180106Y-82800000D01*
X234185104Y-82837966D01*
X234238356Y-82966530D01*
X234240867Y-82969803D01*
X234240868Y-82969804D01*
X234273531Y-83012370D01*
X234323070Y-83076930D01*
X234326349Y-83079446D01*
X234428599Y-83157906D01*
X234433470Y-83161644D01*
X234562034Y-83214896D01*
X234566126Y-83215435D01*
X234566127Y-83215435D01*
X234695906Y-83232521D01*
X234700000Y-83233060D01*
X234704094Y-83232521D01*
X234833873Y-83215435D01*
X234833874Y-83215435D01*
X234837966Y-83214896D01*
X234966530Y-83161644D01*
X234971402Y-83157906D01*
X235073651Y-83079446D01*
X235076930Y-83076930D01*
X235126469Y-83012370D01*
X235159132Y-82969804D01*
X235159133Y-82969803D01*
X235161644Y-82966530D01*
X235214896Y-82837966D01*
X235219895Y-82800000D01*
X235232521Y-82704094D01*
X235233060Y-82700000D01*
X236166940Y-82700000D01*
X236167479Y-82704094D01*
X236180106Y-82800000D01*
X236185104Y-82837966D01*
X236238356Y-82966530D01*
X236240867Y-82969803D01*
X236240868Y-82969804D01*
X236273531Y-83012370D01*
X236323070Y-83076930D01*
X236326349Y-83079446D01*
X236428599Y-83157906D01*
X236433470Y-83161644D01*
X236562034Y-83214896D01*
X236566126Y-83215435D01*
X236566127Y-83215435D01*
X236695906Y-83232521D01*
X236700000Y-83233060D01*
X236704094Y-83232521D01*
X236833873Y-83215435D01*
X236833874Y-83215435D01*
X236837966Y-83214896D01*
X236966530Y-83161644D01*
X236971402Y-83157906D01*
X237073651Y-83079446D01*
X237076930Y-83076930D01*
X237126469Y-83012370D01*
X237159132Y-82969804D01*
X237159133Y-82969803D01*
X237161644Y-82966530D01*
X237214896Y-82837966D01*
X237219895Y-82800000D01*
X237232521Y-82704094D01*
X237233060Y-82700000D01*
X238166940Y-82700000D01*
X238167479Y-82704094D01*
X238180106Y-82800000D01*
X238185104Y-82837966D01*
X238238356Y-82966530D01*
X238240867Y-82969803D01*
X238240868Y-82969804D01*
X238273531Y-83012370D01*
X238323070Y-83076930D01*
X238326349Y-83079446D01*
X238428599Y-83157906D01*
X238433470Y-83161644D01*
X238562034Y-83214896D01*
X238566126Y-83215435D01*
X238566127Y-83215435D01*
X238695906Y-83232521D01*
X238700000Y-83233060D01*
X238704094Y-83232521D01*
X238833873Y-83215435D01*
X238833874Y-83215435D01*
X238837966Y-83214896D01*
X238966530Y-83161644D01*
X238971402Y-83157906D01*
X239073651Y-83079446D01*
X239076930Y-83076930D01*
X239126469Y-83012370D01*
X239159132Y-82969804D01*
X239159133Y-82969803D01*
X239161644Y-82966530D01*
X239214896Y-82837966D01*
X239219895Y-82800000D01*
X239232521Y-82704094D01*
X239233060Y-82700000D01*
X240166940Y-82700000D01*
X240167479Y-82704094D01*
X240180106Y-82800000D01*
X240185104Y-82837966D01*
X240238356Y-82966530D01*
X240240867Y-82969803D01*
X240240868Y-82969804D01*
X240273531Y-83012370D01*
X240323070Y-83076930D01*
X240326349Y-83079446D01*
X240428599Y-83157906D01*
X240433470Y-83161644D01*
X240562034Y-83214896D01*
X240566126Y-83215435D01*
X240566127Y-83215435D01*
X240695906Y-83232521D01*
X240700000Y-83233060D01*
X240704094Y-83232521D01*
X240833873Y-83215435D01*
X240833874Y-83215435D01*
X240837966Y-83214896D01*
X240966530Y-83161644D01*
X240971402Y-83157906D01*
X241073651Y-83079446D01*
X241076930Y-83076930D01*
X241126469Y-83012370D01*
X241159132Y-82969804D01*
X241159133Y-82969803D01*
X241161644Y-82966530D01*
X241214896Y-82837966D01*
X241219895Y-82800000D01*
X241232521Y-82704094D01*
X241233060Y-82700000D01*
X241214896Y-82562034D01*
X241161644Y-82433470D01*
X241147392Y-82414896D01*
X241079446Y-82326349D01*
X241076930Y-82323070D01*
X240996879Y-82261644D01*
X240969804Y-82240868D01*
X240969803Y-82240867D01*
X240966530Y-82238356D01*
X240837966Y-82185104D01*
X240833874Y-82184565D01*
X240833873Y-82184565D01*
X240704094Y-82167479D01*
X240700000Y-82166940D01*
X240695906Y-82167479D01*
X240566127Y-82184565D01*
X240566126Y-82184565D01*
X240562034Y-82185104D01*
X240433470Y-82238356D01*
X240430197Y-82240867D01*
X240430196Y-82240868D01*
X240403121Y-82261644D01*
X240323070Y-82323070D01*
X240320554Y-82326349D01*
X240252609Y-82414896D01*
X240238356Y-82433470D01*
X240185104Y-82562034D01*
X240166940Y-82700000D01*
X239233060Y-82700000D01*
X239214896Y-82562034D01*
X239161644Y-82433470D01*
X239147392Y-82414896D01*
X239079446Y-82326349D01*
X239076930Y-82323070D01*
X238996879Y-82261644D01*
X238969804Y-82240868D01*
X238969803Y-82240867D01*
X238966530Y-82238356D01*
X238837966Y-82185104D01*
X238833874Y-82184565D01*
X238833873Y-82184565D01*
X238704094Y-82167479D01*
X238700000Y-82166940D01*
X238695906Y-82167479D01*
X238566127Y-82184565D01*
X238566126Y-82184565D01*
X238562034Y-82185104D01*
X238433470Y-82238356D01*
X238430197Y-82240867D01*
X238430196Y-82240868D01*
X238403121Y-82261644D01*
X238323070Y-82323070D01*
X238320554Y-82326349D01*
X238252609Y-82414896D01*
X238238356Y-82433470D01*
X238185104Y-82562034D01*
X238166940Y-82700000D01*
X237233060Y-82700000D01*
X237214896Y-82562034D01*
X237161644Y-82433470D01*
X237147392Y-82414896D01*
X237079446Y-82326349D01*
X237076930Y-82323070D01*
X236996879Y-82261644D01*
X236969804Y-82240868D01*
X236969803Y-82240867D01*
X236966530Y-82238356D01*
X236837966Y-82185104D01*
X236833874Y-82184565D01*
X236833873Y-82184565D01*
X236704094Y-82167479D01*
X236700000Y-82166940D01*
X236695906Y-82167479D01*
X236566127Y-82184565D01*
X236566126Y-82184565D01*
X236562034Y-82185104D01*
X236433470Y-82238356D01*
X236430197Y-82240867D01*
X236430196Y-82240868D01*
X236403121Y-82261644D01*
X236323070Y-82323070D01*
X236320554Y-82326349D01*
X236252609Y-82414896D01*
X236238356Y-82433470D01*
X236185104Y-82562034D01*
X236166940Y-82700000D01*
X235233060Y-82700000D01*
X235214896Y-82562034D01*
X235161644Y-82433470D01*
X235147392Y-82414896D01*
X235079446Y-82326349D01*
X235076930Y-82323070D01*
X234996879Y-82261644D01*
X234969804Y-82240868D01*
X234969803Y-82240867D01*
X234966530Y-82238356D01*
X234837966Y-82185104D01*
X234833874Y-82184565D01*
X234833873Y-82184565D01*
X234704094Y-82167479D01*
X234700000Y-82166940D01*
X234695906Y-82167479D01*
X234566127Y-82184565D01*
X234566126Y-82184565D01*
X234562034Y-82185104D01*
X234433470Y-82238356D01*
X234430197Y-82240867D01*
X234430196Y-82240868D01*
X234403121Y-82261644D01*
X234323070Y-82323070D01*
X234320554Y-82326349D01*
X234252609Y-82414896D01*
X234238356Y-82433470D01*
X234185104Y-82562034D01*
X234166940Y-82700000D01*
X233233060Y-82700000D01*
X233214896Y-82562034D01*
X233161644Y-82433470D01*
X233147392Y-82414896D01*
X233079446Y-82326349D01*
X233076930Y-82323070D01*
X232996879Y-82261644D01*
X232969804Y-82240868D01*
X232969803Y-82240867D01*
X232966530Y-82238356D01*
X232837966Y-82185104D01*
X232833874Y-82184565D01*
X232833873Y-82184565D01*
X232704094Y-82167479D01*
X232700000Y-82166940D01*
X232695906Y-82167479D01*
X232566127Y-82184565D01*
X232566126Y-82184565D01*
X232562034Y-82185104D01*
X232433470Y-82238356D01*
X232430197Y-82240867D01*
X232430196Y-82240868D01*
X232403121Y-82261644D01*
X232323070Y-82323070D01*
X232320554Y-82326349D01*
X232252609Y-82414896D01*
X232238356Y-82433470D01*
X232185104Y-82562034D01*
X232166940Y-82700000D01*
X226942068Y-82700000D01*
X226940389Y-82689401D01*
X226889552Y-82589628D01*
X226810372Y-82510448D01*
X226710599Y-82459611D01*
X226600000Y-82442094D01*
X226489401Y-82459611D01*
X226389628Y-82510448D01*
X226310448Y-82589628D01*
X226259611Y-82689401D01*
X226242094Y-82800000D01*
X207128500Y-82800000D01*
X207128500Y-81900000D01*
X207466940Y-81900000D01*
X207485104Y-82037966D01*
X207538356Y-82166530D01*
X207540867Y-82169803D01*
X207540868Y-82169804D01*
X207553820Y-82186683D01*
X207623070Y-82276930D01*
X207626349Y-82279446D01*
X207695517Y-82332521D01*
X207733470Y-82361644D01*
X207862034Y-82414896D01*
X207866126Y-82415435D01*
X207866127Y-82415435D01*
X207995906Y-82432521D01*
X208000000Y-82433060D01*
X208004094Y-82432521D01*
X208133873Y-82415435D01*
X208133874Y-82415435D01*
X208137966Y-82414896D01*
X208266530Y-82361644D01*
X208304484Y-82332521D01*
X208373651Y-82279446D01*
X208376930Y-82276930D01*
X208446180Y-82186683D01*
X208459132Y-82169804D01*
X208459133Y-82169803D01*
X208461644Y-82166530D01*
X208514896Y-82037966D01*
X208533060Y-81900000D01*
X208524915Y-81838135D01*
X208515435Y-81766127D01*
X208515435Y-81766126D01*
X208514896Y-81762034D01*
X208461644Y-81633470D01*
X208388656Y-81538351D01*
X208378379Y-81500000D01*
X218242094Y-81500000D01*
X218259611Y-81610599D01*
X218310448Y-81710372D01*
X218389628Y-81789552D01*
X218489401Y-81840389D01*
X218600000Y-81857906D01*
X218710599Y-81840389D01*
X218789867Y-81800000D01*
X221766940Y-81800000D01*
X221767479Y-81804094D01*
X221780645Y-81904094D01*
X221785104Y-81937966D01*
X221838356Y-82066530D01*
X221923070Y-82176930D01*
X221935780Y-82186683D01*
X222006395Y-82240868D01*
X222033470Y-82261644D01*
X222162034Y-82314896D01*
X222166126Y-82315435D01*
X222166127Y-82315435D01*
X222295906Y-82332521D01*
X222300000Y-82333060D01*
X222304094Y-82332521D01*
X222433873Y-82315435D01*
X222433874Y-82315435D01*
X222437966Y-82314896D01*
X222566530Y-82261644D01*
X222593606Y-82240868D01*
X222664220Y-82186683D01*
X222676930Y-82176930D01*
X222761644Y-82066530D01*
X222814896Y-81937966D01*
X222819356Y-81904094D01*
X222832521Y-81804094D01*
X222833060Y-81800000D01*
X222814896Y-81662034D01*
X222761644Y-81533470D01*
X222729652Y-81491777D01*
X222679446Y-81426349D01*
X222676930Y-81423070D01*
X222603247Y-81366530D01*
X222569804Y-81340868D01*
X222569803Y-81340867D01*
X222566530Y-81338356D01*
X222437966Y-81285104D01*
X222433874Y-81284565D01*
X222433873Y-81284565D01*
X222304094Y-81267479D01*
X222300000Y-81266940D01*
X222295906Y-81267479D01*
X222166127Y-81284565D01*
X222166126Y-81284565D01*
X222162034Y-81285104D01*
X222033470Y-81338356D01*
X222030197Y-81340867D01*
X222030196Y-81340868D01*
X221996753Y-81366530D01*
X221923070Y-81423070D01*
X221920554Y-81426349D01*
X221870349Y-81491777D01*
X221838356Y-81533470D01*
X221785104Y-81662034D01*
X221766940Y-81800000D01*
X218789867Y-81800000D01*
X218810372Y-81789552D01*
X218889552Y-81710372D01*
X218940389Y-81610599D01*
X218957906Y-81500000D01*
X218940389Y-81389401D01*
X218889552Y-81289628D01*
X218810372Y-81210448D01*
X218710599Y-81159611D01*
X218600000Y-81142094D01*
X218489401Y-81159611D01*
X218389628Y-81210448D01*
X218310448Y-81289628D01*
X218259611Y-81389401D01*
X218242094Y-81500000D01*
X208378379Y-81500000D01*
X208376176Y-81491777D01*
X208388656Y-81461648D01*
X208415743Y-81426349D01*
X208461644Y-81366530D01*
X208514896Y-81237966D01*
X208533060Y-81100000D01*
X208514896Y-80962034D01*
X208461644Y-80833470D01*
X208447392Y-80814896D01*
X208379446Y-80726349D01*
X208376930Y-80723070D01*
X208266530Y-80638356D01*
X208137966Y-80585104D01*
X208133874Y-80584565D01*
X208133873Y-80584565D01*
X208004094Y-80567479D01*
X208000000Y-80566940D01*
X207995906Y-80567479D01*
X207866127Y-80584565D01*
X207866126Y-80584565D01*
X207862034Y-80585104D01*
X207733470Y-80638356D01*
X207623070Y-80723070D01*
X207620554Y-80726349D01*
X207552609Y-80814896D01*
X207538356Y-80833470D01*
X207485104Y-80962034D01*
X207466940Y-81100000D01*
X207485104Y-81237966D01*
X207538356Y-81366530D01*
X207584258Y-81426349D01*
X207611344Y-81461648D01*
X207623824Y-81508223D01*
X207611345Y-81538351D01*
X207538356Y-81633470D01*
X207485104Y-81762034D01*
X207484565Y-81766126D01*
X207484565Y-81766127D01*
X207475085Y-81838135D01*
X207466940Y-81900000D01*
X207128500Y-81900000D01*
X207128500Y-79900000D01*
X207466940Y-79900000D01*
X207485104Y-80037966D01*
X207538356Y-80166530D01*
X207623070Y-80276930D01*
X207733470Y-80361644D01*
X207862034Y-80414896D01*
X207866126Y-80415435D01*
X207866127Y-80415435D01*
X207995906Y-80432521D01*
X208000000Y-80433060D01*
X208004094Y-80432521D01*
X208133873Y-80415435D01*
X208133874Y-80415435D01*
X208137966Y-80414896D01*
X208266530Y-80361644D01*
X208346865Y-80300000D01*
X214966940Y-80300000D01*
X214967479Y-80304094D01*
X214975264Y-80363222D01*
X214985104Y-80437966D01*
X215038356Y-80566530D01*
X215040867Y-80569803D01*
X215040868Y-80569804D01*
X215053820Y-80586683D01*
X215123070Y-80676930D01*
X215233470Y-80761644D01*
X215362034Y-80814896D01*
X215366126Y-80815435D01*
X215366127Y-80815435D01*
X215495906Y-80832521D01*
X215500000Y-80833060D01*
X215504094Y-80832521D01*
X215633873Y-80815435D01*
X215633874Y-80815435D01*
X215637966Y-80814896D01*
X215766530Y-80761644D01*
X215876930Y-80676930D01*
X215946180Y-80586683D01*
X215959132Y-80569804D01*
X215959133Y-80569803D01*
X215961644Y-80566530D01*
X216014896Y-80437966D01*
X216024737Y-80363222D01*
X216032521Y-80304094D01*
X216033060Y-80300000D01*
X216014896Y-80162034D01*
X215961644Y-80033470D01*
X215876930Y-79923070D01*
X215766530Y-79838356D01*
X215637966Y-79785104D01*
X215633874Y-79784565D01*
X215633873Y-79784565D01*
X215504094Y-79767479D01*
X215500000Y-79766940D01*
X215495906Y-79767479D01*
X215366127Y-79784565D01*
X215366126Y-79784565D01*
X215362034Y-79785104D01*
X215233470Y-79838356D01*
X215123070Y-79923070D01*
X215038356Y-80033470D01*
X214985104Y-80162034D01*
X214966940Y-80300000D01*
X208346865Y-80300000D01*
X208376930Y-80276930D01*
X208461644Y-80166530D01*
X208514896Y-80037966D01*
X208533060Y-79900000D01*
X208524944Y-79838356D01*
X208515435Y-79766127D01*
X208515435Y-79766126D01*
X208514896Y-79762034D01*
X208461644Y-79633470D01*
X208388656Y-79538351D01*
X208376176Y-79491777D01*
X208388656Y-79461648D01*
X208459132Y-79369804D01*
X208459133Y-79369803D01*
X208461644Y-79366530D01*
X208514896Y-79237966D01*
X208524737Y-79163222D01*
X208532521Y-79104094D01*
X208533060Y-79100000D01*
X208514896Y-78962034D01*
X208461644Y-78833470D01*
X208446611Y-78813878D01*
X208379446Y-78726349D01*
X208376930Y-78723070D01*
X208266530Y-78638356D01*
X208173929Y-78600000D01*
X219342094Y-78600000D01*
X219359611Y-78710599D01*
X219410448Y-78810372D01*
X219489628Y-78889552D01*
X219589401Y-78940389D01*
X219700000Y-78957906D01*
X219810599Y-78940389D01*
X219910372Y-78889552D01*
X219989552Y-78810372D01*
X220040389Y-78710599D01*
X220042068Y-78700000D01*
X223642094Y-78700000D01*
X223659611Y-78810599D01*
X223710448Y-78910372D01*
X223789628Y-78989552D01*
X223889401Y-79040389D01*
X224000000Y-79057906D01*
X224110599Y-79040389D01*
X224210372Y-78989552D01*
X224289552Y-78910372D01*
X224340389Y-78810599D01*
X224357906Y-78700000D01*
X232166940Y-78700000D01*
X232185104Y-78837966D01*
X232238356Y-78966530D01*
X232240867Y-78969803D01*
X232240868Y-78969804D01*
X232293301Y-79038135D01*
X232323070Y-79076930D01*
X232433470Y-79161644D01*
X232562034Y-79214896D01*
X232566126Y-79215435D01*
X232566127Y-79215435D01*
X232695906Y-79232521D01*
X232700000Y-79233060D01*
X232704094Y-79232521D01*
X232833873Y-79215435D01*
X232833874Y-79215435D01*
X232837966Y-79214896D01*
X232966530Y-79161644D01*
X233076930Y-79076930D01*
X233106699Y-79038135D01*
X233159132Y-78969804D01*
X233159133Y-78969803D01*
X233161644Y-78966530D01*
X233214896Y-78837966D01*
X233233060Y-78700000D01*
X234166940Y-78700000D01*
X234185104Y-78837966D01*
X234238356Y-78966530D01*
X234240867Y-78969803D01*
X234240868Y-78969804D01*
X234293301Y-79038135D01*
X234323070Y-79076930D01*
X234433470Y-79161644D01*
X234562034Y-79214896D01*
X234566126Y-79215435D01*
X234566127Y-79215435D01*
X234695906Y-79232521D01*
X234700000Y-79233060D01*
X234704094Y-79232521D01*
X234833873Y-79215435D01*
X234833874Y-79215435D01*
X234837966Y-79214896D01*
X234966530Y-79161644D01*
X235076930Y-79076930D01*
X235106699Y-79038135D01*
X235159132Y-78969804D01*
X235159133Y-78969803D01*
X235161644Y-78966530D01*
X235214896Y-78837966D01*
X235233060Y-78700000D01*
X236166940Y-78700000D01*
X236185104Y-78837966D01*
X236238356Y-78966530D01*
X236240867Y-78969803D01*
X236240868Y-78969804D01*
X236293301Y-79038135D01*
X236323070Y-79076930D01*
X236433470Y-79161644D01*
X236562034Y-79214896D01*
X236566126Y-79215435D01*
X236566127Y-79215435D01*
X236695906Y-79232521D01*
X236700000Y-79233060D01*
X236704094Y-79232521D01*
X236833873Y-79215435D01*
X236833874Y-79215435D01*
X236837966Y-79214896D01*
X236966530Y-79161644D01*
X237076930Y-79076930D01*
X237106699Y-79038135D01*
X237159132Y-78969804D01*
X237159133Y-78969803D01*
X237161644Y-78966530D01*
X237214896Y-78837966D01*
X237233060Y-78700000D01*
X238166940Y-78700000D01*
X238185104Y-78837966D01*
X238238356Y-78966530D01*
X238240867Y-78969803D01*
X238240868Y-78969804D01*
X238293301Y-79038135D01*
X238323070Y-79076930D01*
X238433470Y-79161644D01*
X238562034Y-79214896D01*
X238566126Y-79215435D01*
X238566127Y-79215435D01*
X238695906Y-79232521D01*
X238700000Y-79233060D01*
X238704094Y-79232521D01*
X238833873Y-79215435D01*
X238833874Y-79215435D01*
X238837966Y-79214896D01*
X238966530Y-79161644D01*
X239076930Y-79076930D01*
X239106699Y-79038135D01*
X239159132Y-78969804D01*
X239159133Y-78969803D01*
X239161644Y-78966530D01*
X239214896Y-78837966D01*
X239233060Y-78700000D01*
X240166940Y-78700000D01*
X240185104Y-78837966D01*
X240238356Y-78966530D01*
X240240867Y-78969803D01*
X240240868Y-78969804D01*
X240293301Y-79038135D01*
X240323070Y-79076930D01*
X240433470Y-79161644D01*
X240562034Y-79214896D01*
X240566126Y-79215435D01*
X240566127Y-79215435D01*
X240695906Y-79232521D01*
X240700000Y-79233060D01*
X240704094Y-79232521D01*
X240833873Y-79215435D01*
X240833874Y-79215435D01*
X240837966Y-79214896D01*
X240966530Y-79161644D01*
X241076930Y-79076930D01*
X241106699Y-79038135D01*
X241159132Y-78969804D01*
X241159133Y-78969803D01*
X241161644Y-78966530D01*
X241214896Y-78837966D01*
X241233060Y-78700000D01*
X241224944Y-78638356D01*
X241215435Y-78566127D01*
X241215435Y-78566126D01*
X241214896Y-78562034D01*
X241161644Y-78433470D01*
X241143979Y-78410448D01*
X241079446Y-78326349D01*
X241076930Y-78323070D01*
X241003247Y-78266530D01*
X240969804Y-78240868D01*
X240969803Y-78240867D01*
X240966530Y-78238356D01*
X240837966Y-78185104D01*
X240833874Y-78184565D01*
X240833873Y-78184565D01*
X240704094Y-78167479D01*
X240700000Y-78166940D01*
X240695906Y-78167479D01*
X240566127Y-78184565D01*
X240566126Y-78184565D01*
X240562034Y-78185104D01*
X240433470Y-78238356D01*
X240430197Y-78240867D01*
X240430196Y-78240868D01*
X240396753Y-78266530D01*
X240323070Y-78323070D01*
X240320554Y-78326349D01*
X240256022Y-78410448D01*
X240238356Y-78433470D01*
X240185104Y-78562034D01*
X240184565Y-78566126D01*
X240184565Y-78566127D01*
X240175056Y-78638356D01*
X240166940Y-78700000D01*
X239233060Y-78700000D01*
X239224944Y-78638356D01*
X239215435Y-78566127D01*
X239215435Y-78566126D01*
X239214896Y-78562034D01*
X239161644Y-78433470D01*
X239143979Y-78410448D01*
X239079446Y-78326349D01*
X239076930Y-78323070D01*
X239003247Y-78266530D01*
X238969804Y-78240868D01*
X238969803Y-78240867D01*
X238966530Y-78238356D01*
X238837966Y-78185104D01*
X238833874Y-78184565D01*
X238833873Y-78184565D01*
X238704094Y-78167479D01*
X238700000Y-78166940D01*
X238695906Y-78167479D01*
X238566127Y-78184565D01*
X238566126Y-78184565D01*
X238562034Y-78185104D01*
X238433470Y-78238356D01*
X238430197Y-78240867D01*
X238430196Y-78240868D01*
X238396753Y-78266530D01*
X238323070Y-78323070D01*
X238320554Y-78326349D01*
X238256022Y-78410448D01*
X238238356Y-78433470D01*
X238185104Y-78562034D01*
X238184565Y-78566126D01*
X238184565Y-78566127D01*
X238175056Y-78638356D01*
X238166940Y-78700000D01*
X237233060Y-78700000D01*
X237224944Y-78638356D01*
X237215435Y-78566127D01*
X237215435Y-78566126D01*
X237214896Y-78562034D01*
X237161644Y-78433470D01*
X237143979Y-78410448D01*
X237079446Y-78326349D01*
X237076930Y-78323070D01*
X237003247Y-78266530D01*
X236969804Y-78240868D01*
X236969803Y-78240867D01*
X236966530Y-78238356D01*
X236837966Y-78185104D01*
X236833874Y-78184565D01*
X236833873Y-78184565D01*
X236704094Y-78167479D01*
X236700000Y-78166940D01*
X236695906Y-78167479D01*
X236566127Y-78184565D01*
X236566126Y-78184565D01*
X236562034Y-78185104D01*
X236433470Y-78238356D01*
X236430197Y-78240867D01*
X236430196Y-78240868D01*
X236396753Y-78266530D01*
X236323070Y-78323070D01*
X236320554Y-78326349D01*
X236256022Y-78410448D01*
X236238356Y-78433470D01*
X236185104Y-78562034D01*
X236184565Y-78566126D01*
X236184565Y-78566127D01*
X236175056Y-78638356D01*
X236166940Y-78700000D01*
X235233060Y-78700000D01*
X235224944Y-78638356D01*
X235215435Y-78566127D01*
X235215435Y-78566126D01*
X235214896Y-78562034D01*
X235161644Y-78433470D01*
X235143979Y-78410448D01*
X235079446Y-78326349D01*
X235076930Y-78323070D01*
X235003247Y-78266530D01*
X234969804Y-78240868D01*
X234969803Y-78240867D01*
X234966530Y-78238356D01*
X234837966Y-78185104D01*
X234833874Y-78184565D01*
X234833873Y-78184565D01*
X234704094Y-78167479D01*
X234700000Y-78166940D01*
X234695906Y-78167479D01*
X234566127Y-78184565D01*
X234566126Y-78184565D01*
X234562034Y-78185104D01*
X234433470Y-78238356D01*
X234430197Y-78240867D01*
X234430196Y-78240868D01*
X234396753Y-78266530D01*
X234323070Y-78323070D01*
X234320554Y-78326349D01*
X234256022Y-78410448D01*
X234238356Y-78433470D01*
X234185104Y-78562034D01*
X234184565Y-78566126D01*
X234184565Y-78566127D01*
X234175056Y-78638356D01*
X234166940Y-78700000D01*
X233233060Y-78700000D01*
X233224944Y-78638356D01*
X233215435Y-78566127D01*
X233215435Y-78566126D01*
X233214896Y-78562034D01*
X233161644Y-78433470D01*
X233143979Y-78410448D01*
X233079446Y-78326349D01*
X233076930Y-78323070D01*
X233003247Y-78266530D01*
X232969804Y-78240868D01*
X232969803Y-78240867D01*
X232966530Y-78238356D01*
X232837966Y-78185104D01*
X232833874Y-78184565D01*
X232833873Y-78184565D01*
X232704094Y-78167479D01*
X232700000Y-78166940D01*
X232695906Y-78167479D01*
X232566127Y-78184565D01*
X232566126Y-78184565D01*
X232562034Y-78185104D01*
X232433470Y-78238356D01*
X232430197Y-78240867D01*
X232430196Y-78240868D01*
X232396753Y-78266530D01*
X232323070Y-78323070D01*
X232320554Y-78326349D01*
X232256022Y-78410448D01*
X232238356Y-78433470D01*
X232185104Y-78562034D01*
X232184565Y-78566126D01*
X232184565Y-78566127D01*
X232175056Y-78638356D01*
X232166940Y-78700000D01*
X224357906Y-78700000D01*
X224340389Y-78589401D01*
X224289552Y-78489628D01*
X224210372Y-78410448D01*
X224110599Y-78359611D01*
X224000000Y-78342094D01*
X223889401Y-78359611D01*
X223789628Y-78410448D01*
X223710448Y-78489628D01*
X223659611Y-78589401D01*
X223642094Y-78700000D01*
X220042068Y-78700000D01*
X220057906Y-78600000D01*
X220040389Y-78489401D01*
X219989552Y-78389628D01*
X219910372Y-78310448D01*
X219810599Y-78259611D01*
X219700000Y-78242094D01*
X219589401Y-78259611D01*
X219489628Y-78310448D01*
X219410448Y-78389628D01*
X219359611Y-78489401D01*
X219342094Y-78600000D01*
X208173929Y-78600000D01*
X208137966Y-78585104D01*
X208133874Y-78584565D01*
X208133873Y-78584565D01*
X208004094Y-78567479D01*
X208000000Y-78566940D01*
X207995906Y-78567479D01*
X207866127Y-78584565D01*
X207866126Y-78584565D01*
X207862034Y-78585104D01*
X207733470Y-78638356D01*
X207623070Y-78723070D01*
X207620554Y-78726349D01*
X207553390Y-78813878D01*
X207538356Y-78833470D01*
X207485104Y-78962034D01*
X207466940Y-79100000D01*
X207467479Y-79104094D01*
X207475264Y-79163222D01*
X207485104Y-79237966D01*
X207538356Y-79366530D01*
X207540867Y-79369803D01*
X207540868Y-79369804D01*
X207611344Y-79461648D01*
X207623824Y-79508223D01*
X207611345Y-79538351D01*
X207538356Y-79633470D01*
X207485104Y-79762034D01*
X207484565Y-79766126D01*
X207484565Y-79766127D01*
X207475056Y-79838356D01*
X207466940Y-79900000D01*
X207128500Y-79900000D01*
X207128500Y-77700000D01*
X216542094Y-77700000D01*
X216559611Y-77810599D01*
X216610448Y-77910372D01*
X216689628Y-77989552D01*
X216789401Y-78040389D01*
X216900000Y-78057906D01*
X217010599Y-78040389D01*
X217110372Y-77989552D01*
X217189552Y-77910372D01*
X217194837Y-77900000D01*
X222642094Y-77900000D01*
X222659611Y-78010599D01*
X222710448Y-78110372D01*
X222789628Y-78189552D01*
X222889401Y-78240389D01*
X223000000Y-78257906D01*
X223110599Y-78240389D01*
X223210372Y-78189552D01*
X223289552Y-78110372D01*
X223340389Y-78010599D01*
X223342068Y-78000000D01*
X228966940Y-78000000D01*
X228985104Y-78137966D01*
X229038356Y-78266530D01*
X229040867Y-78269803D01*
X229040868Y-78269804D01*
X229098832Y-78345343D01*
X229123070Y-78376930D01*
X229126349Y-78379446D01*
X229201719Y-78437280D01*
X229233470Y-78461644D01*
X229362034Y-78514896D01*
X229366126Y-78515435D01*
X229366127Y-78515435D01*
X229495906Y-78532521D01*
X229500000Y-78533060D01*
X229504094Y-78532521D01*
X229633873Y-78515435D01*
X229633874Y-78515435D01*
X229637966Y-78514896D01*
X229766530Y-78461644D01*
X229798282Y-78437280D01*
X229873651Y-78379446D01*
X229876930Y-78376930D01*
X229901168Y-78345343D01*
X229959132Y-78269804D01*
X229959133Y-78269803D01*
X229961644Y-78266530D01*
X230014896Y-78137966D01*
X230033060Y-78000000D01*
X230020540Y-77904900D01*
X230015435Y-77866127D01*
X230015435Y-77866126D01*
X230014896Y-77862034D01*
X229961644Y-77733470D01*
X229928003Y-77689628D01*
X229879446Y-77626349D01*
X229876930Y-77623070D01*
X229794230Y-77559611D01*
X229769804Y-77540868D01*
X229769803Y-77540867D01*
X229766530Y-77538356D01*
X229637966Y-77485104D01*
X229633874Y-77484565D01*
X229633873Y-77484565D01*
X229504094Y-77467479D01*
X229500000Y-77466940D01*
X229495906Y-77467479D01*
X229366127Y-77484565D01*
X229366126Y-77484565D01*
X229362034Y-77485104D01*
X229233470Y-77538356D01*
X229230197Y-77540867D01*
X229230196Y-77540868D01*
X229205770Y-77559611D01*
X229123070Y-77623070D01*
X229120554Y-77626349D01*
X229071998Y-77689628D01*
X229038356Y-77733470D01*
X228985104Y-77862034D01*
X228984565Y-77866126D01*
X228984565Y-77866127D01*
X228979460Y-77904900D01*
X228966940Y-78000000D01*
X223342068Y-78000000D01*
X223357906Y-77900000D01*
X223340389Y-77789401D01*
X223289552Y-77689628D01*
X223210372Y-77610448D01*
X223110599Y-77559611D01*
X223000000Y-77542094D01*
X222889401Y-77559611D01*
X222789628Y-77610448D01*
X222710448Y-77689628D01*
X222659611Y-77789401D01*
X222642094Y-77900000D01*
X217194837Y-77900000D01*
X217240389Y-77810599D01*
X217257906Y-77700000D01*
X217240389Y-77589401D01*
X217189552Y-77489628D01*
X217110372Y-77410448D01*
X217010599Y-77359611D01*
X216900000Y-77342094D01*
X216789401Y-77359611D01*
X216689628Y-77410448D01*
X216610448Y-77489628D01*
X216559611Y-77589401D01*
X216542094Y-77700000D01*
X207128500Y-77700000D01*
X207128500Y-77200000D01*
X223762094Y-77200000D01*
X223779611Y-77310599D01*
X223830448Y-77410372D01*
X223909628Y-77489552D01*
X224009401Y-77540389D01*
X224120000Y-77557906D01*
X224230599Y-77540389D01*
X224330372Y-77489552D01*
X224409552Y-77410372D01*
X224460389Y-77310599D01*
X224477906Y-77200000D01*
X224460389Y-77089401D01*
X224409552Y-76989628D01*
X224330372Y-76910448D01*
X224230599Y-76859611D01*
X224120000Y-76842094D01*
X224009401Y-76859611D01*
X223909628Y-76910448D01*
X223830448Y-76989628D01*
X223779611Y-77089401D01*
X223762094Y-77200000D01*
X207128500Y-77200000D01*
X207128500Y-77062654D01*
X209321500Y-77062654D01*
X209328956Y-77100138D01*
X209357357Y-77142643D01*
X209399862Y-77171044D01*
X209437346Y-77178500D01*
X210562654Y-77178500D01*
X210600138Y-77171044D01*
X210642643Y-77142643D01*
X210671044Y-77100138D01*
X210678500Y-77062654D01*
X210678500Y-76800000D01*
X225642094Y-76800000D01*
X225659611Y-76910599D01*
X225710448Y-77010372D01*
X225789628Y-77089552D01*
X225889401Y-77140389D01*
X226000000Y-77157906D01*
X226110599Y-77140389D01*
X226210372Y-77089552D01*
X226289552Y-77010372D01*
X226340389Y-76910599D01*
X226357906Y-76800000D01*
X226340389Y-76689401D01*
X226289552Y-76589628D01*
X226210372Y-76510448D01*
X226189867Y-76500000D01*
X236242094Y-76500000D01*
X236259611Y-76610599D01*
X236310448Y-76710372D01*
X236389628Y-76789552D01*
X236489401Y-76840389D01*
X236600000Y-76857906D01*
X236710599Y-76840389D01*
X236810372Y-76789552D01*
X236889552Y-76710372D01*
X236940389Y-76610599D01*
X236957906Y-76500000D01*
X236956118Y-76488710D01*
X239241495Y-76488710D01*
X239241839Y-76492218D01*
X239241839Y-76492219D01*
X239253447Y-76610599D01*
X239259086Y-76668114D01*
X239260196Y-76671452D01*
X239260197Y-76671455D01*
X239314873Y-76835817D01*
X239315986Y-76839162D01*
X239409367Y-76993354D01*
X239534589Y-77123025D01*
X239685428Y-77221731D01*
X239854386Y-77284566D01*
X239857871Y-77285031D01*
X240029580Y-77307942D01*
X240029581Y-77307942D01*
X240033066Y-77308407D01*
X240095643Y-77302712D01*
X240209087Y-77292388D01*
X240209090Y-77292387D01*
X240212588Y-77292069D01*
X240215929Y-77290983D01*
X240215931Y-77290983D01*
X240380682Y-77237452D01*
X240380683Y-77237451D01*
X240384030Y-77236364D01*
X240387054Y-77234561D01*
X240387057Y-77234560D01*
X240481097Y-77178500D01*
X240538869Y-77144061D01*
X240558932Y-77124956D01*
X240666858Y-77022179D01*
X240669411Y-77019748D01*
X240769168Y-76869602D01*
X240770416Y-76866318D01*
X240770418Y-76866313D01*
X240831929Y-76704382D01*
X240833181Y-76701087D01*
X240833671Y-76697601D01*
X240833672Y-76697597D01*
X240848224Y-76594048D01*
X240858269Y-76522577D01*
X240858390Y-76513954D01*
X240858470Y-76508196D01*
X240858584Y-76500000D01*
X240838490Y-76320859D01*
X240779207Y-76150622D01*
X240773878Y-76142094D01*
X240685549Y-76000737D01*
X240685547Y-76000734D01*
X240683682Y-75997750D01*
X240580702Y-75894048D01*
X240559146Y-75872341D01*
X240559144Y-75872339D01*
X240556662Y-75869840D01*
X240404460Y-75773250D01*
X240316964Y-75742094D01*
X240237956Y-75713960D01*
X240237953Y-75713959D01*
X240234641Y-75712780D01*
X240231146Y-75712363D01*
X240231145Y-75712363D01*
X240059137Y-75691852D01*
X240059133Y-75691852D01*
X240055645Y-75691436D01*
X239966006Y-75700857D01*
X239879866Y-75709910D01*
X239879863Y-75709911D01*
X239876368Y-75710278D01*
X239705722Y-75768371D01*
X239702727Y-75770214D01*
X239702724Y-75770215D01*
X239667632Y-75791804D01*
X239552186Y-75862827D01*
X239423392Y-75988951D01*
X239325742Y-76140475D01*
X239264088Y-76309868D01*
X239263647Y-76313359D01*
X239263646Y-76313363D01*
X239253737Y-76391804D01*
X239241495Y-76488710D01*
X236956118Y-76488710D01*
X236940389Y-76389401D01*
X236889552Y-76289628D01*
X236810372Y-76210448D01*
X236710599Y-76159611D01*
X236617192Y-76144817D01*
X236604900Y-76142870D01*
X236600000Y-76142094D01*
X236595100Y-76142870D01*
X236582808Y-76144817D01*
X236489401Y-76159611D01*
X236389628Y-76210448D01*
X236310448Y-76289628D01*
X236259611Y-76389401D01*
X236242094Y-76500000D01*
X226189867Y-76500000D01*
X226110599Y-76459611D01*
X226000000Y-76442094D01*
X225889401Y-76459611D01*
X225789628Y-76510448D01*
X225710448Y-76589628D01*
X225659611Y-76689401D01*
X225642094Y-76800000D01*
X210678500Y-76800000D01*
X210678500Y-76100000D01*
X220342094Y-76100000D01*
X220359611Y-76210599D01*
X220410448Y-76310372D01*
X220489628Y-76389552D01*
X220589401Y-76440389D01*
X220700000Y-76457906D01*
X220810599Y-76440389D01*
X220910372Y-76389552D01*
X220989552Y-76310372D01*
X221040389Y-76210599D01*
X221057906Y-76100000D01*
X221040389Y-75989401D01*
X220989552Y-75889628D01*
X220910372Y-75810448D01*
X220810599Y-75759611D01*
X220700000Y-75742094D01*
X220589401Y-75759611D01*
X220489628Y-75810448D01*
X220410448Y-75889628D01*
X220359611Y-75989401D01*
X220342094Y-76100000D01*
X210678500Y-76100000D01*
X210678500Y-75937346D01*
X210671044Y-75899862D01*
X210642643Y-75857357D01*
X210600138Y-75828956D01*
X210562654Y-75821500D01*
X209437346Y-75821500D01*
X209399862Y-75828956D01*
X209357357Y-75857357D01*
X209328956Y-75899862D01*
X209321500Y-75937346D01*
X209321500Y-77062654D01*
X207128500Y-77062654D01*
X207128500Y-75500000D01*
X217266940Y-75500000D01*
X217267479Y-75504094D01*
X217279027Y-75591804D01*
X217285104Y-75637966D01*
X217338356Y-75766530D01*
X217340867Y-75769803D01*
X217340868Y-75769804D01*
X217381000Y-75822104D01*
X217423070Y-75876930D01*
X217426349Y-75879446D01*
X217501805Y-75937346D01*
X217533470Y-75961644D01*
X217662034Y-76014896D01*
X217666126Y-76015435D01*
X217666127Y-76015435D01*
X217795906Y-76032521D01*
X217800000Y-76033060D01*
X217804094Y-76032521D01*
X217933873Y-76015435D01*
X217933874Y-76015435D01*
X217937966Y-76014896D01*
X218066530Y-75961644D01*
X218098196Y-75937346D01*
X218173651Y-75879446D01*
X218176930Y-75876930D01*
X218219000Y-75822104D01*
X218259132Y-75769804D01*
X218259133Y-75769803D01*
X218261644Y-75766530D01*
X218314896Y-75637966D01*
X218320974Y-75591804D01*
X218332521Y-75504094D01*
X218333060Y-75500000D01*
X218314896Y-75362034D01*
X218261644Y-75233470D01*
X218246611Y-75213878D01*
X218179446Y-75126349D01*
X218176930Y-75123070D01*
X218103622Y-75066818D01*
X218069804Y-75040868D01*
X218069803Y-75040867D01*
X218066530Y-75038356D01*
X217973929Y-75000000D01*
X223642094Y-75000000D01*
X223659611Y-75110599D01*
X223710448Y-75210372D01*
X223789628Y-75289552D01*
X223889401Y-75340389D01*
X224000000Y-75357906D01*
X224110599Y-75340389D01*
X224189867Y-75300000D01*
X228642094Y-75300000D01*
X228642870Y-75304900D01*
X228644817Y-75317192D01*
X228659611Y-75410599D01*
X228710448Y-75510372D01*
X228789628Y-75589552D01*
X228889401Y-75640389D01*
X229000000Y-75657906D01*
X229110599Y-75640389D01*
X229210372Y-75589552D01*
X229289552Y-75510372D01*
X229294837Y-75500000D01*
X233042094Y-75500000D01*
X233059611Y-75610599D01*
X233110448Y-75710372D01*
X233189628Y-75789552D01*
X233289401Y-75840389D01*
X233400000Y-75857906D01*
X233510599Y-75840389D01*
X233610372Y-75789552D01*
X233689552Y-75710372D01*
X233740389Y-75610599D01*
X233757906Y-75500000D01*
X233740389Y-75389401D01*
X233689552Y-75289628D01*
X233610372Y-75210448D01*
X233510599Y-75159611D01*
X233411561Y-75143925D01*
X233404900Y-75142870D01*
X233400000Y-75142094D01*
X233395100Y-75142870D01*
X233388439Y-75143925D01*
X233289401Y-75159611D01*
X233189628Y-75210448D01*
X233110448Y-75289628D01*
X233059611Y-75389401D01*
X233042094Y-75500000D01*
X229294837Y-75500000D01*
X229340389Y-75410599D01*
X229355183Y-75317192D01*
X229357130Y-75304900D01*
X229357906Y-75300000D01*
X229340389Y-75189401D01*
X229289552Y-75089628D01*
X229210372Y-75010448D01*
X229189867Y-75000000D01*
X230392094Y-75000000D01*
X230409611Y-75110599D01*
X230460448Y-75210372D01*
X230539628Y-75289552D01*
X230639401Y-75340389D01*
X230750000Y-75357906D01*
X230860599Y-75340389D01*
X230960372Y-75289552D01*
X231039552Y-75210372D01*
X231090389Y-75110599D01*
X231107906Y-75000000D01*
X231392094Y-75000000D01*
X231409611Y-75110599D01*
X231460448Y-75210372D01*
X231539628Y-75289552D01*
X231639401Y-75340389D01*
X231750000Y-75357906D01*
X231860599Y-75340389D01*
X231960372Y-75289552D01*
X232039552Y-75210372D01*
X232090389Y-75110599D01*
X232107906Y-75000000D01*
X232090389Y-74889401D01*
X232039552Y-74789628D01*
X231960372Y-74710448D01*
X231860599Y-74659611D01*
X231750000Y-74642094D01*
X231639401Y-74659611D01*
X231539628Y-74710448D01*
X231460448Y-74789628D01*
X231409611Y-74889401D01*
X231392094Y-75000000D01*
X231107906Y-75000000D01*
X231090389Y-74889401D01*
X231039552Y-74789628D01*
X230960372Y-74710448D01*
X230860599Y-74659611D01*
X230750000Y-74642094D01*
X230639401Y-74659611D01*
X230539628Y-74710448D01*
X230460448Y-74789628D01*
X230409611Y-74889401D01*
X230392094Y-75000000D01*
X229189867Y-75000000D01*
X229110599Y-74959611D01*
X229000000Y-74942094D01*
X228889401Y-74959611D01*
X228789628Y-75010448D01*
X228710448Y-75089628D01*
X228659611Y-75189401D01*
X228642094Y-75300000D01*
X224189867Y-75300000D01*
X224210372Y-75289552D01*
X224289552Y-75210372D01*
X224340389Y-75110599D01*
X224357906Y-75000000D01*
X224340389Y-74889401D01*
X224289552Y-74789628D01*
X224210372Y-74710448D01*
X224189867Y-74700000D01*
X226642094Y-74700000D01*
X226659611Y-74810599D01*
X226710448Y-74910372D01*
X226789628Y-74989552D01*
X226889401Y-75040389D01*
X227000000Y-75057906D01*
X227110599Y-75040389D01*
X227210372Y-74989552D01*
X227289552Y-74910372D01*
X227340389Y-74810599D01*
X227357906Y-74700000D01*
X227340389Y-74589401D01*
X227289552Y-74489628D01*
X227210372Y-74410448D01*
X227110599Y-74359611D01*
X227000000Y-74342094D01*
X226889401Y-74359611D01*
X226789628Y-74410448D01*
X226710448Y-74489628D01*
X226659611Y-74589401D01*
X226642094Y-74700000D01*
X224189867Y-74700000D01*
X224110599Y-74659611D01*
X224000000Y-74642094D01*
X223889401Y-74659611D01*
X223789628Y-74710448D01*
X223710448Y-74789628D01*
X223659611Y-74889401D01*
X223642094Y-75000000D01*
X217973929Y-75000000D01*
X217937966Y-74985104D01*
X217933874Y-74984565D01*
X217933873Y-74984565D01*
X217804094Y-74967479D01*
X217800000Y-74966940D01*
X217795906Y-74967479D01*
X217666127Y-74984565D01*
X217666126Y-74984565D01*
X217662034Y-74985104D01*
X217533470Y-75038356D01*
X217530197Y-75040867D01*
X217530196Y-75040868D01*
X217496378Y-75066818D01*
X217423070Y-75123070D01*
X217420554Y-75126349D01*
X217353390Y-75213878D01*
X217338356Y-75233470D01*
X217285104Y-75362034D01*
X217266940Y-75500000D01*
X207128500Y-75500000D01*
X207128500Y-74492843D01*
X209316554Y-74492843D01*
X209334575Y-74656074D01*
X209391012Y-74810295D01*
X209428655Y-74866313D01*
X209479578Y-74942094D01*
X209482607Y-74946602D01*
X209604071Y-75057126D01*
X209748393Y-75135486D01*
X209752062Y-75136448D01*
X209752063Y-75136449D01*
X209903570Y-75176196D01*
X209907241Y-75177159D01*
X209911034Y-75177219D01*
X209911037Y-75177219D01*
X209994894Y-75178536D01*
X210071443Y-75179739D01*
X210109565Y-75171008D01*
X210227817Y-75143925D01*
X210227820Y-75143924D01*
X210231522Y-75143076D01*
X210271389Y-75123025D01*
X210374837Y-75070997D01*
X210374840Y-75070995D01*
X210378234Y-75069288D01*
X210412070Y-75040389D01*
X210500221Y-74965101D01*
X210500223Y-74965098D01*
X210503110Y-74962633D01*
X210512794Y-74949156D01*
X210596726Y-74832353D01*
X210596727Y-74832351D01*
X210598941Y-74829270D01*
X210614877Y-74789628D01*
X210658778Y-74680421D01*
X210658778Y-74680419D01*
X210660194Y-74676898D01*
X210683333Y-74514314D01*
X210683375Y-74510372D01*
X210683421Y-74505952D01*
X210683483Y-74500000D01*
X210666194Y-74357130D01*
X210664210Y-74340733D01*
X210664210Y-74340732D01*
X210663754Y-74336966D01*
X210649786Y-74300000D01*
X220442094Y-74300000D01*
X220459611Y-74410599D01*
X220510448Y-74510372D01*
X220589628Y-74589552D01*
X220689401Y-74640389D01*
X220800000Y-74657906D01*
X220910599Y-74640389D01*
X221010372Y-74589552D01*
X221089552Y-74510372D01*
X221140389Y-74410599D01*
X221157906Y-74300000D01*
X221160734Y-74300448D01*
X221175582Y-74264602D01*
X221220130Y-74246150D01*
X221264678Y-74264602D01*
X221289628Y-74289552D01*
X221389401Y-74340389D01*
X221500000Y-74357906D01*
X221610599Y-74340389D01*
X221710372Y-74289552D01*
X221789552Y-74210372D01*
X221840389Y-74110599D01*
X221857906Y-74000000D01*
X221840389Y-73889401D01*
X221820313Y-73850000D01*
X224592094Y-73850000D01*
X224592870Y-73854900D01*
X224593834Y-73860988D01*
X224609611Y-73960599D01*
X224660448Y-74060372D01*
X224739628Y-74139552D01*
X224839401Y-74190389D01*
X224950000Y-74207906D01*
X225060599Y-74190389D01*
X225160372Y-74139552D01*
X225239552Y-74060372D01*
X225270313Y-74000000D01*
X230392094Y-74000000D01*
X230409611Y-74110599D01*
X230460448Y-74210372D01*
X230539628Y-74289552D01*
X230639401Y-74340389D01*
X230750000Y-74357906D01*
X230860599Y-74340389D01*
X230960372Y-74289552D01*
X231039552Y-74210372D01*
X231090389Y-74110599D01*
X231107906Y-74000000D01*
X231392094Y-74000000D01*
X231409611Y-74110599D01*
X231460448Y-74210372D01*
X231539628Y-74289552D01*
X231639401Y-74340389D01*
X231750000Y-74357906D01*
X231860599Y-74340389D01*
X231960372Y-74289552D01*
X232039552Y-74210372D01*
X232090389Y-74110599D01*
X232107906Y-74000000D01*
X232090389Y-73889401D01*
X232039552Y-73789628D01*
X231960372Y-73710448D01*
X231860599Y-73659611D01*
X231750000Y-73642094D01*
X231639401Y-73659611D01*
X231539628Y-73710448D01*
X231460448Y-73789628D01*
X231409611Y-73889401D01*
X231392094Y-74000000D01*
X231107906Y-74000000D01*
X231090389Y-73889401D01*
X231039552Y-73789628D01*
X230960372Y-73710448D01*
X230860599Y-73659611D01*
X230750000Y-73642094D01*
X230639401Y-73659611D01*
X230539628Y-73710448D01*
X230460448Y-73789628D01*
X230409611Y-73889401D01*
X230392094Y-74000000D01*
X225270313Y-74000000D01*
X225290389Y-73960599D01*
X225306166Y-73860988D01*
X225307130Y-73854900D01*
X225307906Y-73850000D01*
X225290389Y-73739401D01*
X225253468Y-73666940D01*
X225241803Y-73644045D01*
X225241802Y-73644043D01*
X225239552Y-73639628D01*
X225240604Y-73639092D01*
X225230535Y-73597138D01*
X225255733Y-73556028D01*
X225282900Y-73544776D01*
X225310599Y-73540389D01*
X225389867Y-73500000D01*
X233042094Y-73500000D01*
X233059611Y-73610599D01*
X233110448Y-73710372D01*
X233189628Y-73789552D01*
X233289401Y-73840389D01*
X233294304Y-73841166D01*
X233299014Y-73842696D01*
X233298551Y-73844122D01*
X233334637Y-73866233D01*
X233345895Y-73913119D01*
X233338972Y-73932667D01*
X233338356Y-73933470D01*
X233285104Y-74062034D01*
X233284565Y-74066126D01*
X233284565Y-74066127D01*
X233269965Y-74177020D01*
X233266940Y-74200000D01*
X233267479Y-74204094D01*
X233284059Y-74330025D01*
X233285104Y-74337966D01*
X233338356Y-74466530D01*
X233340867Y-74469803D01*
X233340868Y-74469804D01*
X233398832Y-74545343D01*
X233423070Y-74576930D01*
X233426349Y-74579446D01*
X233528599Y-74657906D01*
X233533470Y-74661644D01*
X233662034Y-74714896D01*
X233666126Y-74715435D01*
X233666127Y-74715435D01*
X233795906Y-74732521D01*
X233800000Y-74733060D01*
X233804094Y-74732521D01*
X233933873Y-74715435D01*
X233933874Y-74715435D01*
X233937966Y-74714896D01*
X234066530Y-74661644D01*
X234071402Y-74657906D01*
X234173651Y-74579446D01*
X234176930Y-74576930D01*
X234201168Y-74545343D01*
X234235961Y-74500000D01*
X236242094Y-74500000D01*
X236259611Y-74610599D01*
X236310448Y-74710372D01*
X236389628Y-74789552D01*
X236489401Y-74840389D01*
X236600000Y-74857906D01*
X236710599Y-74840389D01*
X236810372Y-74789552D01*
X236889552Y-74710372D01*
X236940389Y-74610599D01*
X236957906Y-74500000D01*
X236956773Y-74492843D01*
X236956118Y-74488710D01*
X239241495Y-74488710D01*
X239241839Y-74492218D01*
X239241839Y-74492219D01*
X239258452Y-74661644D01*
X239259086Y-74668114D01*
X239260196Y-74671452D01*
X239260197Y-74671455D01*
X239311524Y-74825750D01*
X239315986Y-74839162D01*
X239409367Y-74993354D01*
X239411814Y-74995888D01*
X239429260Y-75013954D01*
X239534589Y-75123025D01*
X239685428Y-75221731D01*
X239854386Y-75284566D01*
X239857871Y-75285031D01*
X240029580Y-75307942D01*
X240029581Y-75307942D01*
X240033066Y-75308407D01*
X240095643Y-75302712D01*
X240209087Y-75292388D01*
X240209090Y-75292387D01*
X240212588Y-75292069D01*
X240215929Y-75290983D01*
X240215931Y-75290983D01*
X240380682Y-75237452D01*
X240380683Y-75237451D01*
X240384030Y-75236364D01*
X240387054Y-75234561D01*
X240387057Y-75234560D01*
X240479019Y-75179739D01*
X240538869Y-75144061D01*
X240546863Y-75136449D01*
X240647736Y-75040389D01*
X240669411Y-75019748D01*
X240769168Y-74869602D01*
X240770416Y-74866318D01*
X240770418Y-74866313D01*
X240810054Y-74761969D01*
X240833181Y-74701087D01*
X240833671Y-74697601D01*
X240833672Y-74697597D01*
X240849499Y-74584978D01*
X240858269Y-74522577D01*
X240858385Y-74514314D01*
X240858501Y-74505952D01*
X240858584Y-74500000D01*
X240848539Y-74410448D01*
X240838883Y-74324360D01*
X240838882Y-74324357D01*
X240838490Y-74320859D01*
X240779207Y-74150622D01*
X240773697Y-74141804D01*
X240685549Y-74000737D01*
X240685547Y-74000734D01*
X240683682Y-73997750D01*
X240556662Y-73869840D01*
X240404460Y-73773250D01*
X240296980Y-73734978D01*
X240237956Y-73713960D01*
X240237953Y-73713959D01*
X240234641Y-73712780D01*
X240231146Y-73712363D01*
X240231145Y-73712363D01*
X240059137Y-73691852D01*
X240059133Y-73691852D01*
X240055645Y-73691436D01*
X239966006Y-73700857D01*
X239879866Y-73709910D01*
X239879863Y-73709911D01*
X239876368Y-73710278D01*
X239705722Y-73768371D01*
X239702727Y-73770214D01*
X239702724Y-73770215D01*
X239628954Y-73815599D01*
X239552186Y-73862827D01*
X239520043Y-73894304D01*
X239447828Y-73965022D01*
X239423392Y-73988951D01*
X239386963Y-74045478D01*
X239344996Y-74110599D01*
X239325742Y-74140475D01*
X239264088Y-74309868D01*
X239263647Y-74313359D01*
X239263646Y-74313363D01*
X239253421Y-74394304D01*
X239241495Y-74488710D01*
X236956118Y-74488710D01*
X236944447Y-74415022D01*
X236940389Y-74389401D01*
X236889552Y-74289628D01*
X236810372Y-74210448D01*
X236710599Y-74159611D01*
X236617192Y-74144817D01*
X236604900Y-74142870D01*
X236600000Y-74142094D01*
X236595100Y-74142870D01*
X236582808Y-74144817D01*
X236489401Y-74159611D01*
X236389628Y-74210448D01*
X236310448Y-74289628D01*
X236259611Y-74389401D01*
X236255553Y-74415022D01*
X236243228Y-74492843D01*
X236242094Y-74500000D01*
X234235961Y-74500000D01*
X234259132Y-74469804D01*
X234259133Y-74469803D01*
X234261644Y-74466530D01*
X234314896Y-74337966D01*
X234315942Y-74330025D01*
X234332521Y-74204094D01*
X234333060Y-74200000D01*
X234330035Y-74177020D01*
X234315435Y-74066127D01*
X234315435Y-74066126D01*
X234314896Y-74062034D01*
X234261644Y-73933470D01*
X234231591Y-73894304D01*
X234191990Y-73842696D01*
X234176930Y-73823070D01*
X234104168Y-73767237D01*
X234069804Y-73740868D01*
X234069803Y-73740867D01*
X234066530Y-73738356D01*
X233937966Y-73685104D01*
X233933874Y-73684565D01*
X233933873Y-73684565D01*
X233800000Y-73666940D01*
X233800199Y-73665431D01*
X233760595Y-73649027D01*
X233742143Y-73604479D01*
X233742919Y-73594624D01*
X233750815Y-73544774D01*
X233757906Y-73500000D01*
X233740389Y-73389401D01*
X233689552Y-73289628D01*
X233610372Y-73210448D01*
X233510599Y-73159611D01*
X233400000Y-73142094D01*
X233289401Y-73159611D01*
X233189628Y-73210448D01*
X233110448Y-73289628D01*
X233059611Y-73389401D01*
X233042094Y-73500000D01*
X225389867Y-73500000D01*
X225410372Y-73489552D01*
X225489552Y-73410372D01*
X225540389Y-73310599D01*
X225557906Y-73200000D01*
X225540389Y-73089401D01*
X225489552Y-72989628D01*
X225410372Y-72910448D01*
X225310599Y-72859611D01*
X225200000Y-72842094D01*
X225089401Y-72859611D01*
X224989628Y-72910448D01*
X224910448Y-72989628D01*
X224859611Y-73089401D01*
X224842094Y-73200000D01*
X224859611Y-73310599D01*
X224861865Y-73315022D01*
X224908196Y-73405952D01*
X224908216Y-73405991D01*
X224910448Y-73410372D01*
X224909396Y-73410908D01*
X224919465Y-73452862D01*
X224894267Y-73493972D01*
X224867100Y-73505224D01*
X224839401Y-73509611D01*
X224739628Y-73560448D01*
X224660448Y-73639628D01*
X224609611Y-73739401D01*
X224592094Y-73850000D01*
X221820313Y-73850000D01*
X221789552Y-73789628D01*
X221710372Y-73710448D01*
X221610599Y-73659611D01*
X221500000Y-73642094D01*
X221389401Y-73659611D01*
X221289628Y-73710448D01*
X221210448Y-73789628D01*
X221159611Y-73889401D01*
X221142094Y-74000000D01*
X221139266Y-73999552D01*
X221124418Y-74035398D01*
X221079870Y-74053850D01*
X221035322Y-74035398D01*
X221010372Y-74010448D01*
X220910599Y-73959611D01*
X220800000Y-73942094D01*
X220689401Y-73959611D01*
X220589628Y-74010448D01*
X220510448Y-74089628D01*
X220459611Y-74189401D01*
X220442094Y-74300000D01*
X210649786Y-74300000D01*
X210617243Y-74213878D01*
X210607047Y-74186896D01*
X210607046Y-74186895D01*
X210605705Y-74183345D01*
X210512688Y-74048005D01*
X210498539Y-74035398D01*
X210416007Y-73961865D01*
X210390073Y-73938758D01*
X210244938Y-73861914D01*
X210241256Y-73860989D01*
X210241253Y-73860988D01*
X210089343Y-73822830D01*
X210089340Y-73822830D01*
X210085663Y-73821906D01*
X210081869Y-73821886D01*
X210081868Y-73821886D01*
X210000710Y-73821462D01*
X209921442Y-73821047D01*
X209917753Y-73821933D01*
X209917750Y-73821933D01*
X209821254Y-73845100D01*
X209761757Y-73859384D01*
X209750316Y-73865289D01*
X209657647Y-73913119D01*
X209615826Y-73934704D01*
X209612966Y-73937199D01*
X209500399Y-74035398D01*
X209492073Y-74042661D01*
X209397644Y-74177020D01*
X209396267Y-74180553D01*
X209396266Y-74180554D01*
X209393310Y-74188135D01*
X209337990Y-74330025D01*
X209327698Y-74408196D01*
X209317559Y-74485212D01*
X209316554Y-74492843D01*
X207128500Y-74492843D01*
X207128500Y-72700000D01*
X226642094Y-72700000D01*
X226659611Y-72810599D01*
X226710448Y-72910372D01*
X226789628Y-72989552D01*
X226889401Y-73040389D01*
X227000000Y-73057906D01*
X227110599Y-73040389D01*
X227210372Y-72989552D01*
X227289552Y-72910372D01*
X227340389Y-72810599D01*
X227357906Y-72700000D01*
X227340389Y-72589401D01*
X227294837Y-72500000D01*
X236242094Y-72500000D01*
X236259611Y-72610599D01*
X236310448Y-72710372D01*
X236389628Y-72789552D01*
X236489401Y-72840389D01*
X236600000Y-72857906D01*
X236710599Y-72840389D01*
X236810372Y-72789552D01*
X236889552Y-72710372D01*
X236940389Y-72610599D01*
X236957906Y-72500000D01*
X236956118Y-72488710D01*
X239241495Y-72488710D01*
X239241839Y-72492218D01*
X239241839Y-72492219D01*
X239253447Y-72610599D01*
X239259086Y-72668114D01*
X239260196Y-72671452D01*
X239260197Y-72671455D01*
X239314873Y-72835817D01*
X239315986Y-72839162D01*
X239409367Y-72993354D01*
X239534589Y-73123025D01*
X239685428Y-73221731D01*
X239854386Y-73284566D01*
X239857871Y-73285031D01*
X240029580Y-73307942D01*
X240029581Y-73307942D01*
X240033066Y-73308407D01*
X240095643Y-73302712D01*
X240209087Y-73292388D01*
X240209090Y-73292387D01*
X240212588Y-73292069D01*
X240215929Y-73290983D01*
X240215931Y-73290983D01*
X240380682Y-73237452D01*
X240380683Y-73237451D01*
X240384030Y-73236364D01*
X240387054Y-73234561D01*
X240387057Y-73234560D01*
X240461450Y-73190212D01*
X240538869Y-73144061D01*
X240558932Y-73124956D01*
X240666858Y-73022179D01*
X240669411Y-73019748D01*
X240769168Y-72869602D01*
X240770416Y-72866318D01*
X240770418Y-72866313D01*
X240831333Y-72705952D01*
X240833181Y-72701087D01*
X240833671Y-72697601D01*
X240833672Y-72697597D01*
X240849499Y-72584978D01*
X240858269Y-72522577D01*
X240858584Y-72500000D01*
X240851015Y-72432521D01*
X240838883Y-72324360D01*
X240838882Y-72324357D01*
X240838490Y-72320859D01*
X240779207Y-72150622D01*
X240777340Y-72147634D01*
X240685549Y-72000737D01*
X240685547Y-72000734D01*
X240683682Y-71997750D01*
X240580702Y-71894048D01*
X240559146Y-71872341D01*
X240559144Y-71872339D01*
X240556662Y-71869840D01*
X240404460Y-71773250D01*
X240316964Y-71742094D01*
X240237956Y-71713960D01*
X240237953Y-71713959D01*
X240234641Y-71712780D01*
X240231146Y-71712363D01*
X240231145Y-71712363D01*
X240059137Y-71691852D01*
X240059133Y-71691852D01*
X240055645Y-71691436D01*
X239966007Y-71700857D01*
X239879866Y-71709910D01*
X239879863Y-71709911D01*
X239876368Y-71710278D01*
X239705722Y-71768371D01*
X239702727Y-71770214D01*
X239702724Y-71770215D01*
X239631628Y-71813954D01*
X239552186Y-71862827D01*
X239423392Y-71988951D01*
X239325742Y-72140475D01*
X239264088Y-72309868D01*
X239263647Y-72313359D01*
X239263646Y-72313363D01*
X239253737Y-72391804D01*
X239241495Y-72488710D01*
X236956118Y-72488710D01*
X236940389Y-72389401D01*
X236889552Y-72289628D01*
X236810372Y-72210448D01*
X236710599Y-72159611D01*
X236617192Y-72144817D01*
X236604900Y-72142870D01*
X236600000Y-72142094D01*
X236595100Y-72142870D01*
X236582808Y-72144817D01*
X236489401Y-72159611D01*
X236389628Y-72210448D01*
X236310448Y-72289628D01*
X236259611Y-72389401D01*
X236242094Y-72500000D01*
X227294837Y-72500000D01*
X227289552Y-72489628D01*
X227210372Y-72410448D01*
X227110599Y-72359611D01*
X227000000Y-72342094D01*
X226889401Y-72359611D01*
X226789628Y-72410448D01*
X226710448Y-72489628D01*
X226659611Y-72589401D01*
X226642094Y-72700000D01*
X207128500Y-72700000D01*
X207128500Y-71900000D01*
X207466940Y-71900000D01*
X207467479Y-71904094D01*
X207480203Y-72000737D01*
X207485104Y-72037966D01*
X207538356Y-72166530D01*
X207540867Y-72169803D01*
X207540868Y-72169804D01*
X207570328Y-72208196D01*
X207623070Y-72276930D01*
X207626349Y-72279446D01*
X207709004Y-72342870D01*
X207733470Y-72361644D01*
X207862034Y-72414896D01*
X207866126Y-72415435D01*
X207866127Y-72415435D01*
X207995906Y-72432521D01*
X208000000Y-72433060D01*
X208004094Y-72432521D01*
X208133873Y-72415435D01*
X208133874Y-72415435D01*
X208137966Y-72414896D01*
X208266530Y-72361644D01*
X208290997Y-72342870D01*
X208373651Y-72279446D01*
X208376930Y-72276930D01*
X208429672Y-72208196D01*
X208459132Y-72169804D01*
X208459133Y-72169803D01*
X208461644Y-72166530D01*
X208489201Y-72100000D01*
X219542094Y-72100000D01*
X219559611Y-72210599D01*
X219610448Y-72310372D01*
X219689628Y-72389552D01*
X219789401Y-72440389D01*
X219900000Y-72457906D01*
X220010599Y-72440389D01*
X220110372Y-72389552D01*
X220189552Y-72310372D01*
X220240389Y-72210599D01*
X220249987Y-72150000D01*
X223292094Y-72150000D01*
X223309611Y-72260599D01*
X223360448Y-72360372D01*
X223439628Y-72439552D01*
X223539401Y-72490389D01*
X223650000Y-72507906D01*
X223760599Y-72490389D01*
X223860372Y-72439552D01*
X223939552Y-72360372D01*
X223990389Y-72260599D01*
X224007906Y-72150000D01*
X223990389Y-72039401D01*
X223939552Y-71939628D01*
X223860372Y-71860448D01*
X223760599Y-71809611D01*
X223650000Y-71792094D01*
X223539401Y-71809611D01*
X223439628Y-71860448D01*
X223360448Y-71939628D01*
X223309611Y-72039401D01*
X223292094Y-72150000D01*
X220249987Y-72150000D01*
X220257906Y-72100000D01*
X220240389Y-71989401D01*
X220189552Y-71889628D01*
X220110372Y-71810448D01*
X220010599Y-71759611D01*
X219900000Y-71742094D01*
X219789401Y-71759611D01*
X219689628Y-71810448D01*
X219610448Y-71889628D01*
X219559611Y-71989401D01*
X219542094Y-72100000D01*
X208489201Y-72100000D01*
X208514896Y-72037966D01*
X208519798Y-72000737D01*
X208532521Y-71904094D01*
X208533060Y-71900000D01*
X208521058Y-71808835D01*
X208515435Y-71766127D01*
X208515435Y-71766126D01*
X208514896Y-71762034D01*
X208461644Y-71633470D01*
X208388656Y-71538351D01*
X208378379Y-71500000D01*
X218242094Y-71500000D01*
X218259611Y-71610599D01*
X218310448Y-71710372D01*
X218389628Y-71789552D01*
X218489401Y-71840389D01*
X218600000Y-71857906D01*
X218710599Y-71840389D01*
X218810372Y-71789552D01*
X218889552Y-71710372D01*
X218889742Y-71710000D01*
X227452094Y-71710000D01*
X227469611Y-71820599D01*
X227520448Y-71920372D01*
X227599628Y-71999552D01*
X227699401Y-72050389D01*
X227810000Y-72067906D01*
X227920599Y-72050389D01*
X228020372Y-71999552D01*
X228099552Y-71920372D01*
X228150389Y-71820599D01*
X228167906Y-71710000D01*
X228150389Y-71599401D01*
X228099552Y-71499628D01*
X228020372Y-71420448D01*
X227920599Y-71369611D01*
X227810000Y-71352094D01*
X227699401Y-71369611D01*
X227599628Y-71420448D01*
X227520448Y-71499628D01*
X227469611Y-71599401D01*
X227452094Y-71710000D01*
X218889742Y-71710000D01*
X218940389Y-71610599D01*
X218957906Y-71500000D01*
X218940389Y-71389401D01*
X218894837Y-71300000D01*
X228642094Y-71300000D01*
X228642870Y-71304900D01*
X228644817Y-71317192D01*
X228659611Y-71410599D01*
X228710448Y-71510372D01*
X228789628Y-71589552D01*
X228889401Y-71640389D01*
X229000000Y-71657906D01*
X229110599Y-71640389D01*
X229210372Y-71589552D01*
X229289552Y-71510372D01*
X229294837Y-71500000D01*
X232642094Y-71500000D01*
X232659611Y-71610599D01*
X232710448Y-71710372D01*
X232789628Y-71789552D01*
X232889401Y-71840389D01*
X233000000Y-71857906D01*
X233110599Y-71840389D01*
X233210372Y-71789552D01*
X233289552Y-71710372D01*
X233340389Y-71610599D01*
X233357906Y-71500000D01*
X233340389Y-71389401D01*
X233289552Y-71289628D01*
X233210372Y-71210448D01*
X233110599Y-71159611D01*
X233000000Y-71142094D01*
X232889401Y-71159611D01*
X232789628Y-71210448D01*
X232710448Y-71289628D01*
X232659611Y-71389401D01*
X232642094Y-71500000D01*
X229294837Y-71500000D01*
X229340389Y-71410599D01*
X229355183Y-71317192D01*
X229357130Y-71304900D01*
X229357906Y-71300000D01*
X229340389Y-71189401D01*
X229289552Y-71089628D01*
X229210372Y-71010448D01*
X229110599Y-70959611D01*
X229000000Y-70942094D01*
X228889401Y-70959611D01*
X228789628Y-71010448D01*
X228710448Y-71089628D01*
X228659611Y-71189401D01*
X228642094Y-71300000D01*
X218894837Y-71300000D01*
X218889552Y-71289628D01*
X218810372Y-71210448D01*
X218710599Y-71159611D01*
X218600000Y-71142094D01*
X218489401Y-71159611D01*
X218389628Y-71210448D01*
X218310448Y-71289628D01*
X218259611Y-71389401D01*
X218242094Y-71500000D01*
X208378379Y-71500000D01*
X208376176Y-71491777D01*
X208388656Y-71461648D01*
X208459132Y-71369804D01*
X208459133Y-71369803D01*
X208461644Y-71366530D01*
X208514896Y-71237966D01*
X208517034Y-71221731D01*
X208532521Y-71104094D01*
X208533060Y-71100000D01*
X208531233Y-71086122D01*
X208515435Y-70966127D01*
X208515435Y-70966126D01*
X208514896Y-70962034D01*
X208461644Y-70833470D01*
X208447392Y-70814896D01*
X208379446Y-70726349D01*
X208376930Y-70723070D01*
X208305311Y-70668114D01*
X208269804Y-70640868D01*
X208269803Y-70640867D01*
X208266530Y-70638356D01*
X208137966Y-70585104D01*
X208133874Y-70584565D01*
X208133873Y-70584565D01*
X208004094Y-70567479D01*
X208000000Y-70566940D01*
X207995906Y-70567479D01*
X207866127Y-70584565D01*
X207866126Y-70584565D01*
X207862034Y-70585104D01*
X207733470Y-70638356D01*
X207730197Y-70640867D01*
X207730196Y-70640868D01*
X207694689Y-70668114D01*
X207623070Y-70723070D01*
X207620554Y-70726349D01*
X207552609Y-70814896D01*
X207538356Y-70833470D01*
X207485104Y-70962034D01*
X207484565Y-70966126D01*
X207484565Y-70966127D01*
X207468767Y-71086122D01*
X207466940Y-71100000D01*
X207467479Y-71104094D01*
X207482967Y-71221731D01*
X207485104Y-71237966D01*
X207538356Y-71366530D01*
X207540867Y-71369803D01*
X207540868Y-71369804D01*
X207611344Y-71461648D01*
X207623824Y-71508223D01*
X207611345Y-71538351D01*
X207538356Y-71633470D01*
X207485104Y-71762034D01*
X207484565Y-71766126D01*
X207484565Y-71766127D01*
X207478942Y-71808835D01*
X207466940Y-71900000D01*
X207128500Y-71900000D01*
X207128500Y-70300000D01*
X215016940Y-70300000D01*
X215017479Y-70304094D01*
X215025501Y-70365022D01*
X215035104Y-70437966D01*
X215088356Y-70566530D01*
X215090867Y-70569803D01*
X215090868Y-70569804D01*
X215110279Y-70595100D01*
X215173070Y-70676930D01*
X215283470Y-70761644D01*
X215412034Y-70814896D01*
X215416126Y-70815435D01*
X215416127Y-70815435D01*
X215545906Y-70832521D01*
X215550000Y-70833060D01*
X215554094Y-70832521D01*
X215683873Y-70815435D01*
X215683874Y-70815435D01*
X215687966Y-70814896D01*
X215816530Y-70761644D01*
X215926930Y-70676930D01*
X215989721Y-70595100D01*
X216009132Y-70569804D01*
X216009133Y-70569803D01*
X216011644Y-70566530D01*
X216064896Y-70437966D01*
X216074500Y-70365022D01*
X216082521Y-70304094D01*
X216083060Y-70300000D01*
X216076477Y-70250000D01*
X221542094Y-70250000D01*
X221559611Y-70360599D01*
X221610448Y-70460372D01*
X221689628Y-70539552D01*
X221789401Y-70590389D01*
X221900000Y-70607906D01*
X222010599Y-70590389D01*
X222110372Y-70539552D01*
X222189552Y-70460372D01*
X222240389Y-70360599D01*
X222257906Y-70250000D01*
X224542094Y-70250000D01*
X224559611Y-70360599D01*
X224610448Y-70460372D01*
X224689628Y-70539552D01*
X224789401Y-70590389D01*
X224900000Y-70607906D01*
X224949917Y-70600000D01*
X229942094Y-70600000D01*
X229959611Y-70710599D01*
X230010448Y-70810372D01*
X230089628Y-70889552D01*
X230189401Y-70940389D01*
X230300000Y-70957906D01*
X230410599Y-70940389D01*
X230510372Y-70889552D01*
X230589552Y-70810372D01*
X230640389Y-70710599D01*
X230657906Y-70600000D01*
X230640389Y-70489401D01*
X230589552Y-70389628D01*
X230510372Y-70310448D01*
X230489867Y-70300000D01*
X231542094Y-70300000D01*
X231559611Y-70410599D01*
X231610448Y-70510372D01*
X231689628Y-70589552D01*
X231789401Y-70640389D01*
X231900000Y-70657906D01*
X232010599Y-70640389D01*
X232110372Y-70589552D01*
X232189552Y-70510372D01*
X232200589Y-70488710D01*
X239241495Y-70488710D01*
X239241839Y-70492218D01*
X239241839Y-70492219D01*
X239256444Y-70641165D01*
X239259086Y-70668114D01*
X239260196Y-70671452D01*
X239260197Y-70671455D01*
X239314873Y-70835817D01*
X239315986Y-70839162D01*
X239409367Y-70993354D01*
X239411814Y-70995888D01*
X239429260Y-71013954D01*
X239534589Y-71123025D01*
X239685428Y-71221731D01*
X239854386Y-71284566D01*
X239857871Y-71285031D01*
X240029580Y-71307942D01*
X240029581Y-71307942D01*
X240033066Y-71308407D01*
X240095643Y-71302712D01*
X240209087Y-71292388D01*
X240209090Y-71292387D01*
X240212588Y-71292069D01*
X240215929Y-71290983D01*
X240215931Y-71290983D01*
X240380682Y-71237452D01*
X240380683Y-71237451D01*
X240384030Y-71236364D01*
X240387054Y-71234561D01*
X240387057Y-71234560D01*
X240470230Y-71184978D01*
X240538869Y-71144061D01*
X240558932Y-71124956D01*
X240666858Y-71022179D01*
X240669411Y-71019748D01*
X240769168Y-70869602D01*
X240770416Y-70866318D01*
X240770418Y-70866313D01*
X240825786Y-70720554D01*
X240833181Y-70701087D01*
X240833671Y-70697601D01*
X240833672Y-70697597D01*
X240847388Y-70600000D01*
X240858269Y-70522577D01*
X240858391Y-70513878D01*
X240858474Y-70507906D01*
X240858584Y-70500000D01*
X240846204Y-70389628D01*
X240838883Y-70324360D01*
X240838882Y-70324357D01*
X240838490Y-70320859D01*
X240779207Y-70150622D01*
X240777340Y-70147634D01*
X240685549Y-70000737D01*
X240685547Y-70000734D01*
X240683682Y-69997750D01*
X240598395Y-69911865D01*
X240559146Y-69872341D01*
X240559144Y-69872339D01*
X240556662Y-69869840D01*
X240404460Y-69773250D01*
X240326735Y-69745573D01*
X240237956Y-69713960D01*
X240237953Y-69713959D01*
X240234641Y-69712780D01*
X240231146Y-69712363D01*
X240231145Y-69712363D01*
X240059137Y-69691852D01*
X240059133Y-69691852D01*
X240055645Y-69691436D01*
X239966006Y-69700857D01*
X239879866Y-69709910D01*
X239879863Y-69709911D01*
X239876368Y-69710278D01*
X239705722Y-69768371D01*
X239702727Y-69770214D01*
X239702724Y-69770215D01*
X239628954Y-69815599D01*
X239552186Y-69862827D01*
X239505204Y-69908835D01*
X239454146Y-69958835D01*
X239423392Y-69988951D01*
X239396812Y-70030196D01*
X239329285Y-70134978D01*
X239325742Y-70140475D01*
X239264088Y-70309868D01*
X239263647Y-70313359D01*
X239263646Y-70313363D01*
X239248148Y-70436046D01*
X239241495Y-70488710D01*
X232200589Y-70488710D01*
X232240389Y-70410599D01*
X232257906Y-70300000D01*
X232240389Y-70189401D01*
X232189552Y-70089628D01*
X232110372Y-70010448D01*
X232010599Y-69959611D01*
X231900000Y-69942094D01*
X231789401Y-69959611D01*
X231689628Y-70010448D01*
X231610448Y-70089628D01*
X231559611Y-70189401D01*
X231542094Y-70300000D01*
X230489867Y-70300000D01*
X230410599Y-70259611D01*
X230300000Y-70242094D01*
X230189401Y-70259611D01*
X230089628Y-70310448D01*
X230010448Y-70389628D01*
X229959611Y-70489401D01*
X229942094Y-70600000D01*
X224949917Y-70600000D01*
X225010599Y-70590389D01*
X225110372Y-70539552D01*
X225189552Y-70460372D01*
X225240389Y-70360599D01*
X225257906Y-70250000D01*
X225242068Y-70150000D01*
X227642094Y-70150000D01*
X227659611Y-70260599D01*
X227710448Y-70360372D01*
X227789628Y-70439552D01*
X227889401Y-70490389D01*
X228000000Y-70507906D01*
X228110599Y-70490389D01*
X228210372Y-70439552D01*
X228289552Y-70360372D01*
X228340389Y-70260599D01*
X228357906Y-70150000D01*
X228340389Y-70039401D01*
X228289552Y-69939628D01*
X228249924Y-69900000D01*
X228942094Y-69900000D01*
X228959611Y-70010599D01*
X229010448Y-70110372D01*
X229089628Y-70189552D01*
X229189401Y-70240389D01*
X229300000Y-70257906D01*
X229410599Y-70240389D01*
X229510372Y-70189552D01*
X229589552Y-70110372D01*
X229640389Y-70010599D01*
X229657906Y-69900000D01*
X229640389Y-69789401D01*
X229589552Y-69689628D01*
X229510372Y-69610448D01*
X229410599Y-69559611D01*
X229300000Y-69542094D01*
X229189401Y-69559611D01*
X229089628Y-69610448D01*
X229010448Y-69689628D01*
X228959611Y-69789401D01*
X228942094Y-69900000D01*
X228249924Y-69900000D01*
X228210372Y-69860448D01*
X228110599Y-69809611D01*
X228000000Y-69792094D01*
X227889401Y-69809611D01*
X227789628Y-69860448D01*
X227710448Y-69939628D01*
X227659611Y-70039401D01*
X227642094Y-70150000D01*
X225242068Y-70150000D01*
X225240389Y-70139401D01*
X225189552Y-70039628D01*
X225110372Y-69960448D01*
X225010599Y-69909611D01*
X224900000Y-69892094D01*
X224789401Y-69909611D01*
X224689628Y-69960448D01*
X224610448Y-70039628D01*
X224559611Y-70139401D01*
X224542094Y-70250000D01*
X222257906Y-70250000D01*
X222240389Y-70139401D01*
X222189552Y-70039628D01*
X222110372Y-69960448D01*
X222010599Y-69909611D01*
X221900000Y-69892094D01*
X221789401Y-69909611D01*
X221689628Y-69960448D01*
X221610448Y-70039628D01*
X221559611Y-70139401D01*
X221542094Y-70250000D01*
X216076477Y-70250000D01*
X216064896Y-70162034D01*
X216011644Y-70033470D01*
X215996611Y-70013878D01*
X215929446Y-69926349D01*
X215926930Y-69923070D01*
X215855100Y-69867952D01*
X215819804Y-69840868D01*
X215819803Y-69840867D01*
X215816530Y-69838356D01*
X215723929Y-69800000D01*
X219242094Y-69800000D01*
X219259611Y-69910599D01*
X219310448Y-70010372D01*
X219389628Y-70089552D01*
X219489401Y-70140389D01*
X219600000Y-70157906D01*
X219710599Y-70140389D01*
X219810372Y-70089552D01*
X219889552Y-70010372D01*
X219940389Y-69910599D01*
X219957906Y-69800000D01*
X219940389Y-69689401D01*
X219889552Y-69589628D01*
X219810372Y-69510448D01*
X219710599Y-69459611D01*
X219600000Y-69442094D01*
X219489401Y-69459611D01*
X219389628Y-69510448D01*
X219310448Y-69589628D01*
X219259611Y-69689401D01*
X219242094Y-69800000D01*
X215723929Y-69800000D01*
X215687966Y-69785104D01*
X215683874Y-69784565D01*
X215683873Y-69784565D01*
X215554094Y-69767479D01*
X215550000Y-69766940D01*
X215545906Y-69767479D01*
X215416127Y-69784565D01*
X215416126Y-69784565D01*
X215412034Y-69785104D01*
X215283470Y-69838356D01*
X215280197Y-69840867D01*
X215280196Y-69840868D01*
X215244900Y-69867952D01*
X215173070Y-69923070D01*
X215170554Y-69926349D01*
X215103390Y-70013878D01*
X215088356Y-70033470D01*
X215035104Y-70162034D01*
X215016940Y-70300000D01*
X207128500Y-70300000D01*
X207128500Y-69000000D01*
X219542094Y-69000000D01*
X219559611Y-69110599D01*
X219610448Y-69210372D01*
X219689628Y-69289552D01*
X219789401Y-69340389D01*
X219900000Y-69357906D01*
X220010599Y-69340389D01*
X220110372Y-69289552D01*
X220189552Y-69210372D01*
X220194837Y-69200000D01*
X230342094Y-69200000D01*
X230359611Y-69310599D01*
X230410448Y-69410372D01*
X230489628Y-69489552D01*
X230589401Y-69540389D01*
X230700000Y-69557906D01*
X230810599Y-69540389D01*
X230889867Y-69500000D01*
X235642094Y-69500000D01*
X235659611Y-69610599D01*
X235710448Y-69710372D01*
X235789628Y-69789552D01*
X235889401Y-69840389D01*
X236000000Y-69857906D01*
X236110599Y-69840389D01*
X236210372Y-69789552D01*
X236289552Y-69710372D01*
X236340389Y-69610599D01*
X236357906Y-69500000D01*
X236340389Y-69389401D01*
X236289552Y-69289628D01*
X236210372Y-69210448D01*
X236110599Y-69159611D01*
X236000000Y-69142094D01*
X235889401Y-69159611D01*
X235789628Y-69210448D01*
X235710448Y-69289628D01*
X235659611Y-69389401D01*
X235642094Y-69500000D01*
X230889867Y-69500000D01*
X230910372Y-69489552D01*
X230989552Y-69410372D01*
X231040389Y-69310599D01*
X231057906Y-69200000D01*
X231040389Y-69089401D01*
X230989552Y-68989628D01*
X230910372Y-68910448D01*
X230810599Y-68859611D01*
X230700000Y-68842094D01*
X230589401Y-68859611D01*
X230489628Y-68910448D01*
X230410448Y-68989628D01*
X230359611Y-69089401D01*
X230342094Y-69200000D01*
X220194837Y-69200000D01*
X220240389Y-69110599D01*
X220257906Y-69000000D01*
X220240389Y-68889401D01*
X220189552Y-68789628D01*
X220110372Y-68710448D01*
X220010599Y-68659611D01*
X219900000Y-68642094D01*
X219789401Y-68659611D01*
X219689628Y-68710448D01*
X219610448Y-68789628D01*
X219559611Y-68889401D01*
X219542094Y-69000000D01*
X207128500Y-69000000D01*
X207128500Y-68000000D01*
X213566940Y-68000000D01*
X213585104Y-68137966D01*
X213638356Y-68266530D01*
X213723070Y-68376930D01*
X213833470Y-68461644D01*
X213962034Y-68514896D01*
X213966126Y-68515435D01*
X213966127Y-68515435D01*
X214095906Y-68532521D01*
X214100000Y-68533060D01*
X214104094Y-68532521D01*
X214233873Y-68515435D01*
X214233874Y-68515435D01*
X214237966Y-68514896D01*
X214301186Y-68488710D01*
X239241495Y-68488710D01*
X239241839Y-68492218D01*
X239241839Y-68492219D01*
X239256611Y-68642870D01*
X239259086Y-68668114D01*
X239260196Y-68671452D01*
X239260197Y-68671455D01*
X239314873Y-68835817D01*
X239315986Y-68839162D01*
X239409367Y-68993354D01*
X239534589Y-69123025D01*
X239685428Y-69221731D01*
X239854386Y-69284566D01*
X239857871Y-69285031D01*
X240029580Y-69307942D01*
X240029581Y-69307942D01*
X240033066Y-69308407D01*
X240095643Y-69302712D01*
X240209087Y-69292388D01*
X240209090Y-69292387D01*
X240212588Y-69292069D01*
X240215929Y-69290983D01*
X240215931Y-69290983D01*
X240380682Y-69237452D01*
X240380683Y-69237451D01*
X240384030Y-69236364D01*
X240387054Y-69234561D01*
X240387057Y-69234560D01*
X240461450Y-69190212D01*
X240538869Y-69144061D01*
X240558932Y-69124956D01*
X240666858Y-69022179D01*
X240669411Y-69019748D01*
X240769168Y-68869602D01*
X240770416Y-68866318D01*
X240770418Y-68866313D01*
X240829625Y-68710448D01*
X240833181Y-68701087D01*
X240833671Y-68697601D01*
X240833672Y-68697597D01*
X240845695Y-68612046D01*
X240858269Y-68522577D01*
X240858584Y-68500000D01*
X240845062Y-68379446D01*
X240838883Y-68324360D01*
X240838882Y-68324357D01*
X240838490Y-68320859D01*
X240779207Y-68150622D01*
X240773681Y-68141778D01*
X240685549Y-68000737D01*
X240685547Y-68000734D01*
X240683682Y-67997750D01*
X240556662Y-67869840D01*
X240404460Y-67773250D01*
X240303445Y-67737280D01*
X240237956Y-67713960D01*
X240237953Y-67713959D01*
X240234641Y-67712780D01*
X240231146Y-67712363D01*
X240231145Y-67712363D01*
X240059137Y-67691852D01*
X240059133Y-67691852D01*
X240055645Y-67691436D01*
X239966007Y-67700857D01*
X239879866Y-67709910D01*
X239879863Y-67709911D01*
X239876368Y-67710278D01*
X239705722Y-67768371D01*
X239702727Y-67770214D01*
X239702724Y-67770215D01*
X239667632Y-67791804D01*
X239552186Y-67862827D01*
X239423392Y-67988951D01*
X239413633Y-68004094D01*
X239329997Y-68133873D01*
X239325742Y-68140475D01*
X239264088Y-68309868D01*
X239263647Y-68313359D01*
X239263646Y-68313363D01*
X239262257Y-68324360D01*
X239241495Y-68488710D01*
X214301186Y-68488710D01*
X214366530Y-68461644D01*
X214476930Y-68376930D01*
X214561644Y-68266530D01*
X214614896Y-68137966D01*
X214633060Y-68000000D01*
X214614896Y-67862034D01*
X214561644Y-67733470D01*
X214546611Y-67713878D01*
X214479446Y-67626349D01*
X214476930Y-67623070D01*
X214446840Y-67599981D01*
X214422731Y-67558223D01*
X214435211Y-67511648D01*
X214446840Y-67500019D01*
X214473651Y-67479446D01*
X214476930Y-67476930D01*
X214561644Y-67366530D01*
X214609911Y-67250000D01*
X221542094Y-67250000D01*
X221559611Y-67360599D01*
X221610448Y-67460372D01*
X221689628Y-67539552D01*
X221789401Y-67590389D01*
X221900000Y-67607906D01*
X222010599Y-67590389D01*
X222110372Y-67539552D01*
X222189552Y-67460372D01*
X222240389Y-67360599D01*
X222257906Y-67250000D01*
X224542094Y-67250000D01*
X224559611Y-67360599D01*
X224610448Y-67460372D01*
X224689628Y-67539552D01*
X224789401Y-67590389D01*
X224900000Y-67607906D01*
X225010599Y-67590389D01*
X225110372Y-67539552D01*
X225149924Y-67500000D01*
X232642094Y-67500000D01*
X232659611Y-67610599D01*
X232710448Y-67710372D01*
X232789628Y-67789552D01*
X232889401Y-67840389D01*
X233000000Y-67857906D01*
X233110599Y-67840389D01*
X233210372Y-67789552D01*
X233289552Y-67710372D01*
X233340389Y-67610599D01*
X233357906Y-67500000D01*
X233340389Y-67389401D01*
X233289552Y-67289628D01*
X233210372Y-67210448D01*
X233110599Y-67159611D01*
X233000000Y-67142094D01*
X232889401Y-67159611D01*
X232789628Y-67210448D01*
X232710448Y-67289628D01*
X232659611Y-67389401D01*
X232642094Y-67500000D01*
X225149924Y-67500000D01*
X225189552Y-67460372D01*
X225240389Y-67360599D01*
X225257906Y-67250000D01*
X225240389Y-67139401D01*
X225189552Y-67039628D01*
X225110372Y-66960448D01*
X225010599Y-66909611D01*
X224900000Y-66892094D01*
X224789401Y-66909611D01*
X224689628Y-66960448D01*
X224610448Y-67039628D01*
X224559611Y-67139401D01*
X224542094Y-67250000D01*
X222257906Y-67250000D01*
X222240389Y-67139401D01*
X222189552Y-67039628D01*
X222110372Y-66960448D01*
X222010599Y-66909611D01*
X221900000Y-66892094D01*
X221789401Y-66909611D01*
X221689628Y-66960448D01*
X221610448Y-67039628D01*
X221559611Y-67139401D01*
X221542094Y-67250000D01*
X214609911Y-67250000D01*
X214614896Y-67237966D01*
X214617034Y-67221731D01*
X214632521Y-67104094D01*
X214633060Y-67100000D01*
X214624650Y-67036122D01*
X214615435Y-66966127D01*
X214615435Y-66966126D01*
X214614896Y-66962034D01*
X214561644Y-66833470D01*
X214546611Y-66813878D01*
X214479446Y-66726349D01*
X214476930Y-66723070D01*
X214405311Y-66668114D01*
X214369804Y-66640868D01*
X214369803Y-66640867D01*
X214366530Y-66638356D01*
X214273929Y-66600000D01*
X226642094Y-66600000D01*
X226659611Y-66710599D01*
X226710448Y-66810372D01*
X226789628Y-66889552D01*
X226889401Y-66940389D01*
X227000000Y-66957906D01*
X227110599Y-66940389D01*
X227210372Y-66889552D01*
X227289552Y-66810372D01*
X227340389Y-66710599D01*
X227357906Y-66600000D01*
X227542094Y-66600000D01*
X227559611Y-66710599D01*
X227610448Y-66810372D01*
X227689628Y-66889552D01*
X227789401Y-66940389D01*
X227900000Y-66957906D01*
X228010599Y-66940389D01*
X228110372Y-66889552D01*
X228189552Y-66810372D01*
X228240389Y-66710599D01*
X228257906Y-66600000D01*
X228240389Y-66489401D01*
X228240037Y-66488710D01*
X239241495Y-66488710D01*
X239241839Y-66492218D01*
X239241839Y-66492219D01*
X239252888Y-66604900D01*
X239259086Y-66668114D01*
X239260196Y-66671452D01*
X239260197Y-66671455D01*
X239314873Y-66835817D01*
X239315986Y-66839162D01*
X239409367Y-66993354D01*
X239534589Y-67123025D01*
X239685428Y-67221731D01*
X239854386Y-67284566D01*
X239857871Y-67285031D01*
X240029580Y-67307942D01*
X240029581Y-67307942D01*
X240033066Y-67308407D01*
X240095643Y-67302712D01*
X240209087Y-67292388D01*
X240209090Y-67292387D01*
X240212588Y-67292069D01*
X240215929Y-67290983D01*
X240215931Y-67290983D01*
X240380682Y-67237452D01*
X240380683Y-67237451D01*
X240384030Y-67236364D01*
X240387054Y-67234561D01*
X240387057Y-67234560D01*
X240470928Y-67184562D01*
X240538869Y-67144061D01*
X240558932Y-67124956D01*
X240648535Y-67039628D01*
X240669411Y-67019748D01*
X240734207Y-66922223D01*
X240767221Y-66872533D01*
X240767222Y-66872531D01*
X240769168Y-66869602D01*
X240770416Y-66866318D01*
X240770418Y-66866313D01*
X240825786Y-66720554D01*
X240833181Y-66701087D01*
X240833671Y-66697601D01*
X240833672Y-66697597D01*
X240847388Y-66600000D01*
X240858269Y-66522577D01*
X240858584Y-66500000D01*
X240846204Y-66389628D01*
X240838883Y-66324360D01*
X240838882Y-66324357D01*
X240838490Y-66320859D01*
X240779207Y-66150622D01*
X240774932Y-66143781D01*
X240685549Y-66000737D01*
X240685547Y-66000734D01*
X240683682Y-65997750D01*
X240556662Y-65869840D01*
X240404460Y-65773250D01*
X240304108Y-65737516D01*
X240237956Y-65713960D01*
X240237953Y-65713959D01*
X240234641Y-65712780D01*
X240231146Y-65712363D01*
X240231145Y-65712363D01*
X240059137Y-65691852D01*
X240059133Y-65691852D01*
X240055645Y-65691436D01*
X239966007Y-65700857D01*
X239879866Y-65709910D01*
X239879863Y-65709911D01*
X239876368Y-65710278D01*
X239705722Y-65768371D01*
X239702727Y-65770214D01*
X239702724Y-65770215D01*
X239667632Y-65791804D01*
X239552186Y-65862827D01*
X239423392Y-65988951D01*
X239325742Y-66140475D01*
X239264088Y-66309868D01*
X239263647Y-66313359D01*
X239263646Y-66313363D01*
X239245682Y-66455568D01*
X239241495Y-66488710D01*
X228240037Y-66488710D01*
X228189552Y-66389628D01*
X228110372Y-66310448D01*
X228010599Y-66259611D01*
X227900000Y-66242094D01*
X227789401Y-66259611D01*
X227689628Y-66310448D01*
X227610448Y-66389628D01*
X227559611Y-66489401D01*
X227542094Y-66600000D01*
X227357906Y-66600000D01*
X227340389Y-66489401D01*
X227289552Y-66389628D01*
X227210372Y-66310448D01*
X227110599Y-66259611D01*
X227000000Y-66242094D01*
X226889401Y-66259611D01*
X226789628Y-66310448D01*
X226710448Y-66389628D01*
X226659611Y-66489401D01*
X226642094Y-66600000D01*
X214273929Y-66600000D01*
X214237966Y-66585104D01*
X214233874Y-66584565D01*
X214233873Y-66584565D01*
X214104094Y-66567479D01*
X214100000Y-66566940D01*
X214095906Y-66567479D01*
X213966127Y-66584565D01*
X213966126Y-66584565D01*
X213962034Y-66585104D01*
X213833470Y-66638356D01*
X213830197Y-66640867D01*
X213830196Y-66640868D01*
X213794689Y-66668114D01*
X213723070Y-66723070D01*
X213720554Y-66726349D01*
X213653390Y-66813878D01*
X213638356Y-66833470D01*
X213585104Y-66962034D01*
X213584565Y-66966126D01*
X213584565Y-66966127D01*
X213575350Y-67036122D01*
X213566940Y-67100000D01*
X213567479Y-67104094D01*
X213582967Y-67221731D01*
X213585104Y-67237966D01*
X213638356Y-67366530D01*
X213723070Y-67476930D01*
X213726349Y-67479446D01*
X213753160Y-67500019D01*
X213777269Y-67541777D01*
X213764789Y-67588352D01*
X213753161Y-67599980D01*
X213723070Y-67623070D01*
X213720554Y-67626349D01*
X213653390Y-67713878D01*
X213638356Y-67733470D01*
X213585104Y-67862034D01*
X213566940Y-68000000D01*
X207128500Y-68000000D01*
X207128500Y-67187654D01*
X209196500Y-67187654D01*
X209203956Y-67225138D01*
X209232357Y-67267643D01*
X209274862Y-67296044D01*
X209312346Y-67303500D01*
X210687654Y-67303500D01*
X210725138Y-67296044D01*
X210767643Y-67267643D01*
X210796044Y-67225138D01*
X210803500Y-67187654D01*
X210803500Y-65812346D01*
X210796044Y-65774862D01*
X210767643Y-65732357D01*
X210725138Y-65703956D01*
X210687654Y-65696500D01*
X209312346Y-65696500D01*
X209274862Y-65703956D01*
X209232357Y-65732357D01*
X209203956Y-65774862D01*
X209196500Y-65812346D01*
X209196500Y-67187654D01*
X207128500Y-67187654D01*
X207128500Y-65500000D01*
X219342094Y-65500000D01*
X219359611Y-65610599D01*
X219410448Y-65710372D01*
X219489628Y-65789552D01*
X219589401Y-65840389D01*
X219700000Y-65857906D01*
X219810599Y-65840389D01*
X219910372Y-65789552D01*
X219989552Y-65710372D01*
X220040389Y-65610599D01*
X220057906Y-65500000D01*
X220042068Y-65400000D01*
X226642094Y-65400000D01*
X226659611Y-65510599D01*
X226710448Y-65610372D01*
X226789628Y-65689552D01*
X226889401Y-65740389D01*
X227000000Y-65757906D01*
X227110599Y-65740389D01*
X227210372Y-65689552D01*
X227289552Y-65610372D01*
X227340389Y-65510599D01*
X227357906Y-65400000D01*
X227542094Y-65400000D01*
X227559611Y-65510599D01*
X227610448Y-65610372D01*
X227689628Y-65689552D01*
X227789401Y-65740389D01*
X227900000Y-65757906D01*
X228010599Y-65740389D01*
X228110372Y-65689552D01*
X228189552Y-65610372D01*
X228240389Y-65510599D01*
X228242068Y-65500000D01*
X235642094Y-65500000D01*
X235659611Y-65610599D01*
X235710448Y-65710372D01*
X235789628Y-65789552D01*
X235889401Y-65840389D01*
X236000000Y-65857906D01*
X236110599Y-65840389D01*
X236210372Y-65789552D01*
X236289552Y-65710372D01*
X236340389Y-65610599D01*
X236357906Y-65500000D01*
X236340389Y-65389401D01*
X236289552Y-65289628D01*
X236210372Y-65210448D01*
X236110599Y-65159611D01*
X236000000Y-65142094D01*
X235889401Y-65159611D01*
X235789628Y-65210448D01*
X235710448Y-65289628D01*
X235659611Y-65389401D01*
X235642094Y-65500000D01*
X228242068Y-65500000D01*
X228257906Y-65400000D01*
X228240389Y-65289401D01*
X228189552Y-65189628D01*
X228110372Y-65110448D01*
X228010599Y-65059611D01*
X227900000Y-65042094D01*
X227789401Y-65059611D01*
X227689628Y-65110448D01*
X227610448Y-65189628D01*
X227559611Y-65289401D01*
X227542094Y-65400000D01*
X227357906Y-65400000D01*
X227340389Y-65289401D01*
X227289552Y-65189628D01*
X227210372Y-65110448D01*
X227110599Y-65059611D01*
X227000000Y-65042094D01*
X226889401Y-65059611D01*
X226789628Y-65110448D01*
X226710448Y-65189628D01*
X226659611Y-65289401D01*
X226642094Y-65400000D01*
X220042068Y-65400000D01*
X220040389Y-65389401D01*
X219989552Y-65289628D01*
X219910372Y-65210448D01*
X219810599Y-65159611D01*
X219700000Y-65142094D01*
X219589401Y-65159611D01*
X219489628Y-65210448D01*
X219410448Y-65289628D01*
X219359611Y-65389401D01*
X219342094Y-65500000D01*
X207128500Y-65500000D01*
X207128500Y-64488710D01*
X209191495Y-64488710D01*
X209209086Y-64668114D01*
X209210196Y-64671452D01*
X209210197Y-64671455D01*
X209257914Y-64814896D01*
X209265986Y-64839162D01*
X209359367Y-64993354D01*
X209484589Y-65123025D01*
X209635428Y-65221731D01*
X209804386Y-65284566D01*
X209807871Y-65285031D01*
X209979580Y-65307942D01*
X209979581Y-65307942D01*
X209983066Y-65308407D01*
X210045643Y-65302712D01*
X210159087Y-65292388D01*
X210159090Y-65292387D01*
X210162588Y-65292069D01*
X210165929Y-65290983D01*
X210165931Y-65290983D01*
X210330682Y-65237452D01*
X210330683Y-65237451D01*
X210334030Y-65236364D01*
X210337054Y-65234561D01*
X210337057Y-65234560D01*
X210418311Y-65186122D01*
X210488869Y-65144061D01*
X210508932Y-65124956D01*
X210616858Y-65022179D01*
X210619411Y-65019748D01*
X210719168Y-64869602D01*
X210720416Y-64866318D01*
X210720418Y-64866313D01*
X210781929Y-64704382D01*
X210783181Y-64701087D01*
X210783671Y-64697601D01*
X210783672Y-64697597D01*
X210795695Y-64612046D01*
X210808269Y-64522577D01*
X210808584Y-64500000D01*
X210788490Y-64320859D01*
X210781226Y-64300000D01*
X233066940Y-64300000D01*
X233085104Y-64437966D01*
X233138356Y-64566530D01*
X233223070Y-64676930D01*
X233333470Y-64761644D01*
X233462034Y-64814896D01*
X233466126Y-64815435D01*
X233466127Y-64815435D01*
X233595906Y-64832521D01*
X233600000Y-64833060D01*
X233604094Y-64832521D01*
X233733873Y-64815435D01*
X233733874Y-64815435D01*
X233737966Y-64814896D01*
X233866530Y-64761644D01*
X233976930Y-64676930D01*
X234061644Y-64566530D01*
X234093878Y-64488710D01*
X239241495Y-64488710D01*
X239259086Y-64668114D01*
X239260196Y-64671452D01*
X239260197Y-64671455D01*
X239307914Y-64814896D01*
X239315986Y-64839162D01*
X239409367Y-64993354D01*
X239534589Y-65123025D01*
X239685428Y-65221731D01*
X239854386Y-65284566D01*
X239857871Y-65285031D01*
X240029580Y-65307942D01*
X240029581Y-65307942D01*
X240033066Y-65308407D01*
X240095643Y-65302712D01*
X240209087Y-65292388D01*
X240209090Y-65292387D01*
X240212588Y-65292069D01*
X240215929Y-65290983D01*
X240215931Y-65290983D01*
X240380682Y-65237452D01*
X240380683Y-65237451D01*
X240384030Y-65236364D01*
X240387054Y-65234561D01*
X240387057Y-65234560D01*
X240468311Y-65186122D01*
X240538869Y-65144061D01*
X240558932Y-65124956D01*
X240666858Y-65022179D01*
X240669411Y-65019748D01*
X240769168Y-64869602D01*
X240770416Y-64866318D01*
X240770418Y-64866313D01*
X240831929Y-64704382D01*
X240833181Y-64701087D01*
X240833671Y-64697601D01*
X240833672Y-64697597D01*
X240845695Y-64612046D01*
X240858269Y-64522577D01*
X240858584Y-64500000D01*
X240838490Y-64320859D01*
X240779207Y-64150622D01*
X240774932Y-64143781D01*
X240685549Y-64000737D01*
X240685547Y-64000734D01*
X240683682Y-63997750D01*
X240556662Y-63869840D01*
X240404460Y-63773250D01*
X240305846Y-63738135D01*
X240237956Y-63713960D01*
X240237953Y-63713959D01*
X240234641Y-63712780D01*
X240231146Y-63712363D01*
X240231145Y-63712363D01*
X240059137Y-63691852D01*
X240059133Y-63691852D01*
X240055645Y-63691436D01*
X239974161Y-63700000D01*
X239879866Y-63709910D01*
X239879863Y-63709911D01*
X239876368Y-63710278D01*
X239705722Y-63768371D01*
X239702727Y-63770214D01*
X239702724Y-63770215D01*
X239675956Y-63786683D01*
X239552186Y-63862827D01*
X239423392Y-63988951D01*
X239325742Y-64140475D01*
X239264088Y-64309868D01*
X239263647Y-64313359D01*
X239263646Y-64313363D01*
X239247905Y-64437966D01*
X239241495Y-64488710D01*
X234093878Y-64488710D01*
X234114896Y-64437966D01*
X234133060Y-64300000D01*
X234114896Y-64162034D01*
X234061644Y-64033470D01*
X233976930Y-63923070D01*
X233905100Y-63867952D01*
X233869804Y-63840868D01*
X233869803Y-63840867D01*
X233866530Y-63838356D01*
X233737966Y-63785104D01*
X233733874Y-63784565D01*
X233733873Y-63784565D01*
X233604094Y-63767479D01*
X233600000Y-63766940D01*
X233595906Y-63767479D01*
X233466127Y-63784565D01*
X233466126Y-63784565D01*
X233462034Y-63785104D01*
X233333470Y-63838356D01*
X233330197Y-63840867D01*
X233330196Y-63840868D01*
X233294900Y-63867952D01*
X233223070Y-63923070D01*
X233138356Y-64033470D01*
X233085104Y-64162034D01*
X233066940Y-64300000D01*
X210781226Y-64300000D01*
X210729207Y-64150622D01*
X210724932Y-64143781D01*
X210635549Y-64000737D01*
X210635547Y-64000734D01*
X210633682Y-63997750D01*
X210506662Y-63869840D01*
X210354460Y-63773250D01*
X210255846Y-63738135D01*
X210187956Y-63713960D01*
X210187953Y-63713959D01*
X210184641Y-63712780D01*
X210181146Y-63712363D01*
X210181145Y-63712363D01*
X210077467Y-63700000D01*
X219942094Y-63700000D01*
X219959611Y-63810599D01*
X220010448Y-63910372D01*
X220089628Y-63989552D01*
X220189401Y-64040389D01*
X220300000Y-64057906D01*
X220410599Y-64040389D01*
X220510372Y-63989552D01*
X220589552Y-63910372D01*
X220640389Y-63810599D01*
X220657906Y-63700000D01*
X220656616Y-63691852D01*
X220649111Y-63644472D01*
X220640389Y-63589401D01*
X220589552Y-63489628D01*
X220510372Y-63410448D01*
X220489867Y-63400000D01*
X221442094Y-63400000D01*
X221459611Y-63510599D01*
X221510448Y-63610372D01*
X221589628Y-63689552D01*
X221689401Y-63740389D01*
X221800000Y-63757906D01*
X221910599Y-63740389D01*
X222010372Y-63689552D01*
X222089552Y-63610372D01*
X222140389Y-63510599D01*
X222157906Y-63400000D01*
X222442094Y-63400000D01*
X222459611Y-63510599D01*
X222510448Y-63610372D01*
X222589628Y-63689552D01*
X222689401Y-63740389D01*
X222800000Y-63757906D01*
X222910599Y-63740389D01*
X223010372Y-63689552D01*
X223055452Y-63644472D01*
X223100000Y-63626020D01*
X223144548Y-63644472D01*
X223189628Y-63689552D01*
X223289401Y-63740389D01*
X223400000Y-63757906D01*
X223510599Y-63740389D01*
X223610372Y-63689552D01*
X223655452Y-63644472D01*
X223700000Y-63626020D01*
X223744548Y-63644472D01*
X223789628Y-63689552D01*
X223889401Y-63740389D01*
X224000000Y-63757906D01*
X224110599Y-63740389D01*
X224210372Y-63689552D01*
X224289552Y-63610372D01*
X224340389Y-63510599D01*
X224357906Y-63400000D01*
X224340389Y-63289401D01*
X224289552Y-63189628D01*
X224287578Y-63187654D01*
X239246500Y-63187654D01*
X239253956Y-63225138D01*
X239282357Y-63267643D01*
X239324862Y-63296044D01*
X239362346Y-63303500D01*
X240737654Y-63303500D01*
X240775138Y-63296044D01*
X240817643Y-63267643D01*
X240846044Y-63225138D01*
X240853500Y-63187654D01*
X240853500Y-61812346D01*
X240846044Y-61774862D01*
X240817643Y-61732357D01*
X240775138Y-61703956D01*
X240737654Y-61696500D01*
X239362346Y-61696500D01*
X239324862Y-61703956D01*
X239282357Y-61732357D01*
X239253956Y-61774862D01*
X239246500Y-61812346D01*
X239246500Y-63187654D01*
X224287578Y-63187654D01*
X224210372Y-63110448D01*
X224110599Y-63059611D01*
X224000000Y-63042094D01*
X223889401Y-63059611D01*
X223789628Y-63110448D01*
X223744548Y-63155528D01*
X223700000Y-63173980D01*
X223655452Y-63155528D01*
X223610372Y-63110448D01*
X223510599Y-63059611D01*
X223400000Y-63042094D01*
X223289401Y-63059611D01*
X223189628Y-63110448D01*
X223144548Y-63155528D01*
X223100000Y-63173980D01*
X223055452Y-63155528D01*
X223010372Y-63110448D01*
X222910599Y-63059611D01*
X222800000Y-63042094D01*
X222689401Y-63059611D01*
X222589628Y-63110448D01*
X222510448Y-63189628D01*
X222459611Y-63289401D01*
X222442094Y-63400000D01*
X222157906Y-63400000D01*
X222140389Y-63289401D01*
X222089552Y-63189628D01*
X222010372Y-63110448D01*
X221910599Y-63059611D01*
X221800000Y-63042094D01*
X221689401Y-63059611D01*
X221589628Y-63110448D01*
X221510448Y-63189628D01*
X221459611Y-63289401D01*
X221442094Y-63400000D01*
X220489867Y-63400000D01*
X220410599Y-63359611D01*
X220300000Y-63342094D01*
X220189401Y-63359611D01*
X220089628Y-63410448D01*
X220010448Y-63489628D01*
X219959611Y-63589401D01*
X219950889Y-63644472D01*
X219943385Y-63691852D01*
X219942094Y-63700000D01*
X210077467Y-63700000D01*
X210009137Y-63691852D01*
X210009133Y-63691852D01*
X210005645Y-63691436D01*
X209924161Y-63700000D01*
X209829866Y-63709910D01*
X209829863Y-63709911D01*
X209826368Y-63710278D01*
X209655722Y-63768371D01*
X209652727Y-63770214D01*
X209652724Y-63770215D01*
X209625956Y-63786683D01*
X209502186Y-63862827D01*
X209373392Y-63988951D01*
X209275742Y-64140475D01*
X209214088Y-64309868D01*
X209213647Y-64313359D01*
X209213646Y-64313363D01*
X209197905Y-64437966D01*
X209191495Y-64488710D01*
X207128500Y-64488710D01*
X207128500Y-62488710D01*
X209191495Y-62488710D01*
X209209086Y-62668114D01*
X209210196Y-62671452D01*
X209210197Y-62671455D01*
X209264873Y-62835817D01*
X209265986Y-62839162D01*
X209359367Y-62993354D01*
X209484589Y-63123025D01*
X209635428Y-63221731D01*
X209804386Y-63284566D01*
X209807871Y-63285031D01*
X209979580Y-63307942D01*
X209979581Y-63307942D01*
X209983066Y-63308407D01*
X210045643Y-63302712D01*
X210159087Y-63292388D01*
X210159090Y-63292387D01*
X210162588Y-63292069D01*
X210165929Y-63290983D01*
X210165931Y-63290983D01*
X210330682Y-63237452D01*
X210330683Y-63237451D01*
X210334030Y-63236364D01*
X210337054Y-63234561D01*
X210337057Y-63234560D01*
X210420928Y-63184562D01*
X210488869Y-63144061D01*
X210508932Y-63124956D01*
X210616858Y-63022179D01*
X210619411Y-63019748D01*
X210719168Y-62869602D01*
X210720416Y-62866318D01*
X210720418Y-62866313D01*
X210781929Y-62704382D01*
X210783181Y-62701087D01*
X210783671Y-62697601D01*
X210783672Y-62697597D01*
X210795695Y-62612046D01*
X210808269Y-62522577D01*
X210808584Y-62500000D01*
X210788490Y-62320859D01*
X210729207Y-62150622D01*
X210724932Y-62143781D01*
X210635549Y-62000737D01*
X210635547Y-62000734D01*
X210633682Y-61997750D01*
X210506662Y-61869840D01*
X210380854Y-61790000D01*
X217152094Y-61790000D01*
X217169611Y-61900599D01*
X217220448Y-62000372D01*
X217299628Y-62079552D01*
X217399401Y-62130389D01*
X217510000Y-62147906D01*
X217620599Y-62130389D01*
X217720372Y-62079552D01*
X217799552Y-62000372D01*
X217850389Y-61900599D01*
X217867906Y-61790000D01*
X219152094Y-61790000D01*
X219169611Y-61900599D01*
X219220448Y-62000372D01*
X219299628Y-62079552D01*
X219399401Y-62130389D01*
X219510000Y-62147906D01*
X219620599Y-62130389D01*
X219720372Y-62079552D01*
X219799552Y-62000372D01*
X219850389Y-61900599D01*
X219867906Y-61790000D01*
X221152094Y-61790000D01*
X221169611Y-61900599D01*
X221220448Y-62000372D01*
X221299628Y-62079552D01*
X221399401Y-62130389D01*
X221510000Y-62147906D01*
X221620599Y-62130389D01*
X221720372Y-62079552D01*
X221799552Y-62000372D01*
X221850389Y-61900599D01*
X221866322Y-61800000D01*
X234066940Y-61800000D01*
X234067479Y-61804094D01*
X234075212Y-61862827D01*
X234085104Y-61937966D01*
X234138356Y-62066530D01*
X234223070Y-62176930D01*
X234333470Y-62261644D01*
X234462034Y-62314896D01*
X234466126Y-62315435D01*
X234466127Y-62315435D01*
X234595906Y-62332521D01*
X234600000Y-62333060D01*
X234604094Y-62332521D01*
X234733873Y-62315435D01*
X234733874Y-62315435D01*
X234737966Y-62314896D01*
X234866530Y-62261644D01*
X234976930Y-62176930D01*
X235061644Y-62066530D01*
X235114896Y-61937966D01*
X235124789Y-61862827D01*
X235132521Y-61804094D01*
X235133060Y-61800000D01*
X235129139Y-61770215D01*
X235115435Y-61666127D01*
X235115435Y-61666126D01*
X235114896Y-61662034D01*
X235061644Y-61533470D01*
X234976930Y-61423070D01*
X234945343Y-61398832D01*
X234869804Y-61340868D01*
X234869803Y-61340867D01*
X234866530Y-61338356D01*
X234737966Y-61285104D01*
X234733874Y-61284565D01*
X234733873Y-61284565D01*
X234604094Y-61267479D01*
X234600000Y-61266940D01*
X234595906Y-61267479D01*
X234466127Y-61284565D01*
X234466126Y-61284565D01*
X234462034Y-61285104D01*
X234333470Y-61338356D01*
X234330197Y-61340867D01*
X234330196Y-61340868D01*
X234254657Y-61398832D01*
X234223070Y-61423070D01*
X234138356Y-61533470D01*
X234085104Y-61662034D01*
X234084565Y-61666126D01*
X234084565Y-61666127D01*
X234070861Y-61770215D01*
X234066940Y-61800000D01*
X221866322Y-61800000D01*
X221867906Y-61790000D01*
X221850389Y-61679401D01*
X221799552Y-61579628D01*
X221720372Y-61500448D01*
X221620599Y-61449611D01*
X221510000Y-61432094D01*
X221399401Y-61449611D01*
X221299628Y-61500448D01*
X221220448Y-61579628D01*
X221169611Y-61679401D01*
X221152094Y-61790000D01*
X219867906Y-61790000D01*
X219850389Y-61679401D01*
X219799552Y-61579628D01*
X219720372Y-61500448D01*
X219620599Y-61449611D01*
X219510000Y-61432094D01*
X219399401Y-61449611D01*
X219299628Y-61500448D01*
X219220448Y-61579628D01*
X219169611Y-61679401D01*
X219152094Y-61790000D01*
X217867906Y-61790000D01*
X217850389Y-61679401D01*
X217799552Y-61579628D01*
X217720372Y-61500448D01*
X217620599Y-61449611D01*
X217510000Y-61432094D01*
X217399401Y-61449611D01*
X217299628Y-61500448D01*
X217220448Y-61579628D01*
X217169611Y-61679401D01*
X217152094Y-61790000D01*
X210380854Y-61790000D01*
X210354460Y-61773250D01*
X210254108Y-61737516D01*
X210187956Y-61713960D01*
X210187953Y-61713959D01*
X210184641Y-61712780D01*
X210181146Y-61712363D01*
X210181145Y-61712363D01*
X210009137Y-61691852D01*
X210009133Y-61691852D01*
X210005645Y-61691436D01*
X209916006Y-61700857D01*
X209829866Y-61709910D01*
X209829863Y-61709911D01*
X209826368Y-61710278D01*
X209655722Y-61768371D01*
X209652727Y-61770214D01*
X209652724Y-61770215D01*
X209604310Y-61800000D01*
X209502186Y-61862827D01*
X209373392Y-61988951D01*
X209363772Y-62003878D01*
X209283695Y-62128135D01*
X209275742Y-62140475D01*
X209214088Y-62309868D01*
X209213647Y-62313359D01*
X209213646Y-62313363D01*
X209212257Y-62324360D01*
X209191495Y-62488710D01*
X207128500Y-62488710D01*
X207128500Y-61230000D01*
X232142094Y-61230000D01*
X232159611Y-61340599D01*
X232210448Y-61440372D01*
X232289628Y-61519552D01*
X232389401Y-61570389D01*
X232500000Y-61587906D01*
X232610599Y-61570389D01*
X232710372Y-61519552D01*
X232789552Y-61440372D01*
X232840389Y-61340599D01*
X232857906Y-61230000D01*
X232853155Y-61200000D01*
X235642094Y-61200000D01*
X235659611Y-61310599D01*
X235710448Y-61410372D01*
X235789628Y-61489552D01*
X235889401Y-61540389D01*
X236000000Y-61557906D01*
X236110599Y-61540389D01*
X236210372Y-61489552D01*
X236289552Y-61410372D01*
X236340389Y-61310599D01*
X236357906Y-61200000D01*
X236340389Y-61089401D01*
X236289552Y-60989628D01*
X236210372Y-60910448D01*
X236110599Y-60859611D01*
X236000000Y-60842094D01*
X235889401Y-60859611D01*
X235789628Y-60910448D01*
X235710448Y-60989628D01*
X235659611Y-61089401D01*
X235642094Y-61200000D01*
X232853155Y-61200000D01*
X232840389Y-61119401D01*
X232789552Y-61019628D01*
X232710372Y-60940448D01*
X232610599Y-60889611D01*
X232500000Y-60872094D01*
X232389401Y-60889611D01*
X232289628Y-60940448D01*
X232210448Y-61019628D01*
X232159611Y-61119401D01*
X232142094Y-61230000D01*
X207128500Y-61230000D01*
X207128500Y-59500000D01*
X226552094Y-59500000D01*
X226569611Y-59610599D01*
X226620448Y-59710372D01*
X226699628Y-59789552D01*
X226799401Y-59840389D01*
X226910000Y-59857906D01*
X227020599Y-59840389D01*
X227120372Y-59789552D01*
X227199552Y-59710372D01*
X227250389Y-59610599D01*
X227267906Y-59500000D01*
X227250389Y-59389401D01*
X227199552Y-59289628D01*
X227120372Y-59210448D01*
X227020599Y-59159611D01*
X226910000Y-59142094D01*
X226799401Y-59159611D01*
X226699628Y-59210448D01*
X226620448Y-59289628D01*
X226569611Y-59389401D01*
X226552094Y-59500000D01*
X207128500Y-59500000D01*
X207128500Y-57042095D01*
X209145028Y-57042095D01*
X209145245Y-57044368D01*
X209145245Y-57044373D01*
X209153673Y-57132703D01*
X209170534Y-57309431D01*
X209171075Y-57311640D01*
X209214075Y-57487368D01*
X209234364Y-57570285D01*
X209335182Y-57819192D01*
X209336332Y-57821157D01*
X209336334Y-57821160D01*
X209467457Y-58045100D01*
X209470875Y-58050938D01*
X209638601Y-58260669D01*
X209834846Y-58443991D01*
X210055499Y-58597064D01*
X210295938Y-58716680D01*
X210298111Y-58717392D01*
X210298115Y-58717394D01*
X210484854Y-58778610D01*
X210551126Y-58800335D01*
X210652329Y-58817907D01*
X210813820Y-58845947D01*
X210813826Y-58845948D01*
X210815717Y-58846276D01*
X210817632Y-58846371D01*
X210817638Y-58846372D01*
X210899801Y-58850462D01*
X210899806Y-58850462D01*
X210900567Y-58850500D01*
X211068223Y-58850500D01*
X211267846Y-58836016D01*
X211530080Y-58778120D01*
X211532205Y-58777315D01*
X211532208Y-58777314D01*
X211779079Y-58683783D01*
X211779082Y-58683782D01*
X211781211Y-58682975D01*
X211783208Y-58681866D01*
X212013980Y-58553683D01*
X212013983Y-58553681D01*
X212015976Y-58552574D01*
X212229458Y-58389650D01*
X212231053Y-58388019D01*
X212231058Y-58388014D01*
X212415584Y-58199252D01*
X212415586Y-58199250D01*
X212417185Y-58197614D01*
X212524631Y-58050000D01*
X215392094Y-58050000D01*
X215409611Y-58160599D01*
X215460448Y-58260372D01*
X215539628Y-58339552D01*
X215639401Y-58390389D01*
X215750000Y-58407906D01*
X215860599Y-58390389D01*
X215960372Y-58339552D01*
X216039552Y-58260372D01*
X216090389Y-58160599D01*
X216107906Y-58050000D01*
X221942094Y-58050000D01*
X221959611Y-58160599D01*
X222010448Y-58260372D01*
X222089628Y-58339552D01*
X222189401Y-58390389D01*
X222300000Y-58407906D01*
X222410599Y-58390389D01*
X222510372Y-58339552D01*
X222589552Y-58260372D01*
X222640389Y-58160599D01*
X222657906Y-58050000D01*
X222640389Y-57939401D01*
X222589552Y-57839628D01*
X222510372Y-57760448D01*
X222410599Y-57709611D01*
X222300000Y-57692094D01*
X222189401Y-57709611D01*
X222089628Y-57760448D01*
X222010448Y-57839628D01*
X221959611Y-57939401D01*
X221942094Y-58050000D01*
X216107906Y-58050000D01*
X216090389Y-57939401D01*
X216039552Y-57839628D01*
X215960372Y-57760448D01*
X215860599Y-57709611D01*
X215750000Y-57692094D01*
X215639401Y-57709611D01*
X215539628Y-57760448D01*
X215460448Y-57839628D01*
X215409611Y-57939401D01*
X215392094Y-58050000D01*
X212524631Y-58050000D01*
X212575225Y-57980491D01*
X212700265Y-57742828D01*
X212761196Y-57570285D01*
X212788930Y-57491751D01*
X212788932Y-57491744D01*
X212789688Y-57489603D01*
X212824765Y-57311640D01*
X212841178Y-57228365D01*
X212841178Y-57228364D01*
X212841620Y-57226122D01*
X212846306Y-57131999D01*
X212849724Y-57063332D01*
X212854972Y-56957905D01*
X212829466Y-56690569D01*
X212788855Y-56524603D01*
X212766179Y-56431933D01*
X212766178Y-56431930D01*
X212765636Y-56429715D01*
X212748515Y-56387444D01*
X212695749Y-56257172D01*
X212664818Y-56180808D01*
X212658502Y-56170021D01*
X212530276Y-55951027D01*
X212530273Y-55951023D01*
X212529125Y-55949062D01*
X212361399Y-55739331D01*
X212165154Y-55556009D01*
X211944501Y-55402936D01*
X211704062Y-55283320D01*
X211701889Y-55282608D01*
X211701885Y-55282606D01*
X211451052Y-55200379D01*
X211448874Y-55199665D01*
X211347671Y-55182093D01*
X211186180Y-55154053D01*
X211186174Y-55154052D01*
X211184283Y-55153724D01*
X211182368Y-55153629D01*
X211182362Y-55153628D01*
X211100199Y-55149538D01*
X211100194Y-55149538D01*
X211099433Y-55149500D01*
X210931777Y-55149500D01*
X210732154Y-55163984D01*
X210469920Y-55221880D01*
X210467795Y-55222685D01*
X210467792Y-55222686D01*
X210220921Y-55316217D01*
X210220918Y-55316218D01*
X210218789Y-55317025D01*
X210216795Y-55318133D01*
X210216792Y-55318134D01*
X209986020Y-55446317D01*
X209986017Y-55446319D01*
X209984024Y-55447426D01*
X209770542Y-55610350D01*
X209768947Y-55611981D01*
X209768942Y-55611986D01*
X209645975Y-55737776D01*
X209582815Y-55802386D01*
X209424775Y-56019509D01*
X209299735Y-56257172D01*
X209272778Y-56333509D01*
X209211070Y-56508249D01*
X209211068Y-56508256D01*
X209210312Y-56510397D01*
X209209873Y-56512626D01*
X209209871Y-56512632D01*
X209167009Y-56730098D01*
X209158380Y-56773878D01*
X209145028Y-57042095D01*
X207128500Y-57042095D01*
X207128500Y-54025210D01*
X207130647Y-54008903D01*
X207130886Y-54008011D01*
X207133033Y-54000000D01*
X207130886Y-53991988D01*
X207130886Y-53983692D01*
X207131454Y-53983692D01*
X207130842Y-53976221D01*
X207144638Y-53836151D01*
X207147048Y-53824038D01*
X207193038Y-53672429D01*
X207197764Y-53661019D01*
X207272448Y-53521295D01*
X207279309Y-53511026D01*
X207379820Y-53388553D01*
X207388553Y-53379820D01*
X207511026Y-53279309D01*
X207521295Y-53272448D01*
X207661019Y-53197764D01*
X207672429Y-53193038D01*
X207764635Y-53165068D01*
X207824040Y-53147048D01*
X207836150Y-53144638D01*
X207869999Y-53141304D01*
X207976221Y-53130842D01*
X207983692Y-53131454D01*
X207983692Y-53130886D01*
X207991988Y-53130886D01*
X208000000Y-53133033D01*
X208008906Y-53130647D01*
X208025210Y-53128500D01*
X213974790Y-53128500D01*
X213991094Y-53130647D01*
G37*
%TD.AperFunction*%
%TD*%
M02*
